<?xml version="1.0" encoding="UTF-8"?>
<svg id="Layer_2" data-name="Layer 2" xmlns="http://www.w3.org/2000/svg" xmlns:xlink="http://www.w3.org/1999/xlink" viewBox="0 0 211.34 433.47">
  <defs>
    <style>
      .cls-1 {
        fill: none;
      }

      .cls-2 {
        fill: #5c8062;
      }

      .cls-3 {
        fill: #612a00;
      }

      .cls-4 {
        fill: #772e0f;
      }

      .cls-5 {
        fill: #5e3615;
      }

      .cls-6 {
        fill: #fff;
      }

      .cls-7 {
        fill: #a1541c;
      }

      .cls-8 {
        fill: #8c8c8c;
      }

      .cls-9 {
        clip-path: url(#clippath);
      }
    </style>
    <clipPath id="clippath">
      <path class="cls-1" d="M128.32,14.45c-1.73-.9-3.59-1.64-5.62-2.19-5.04-1.37-9.97-1.26-14.61-.31-8.57,1.73-16.16,6.3-21.71,9.63-7.47,4.49-35.86,21.55-35.05,47.75.67,22.09,21.8,40.93,45.07,47.54,2.9.93,7.2,2.02,12.51,2.32,2.45.14,4.5.08,6,.01,1.69-.07,2.67-.14,2.72.07.19.82-10.64,6.68-22.48,6.34-22.5-.63-33.42-23.22-48.83-19.41-4.25,1.05-7.13,3.68-8.62,5.27-1.62-.85-9.04-4.97-11.41-13.43-1.27-4.52-.57-8.39,0-10.49-.3.08-6.78,1.67-7.09,1.75-2.37.58-4.73,1.17-7.09,1.75-3.19.79-6.39,1.57-9.58,2.36-1.73.43-3.12-1.41-2.25-2.96,3.61-6.33,8.2-14.8,13.07-25.03,3.9-8.16,5.14-11.36,8.35-17.86,2.55-5.15,10.76-21.76,18.37-29.89C56.43.19,98.42-8.49,124.78,11.5c1.25.95,2.43,1.93,3.54,2.96"/>
    </clipPath>
  </defs>
  <g id="standing">
    <g>
      <path d="M107.79,121.56c.07,11.2.87,28.45,4.9,49.1,1.23,6.32,2.48,12.73,3.88,18.91,1.05,4.63,2.19,9.13,3.5,13.39.98,3.19,2.06,6.24,3.29,9.12,1.85,4.31,4.01,8.27,6.96,11.68,1.48,1.7,3.17,3.26,5.14,4.55,1.96,1.29,4.21,2.3,6.63,2.85,1.47.34,2.95.5,4.4.5,2.75,0,5.31-.57,7.59-1.42,2-.74,3.81-1.68,5.5-2.7,2.95-1.8,5.55-3.86,8.03-5.87,1.86-1.51,3.63-3.01,5.35-4.36,2.57-2.04,5.01-3.76,7.16-4.84,1.08-.55,2.07-.94,2.99-1.19.92-.25,1.74-.37,2.57-.37.62,0,1.24.07,1.92.22.81.19,1.58.47,2.33.85,1.13.57,2.24,1.39,3.28,2.36,1.04.97,2,2.09,2.83,3.2,2.82,3.76,8.14,4.52,11.9,1.7,3.76-2.82,4.52-8.14,1.7-11.9-1.7-2.27-3.94-4.86-6.93-7.23-1.49-1.18-3.18-2.31-5.07-3.27-1.89-.96-3.99-1.76-6.27-2.28-1.92-.44-3.83-.65-5.7-.64-2.88,0-5.62.49-8.12,1.28-4.4,1.4-8.1,3.62-11.39,5.95-2.47,1.75-4.72,3.59-6.82,5.32-3.13,2.59-5.96,4.91-8.26,6.35-1.15.72-2.14,1.22-2.91,1.5-.78.28-1.29.35-1.67.35-.21,0-.38-.02-.59-.07-.4-.1-.78-.25-1.37-.68-.5-.37-1.13-.96-1.81-1.83-1.2-1.51-2.54-3.87-3.8-6.86-1.9-4.48-3.63-10.35-5.17-16.87-1.56-6.52-2.96-13.7-4.37-20.95-3.77-19.34-4.52-35.49-4.58-45.95-.03-4.69-3.86-8.48-8.55-8.45-4.69.03-8.48,3.86-8.45,8.55"/>
      <path class="cls-5" d="M110.18,324.71l11.55-13.08c2.97-20.4,5.94-40.81,8.9-61.21,1.25-7.79,2.5-15.58,3.76-23.37-5.71-10.07-16.74-14.84-26.03-12.07-9.11,2.72-12.87,11.57-13.42,12.92,1.66,29.36,3.32,58.71,4.98,88.07,3.42,2.92,6.84,5.83,10.26,8.75Z"/>
      <path d="M102.25,424.05c1.01-17.96,1.4-37.36.83-58.01-.48-17.71-1.61-34.43-3.17-50.07,7.27-1.44,14.54-2.89,21.81-4.33-2.95,13.65-5.13,34.38,1.47,57.52,3.34,11.71,7.66,26.85,20.79,37.78,18.21,15.15,41.8,12.56,41.74,14.19-.06,1.58-17.25,2.99-83.47,2.92Z"/>
      <path class="cls-5" d="M66.77,331.81c4.03-3.9,8.07-7.79,12.1-11.69,5.35-30.74,10.71-61.48,16.06-92.23-4.09-1.69-14.17-5.16-23.77-.89-1.79.79-8.11,3.52-12.51,10.5-2.95,4.68-3.74,9.2-3.98,11.66,1.25,22.68,2.5,45.35,3.76,68.03,2.78,4.87,5.56,9.74,8.35,14.61Z"/>
      <path d="M52.37,433.47c1.83-19.03,3.33-38.88,4.38-59.51,1-19.6,1.53-38.53,1.67-56.76l20.45,2.92c-4.86,24.42-3.01,44.06-.83,56.35,2.79,15.75,5.24,29.59,16.07,39.89,16.62,15.82,41.8,12.62,41.74,14.19-.06,1.58-17.25,2.99-83.47,2.92Z"/>
      <path class="cls-2" d="M49.24,94.74c8.52-2.21,15.69,8.84,28.8,16.28,9.05,5.13,23.03,9.74,44.55,7.15-1.47,15.37-2,34.68.52,56.71,2.36,20.56,6.76,38.15,11.27,52.17-6.11,5.73-20.19,17.37-41.74,22.12-16.41,3.62-30.16,1.71-37.98,0,.56-16.42,1.11-32.83,1.67-49.25-6.82-23.09-13.63-46.19-20.45-69.28.6-6.74,1.21-13.47,1.81-20.21,1.95-6.42,5.37-14.09,11.54-15.69"/>
      <path d="M46.59,135.36c5.11,15.65,13.81,35.95,29.17,56.57,2.93,3.93,5.52,7.42,7.97,10.51,1.83,2.32,3.58,4.43,5.35,6.34,2.65,2.86,5.37,5.34,8.58,7.26,1.6.96,3.33,1.76,5.15,2.33,1.82.58,3.73.92,5.65,1.02.44.02.88.04,1.32.04,3.67,0,7.14-.86,10.18-2.21,2.67-1.18,5.03-2.7,7.19-4.37,3.77-2.92,6.99-6.29,10.09-9.63,2.32-2.51,4.57-5,6.81-7.3,3.36-3.45,6.71-6.43,10.07-8.45,1.68-1.01,3.36-1.8,5.09-2.35,1.73-.55,3.51-.87,5.48-.93.21,0,.41,0,.61,0,2.15,0,4.15.33,5.94.82,1.79.49,3.34,1.13,4.58,1.71,4.24,2.01,9.31.2,11.32-4.04,2.01-4.24.2-9.31-4.04-11.32-1.89-.9-4.39-1.93-7.39-2.75-3-.82-6.51-1.42-10.41-1.42-.37,0-.74,0-1.11.02-4.17.12-8.09.94-11.65,2.25-3.12,1.14-5.97,2.64-8.58,4.34-4.56,2.97-8.39,6.51-11.82,10-2.57,2.63-4.93,5.24-7.14,7.63-1.66,1.79-3.24,3.46-4.73,4.9-2.24,2.17-4.31,3.82-6.05,4.78-.87.49-1.65.82-2.37,1.02-.72.21-1.37.3-2.07.3-.13,0-.26,0-.4-.01-.49-.03-.9-.1-1.31-.21-.71-.21-1.49-.56-2.57-1.33-1.61-1.14-3.79-3.28-6.45-6.5-2.67-3.21-5.83-7.44-9.67-12.6-14-18.8-21.95-37.33-26.65-51.7-1.46-4.46-6.26-6.9-10.72-5.44-4.46,1.46-6.9,6.26-5.44,10.72Z"/>
      <path class="cls-7" d="M116.86,113.52c-3.14,2.06,6.12,13.99,7.1,33.81.43,8.68-1.02,13.04,1.48,21.72,1.76,6.11,4.44,10.76,6.45,13.75,2.06-9.47,10.24-50.38-7.1-65.53-.7-.61-5.85-5.12-7.93-3.76"/>
      <path class="cls-7" d="M117.85,115.83c5.56,6.33-3.02,24.31-9.76,34.43-10.09,15.14-18.54,16.67-29.36,31.24-8.19,11.02-12.08,21.9-14.05,28.86-8.9-2.37-17.81-4.73-26.71-7.1-3.31-11.49-6.41-26.69-6.68-44.66-.17-11.01.76-20.85,2.09-29.22.61-4.59,1.8-11.22,4.32-18.95,2.39-7.35,3.59-11.02,5.44-12.14,8.79-5.27,21.61,18.93,45.08,19.62,6.33.19,11.59-.84,15.9-1.86,6.71-1.59,11.13-3.19,13.73-.22"/>
      <path class="cls-8" d="M36.63,113.92c-.41,1.17-.66,2.11-.78,2.85.24-.93.5-1.88.78-2.85M70.63,96.8c-2.4,0-4.71.14-6.9.38,8.42,9.14,20.24,16.17,32.67,19.7.44.14.91.28,1.41.43,2.3-.35,4.4-.8,6.31-1.26,2.97-.71,5.5-1.41,7.62-1.72.48-.3.98-.56,1.52-.76-6.42-5.85-17.19-13.35-32.29-15.9-3.61-.61-7.07-.87-10.34-.87"/>
      <path d="M113.26,113.56c-.53.2-1.04.46-1.52.76.71-.1,1.37-.16,1.98-.16.06,0,.13,0,.19,0-.21-.2-.43-.4-.65-.6"/>
      <path class="cls-4" d="M49.84,105.79c-1.15,0-2.32.14-3.52.43-4.25,1.05-7.13,3.68-8.62,5.27-.03-.02-.06-.03-.09-.05-.4.92-.72,1.74-.98,2.47-.28.97-.54,1.93-.78,2.85-.24,1.51.02,2.24.45,2.6.23.19.5.27.81.27,2.29,0,6.89-4.4,13.79-4.86.38-.03.74-.04,1.09-.04,5.67,0,8.88,3.12,16.02,6.72,3.57,1.8,16.57,8.08,29.56,8.08,4.77,0,9.54-.85,13.84-3.07,3.89-2.01,6.56-4.57,8.12-6.28-.98-1.2-2.86-3.41-5.65-6.01-.06,0-.12,0-.19,0-.62,0-1.28.06-1.98.16-2.12.31-4.64,1.02-7.62,1.72-1.91.45-4.01.91-6.31,1.26,2.82.81,6.59,1.64,11.1,1.89,1.08.06,2.08.08,2.99.08,1.16,0,2.17-.04,3.01-.07.84-.04,1.51-.07,1.97-.07s.73.04.75.15c.18.79-10.05,6.36-21.5,6.36-.33,0-.65,0-.98-.01-20.75-.58-31.65-19.84-45.31-19.84"/>
      <path class="cls-3" d="M149.41,104.28c-9.88,11.22-23.91,13.91-26.82,14.42h-.01c-8.38,1.44-17.43.68-26.18-1.81-23.27-6.61-44.4-25.45-45.07-47.54-.81-26.2,27.58-43.26,35.05-47.75,4.16-2.5,9.48-5.69,15.49-7.86.49-.18.99-.35,1.49-.51l.04-.02c.43-.14.86-.27,1.3-.4l.23-.07c.52-.15,1.04-.29,1.57-.42.52-.13,1.05-.24,1.59-.35,4.64-.95,9.57-1.06,14.61.31,2.03.55,3.89,1.28,5.62,2.19,10.06,5.19,15.41,15.61,19.84,24.22,3.25,6.33,21.75,42.32,1.25,65.6Z"/>
      <path d="M147.77,76.95c-.24,11.12-2.74,26.44-13.81,35.32-3.23,2.6-7.08,4.55-11.37,5.9h-.01c-6.64,1.57-17.98,3.2-30.77-.47-22.35-6.42-44.61-27.73-44.24-52.59.46-31.29,33.36-48.51,38.81-51.34,7.25-3.76,13.92-5.65,18.79-6.68,3.98.33,9.71,1.35,15.51,4.7,11.75,6.78,16.32,18.77,21.41,32.11,0,0,3.9,10.12,5.07,20.36.21,1.84.75,6.64.62,12.68Z"/>
      <path class="cls-6" d="M147.77,76.95c-1.65,2.72-3.78,4.37-6.09,4.37-5.23,0-9.48-8.38-9.48-18.72s4.25-18.71,9.48-18.71c.13,0,.27.01.4.02,2.64,6.95,4.34,13.95,5.07,20.36.21,1.84.75,6.64.62,12.68Z"/>
      <ellipse class="cls-6" cx="101.64" cy="64.59" rx="11.24" ry="18.72"/>
      <path class="cls-6" d="M114.43,34.12c.72.74-2.65,7.33-8.78,9.48-4.84,1.7-10.17.2-10.23-.78-.05-.83,3.62-.92,9.61-3.58,6.36-2.82,8.86-5.66,9.39-5.12Z"/>
      <path class="cls-6" d="M126.6,33.06c-.41.84,2.44,6.88,6.7,8.16,3.37,1.01,6.75-1.22,6.7-2.2-.04-.83-2.48-.41-6.7-2.2-4.47-1.91-6.4-4.37-6.7-3.76Z"/>
      <path class="cls-6" d="M100.12,98.02c1.91-2,3.52-3.25,4.86-4,1.34-.75,2.4-.99,3.24-.99.37,0,.7.05,1,.12,1.22.3,2.08,1.15,2.96,2.02.44.43.88.86,1.39,1.19.51.34,1.1.58,1.79.58.1,0,.2,0,.3-.01.78-.07,1.41-.43,1.9-.87.75-.67,1.27-1.53,1.8-2.19.27-.33.53-.6.8-.78.27-.18.53-.28.86-.29h.03c.46,0,.84.19,1.25.56.61.55,1.18,1.47,1.85,2.31.34.42.7.81,1.15,1.13.44.31.96.53,1.56.56h.13c.89,0,1.66-.42,2.32-.97.99-.84,1.79-2.01,2.51-2.96.35-.47.69-.89.97-1.16.14-.14.27-.23.37-.29.1-.06.17-.07.21-.07h.05s.09.04.18.15c.14.17.33.57.46,1.31.14.75.23,1.83.23,3.36v.11c0,.28.23.52.51.52s.52-.23.52-.51v-.12c0-2.1-.16-3.42-.42-4.29-.13-.44-.29-.77-.49-1.02-.2-.25-.45-.42-.71-.49-.11-.03-.22-.04-.32-.04-.35,0-.65.14-.92.33-.46.33-.86.81-1.28,1.36-.63.82-1.3,1.8-2.01,2.54-.36.37-.72.68-1.09.9-.37.21-.72.32-1.09.32h-.08c-.5-.03-.91-.24-1.33-.63-.63-.57-1.21-1.5-1.87-2.32-.33-.41-.69-.8-1.12-1.1-.43-.3-.95-.5-1.53-.5h-.05c-.73.01-1.33.34-1.79.76-.7.64-1.2,1.48-1.76,2.15-.28.34-.56.63-.87.84-.31.21-.63.34-1.02.38h-.2c-.45,0-.82-.13-1.22-.4-.6-.39-1.2-1.06-1.92-1.73-.72-.66-1.58-1.33-2.75-1.62-.38-.1-.79-.15-1.25-.15-1.05,0-2.29.31-3.74,1.12-1.46.81-3.14,2.13-5.1,4.19-.2.21-.19.53.02.73s.53.19.73-.02Z"/>
      <path class="cls-7" d="M128.32,14.45c-1.73-.9-3.59-1.64-5.62-2.19-5.04-1.37-9.97-1.26-14.61-.31-8.57,1.73-16.16,6.3-21.71,9.63-7.47,4.49-35.86,21.55-35.05,47.75.67,22.09,21.8,40.93,45.07,47.54,2.9.93,7.2,2.02,12.51,2.32,2.45.14,4.5.08,6,.01,1.69-.07,2.67-.14,2.72.07.19.82-10.64,6.68-22.48,6.34-22.5-.63-33.42-23.22-48.83-19.41-4.25,1.05-7.13,3.68-8.62,5.27-1.62-.85-9.04-4.97-11.41-13.43-1.27-4.52-.57-8.39,0-10.49-.3.08-6.78,1.67-7.09,1.75-2.37.58-4.73,1.17-7.09,1.75-3.19.79-6.39,1.57-9.58,2.36-1.73.43-3.12-1.41-2.25-2.96,3.61-6.33,8.2-14.8,13.07-25.03,3.9-8.16,5.14-11.36,8.35-17.86,2.55-5.15,10.76-21.76,18.37-29.89C56.43.19,98.42-8.49,124.78,11.5c1.25.95,2.43,1.93,3.54,2.96"/>
      <g class="cls-9">
        <path class="cls-4" d="M41.82,80.34c-1.68,0-5.86,1.12-9.69,3.13-2.33,1.23-4.41,2.72-6.1,4.17.14-.03.23-.06.26-.06h0c-.25.92-.52,2.18-.64,3.69,1.05-.62,2.36-1.39,3.99-2.37,12.6-7.53,13.05-8.1,12.94-8.35-.06-.14-.32-.21-.74-.21"/>
      </g>
    </g>
  </g>
</svg>