<?xml version="1.0" encoding="UTF-8"?>
<svg id="Layer_2" data-name="Layer 2" xmlns="http://www.w3.org/2000/svg" xmlns:xlink="http://www.w3.org/1999/xlink" viewBox="0 0 195.48 447.35">
  <defs>
    <style>
      .cls-1 {
        fill: none;
      }

      .cls-2 {
        fill: #5c8062;
      }

      .cls-3 {
        fill: #612a00;
      }

      .cls-4 {
        fill: #772e0f;
      }

      .cls-5 {
        fill: #5e3615;
      }

      .cls-6 {
        fill: #fff;
      }

      .cls-7 {
        fill: #a1541c;
      }

      .cls-8 {
        fill: #8c8c8c;
      }

      .cls-9 {
        clip-path: url(#clippath);
      }
    </style>
    <clipPath id="clippath">
      <path class="cls-1" d="M138.45,20.17c-1.6-1.12-3.35-2.08-5.29-2.89-4.82-2-9.73-2.52-14.45-2.18-8.72.62-16.83,4.17-22.76,6.77-7.98,3.5-38.33,16.78-40.88,42.87-2.17,21.99,16.38,43.38,38.61,52.92,2.76,1.29,6.88,2.92,12.11,3.9,5.12.96,8.6.78,8.64,1.2.08.83-11.41,5.26-23.1,3.41-22.23-3.51-30.17-27.31-45.94-25.51-4.35.5-7.54,2.74-9.23,4.13-1.49-1.05-8.33-6.08-9.6-14.78-.68-4.64.51-8.39,1.34-10.4-.31.04-6.94.79-7.26.83-2.42.28-4.84.55-7.26.82-3.27.37-6.53.74-9.8,1.11-1.77.2-2.92-1.8-1.85-3.22,4.39-5.82,10.03-13.63,16.17-23.15,4.91-7.59,6.55-10.6,10.57-16.64,3.19-4.78,13.46-20.2,22.05-27.28,18.48-15.28,61.24-18.51,84.82,4.69,1.12,1.1,2.16,2.23,3.13,3.39"/>
    </clipPath>
  </defs>
  <g id="step_3">
    <g>
      <path class="cls-5" d="M80.39,328.29c4.37-3.51,8.74-7.03,13.12-10.54,8.13-30.13,16.25-60.26,24.38-90.38-3.92-2.05-13.64-6.42-23.59-3.05-1.85.63-8.4,2.77-13.41,9.32-3.36,4.4-4.56,8.82-5.03,11.25-.81,22.7-1.63,45.39-2.44,68.09,2.33,5.1,4.66,10.2,6.98,15.31Z"/>
      <path d="M59.45,424.54c3.56-18.78,4.21-34.74,7.13-55.19,2.78-19.42,5.02-38.24,6.82-56.38,6.7,1.59,13.4,3.18,20.1,4.77-3.98,30.17-5.1,42.5-5.95,56.04-1,15.96-6.35,44.4,3.5,55.65,15.12,17.26,43.27,14.47,43.07,16.03-.16,1.21-13.27,3.29-48.31.51-10.35-.82-15.39-11.91-26.36-21.43Z"/>
      <path d="M104.36,123.76c-.98,7.94-1.98,19-1.98,32.33,0,5.32.16,11.01.54,17,.41,6.42.83,12.94,1.43,19.25.45,4.73,1.01,9.34,1.76,13.73.57,3.29,1.24,6.46,2.09,9.47,1.28,4.52,2.92,8.71,5.4,12.47,1.25,1.87,2.73,3.64,4.51,5.17,1.78,1.53,3.88,2.82,6.21,3.68,2.28.85,4.65,1.23,6.9,1.22,2.41,0,4.67-.41,6.74-1.03,3.63-1.08,6.78-2.73,9.74-4.44,2.22-1.29,4.32-2.64,6.35-3.91,3.04-1.9,5.91-3.62,8.48-4.75,1.28-.57,2.47-.99,3.55-1.27,1.08-.27,2.05-.4,2.93-.4,1.03,0,1.96.15,3.01.54.78.29,1.5.67,2.2,1.15,1.05.71,2.05,1.66,2.95,2.76.91,1.1,1.72,2.33,2.4,3.53,2.31,4.09,7.5,5.52,11.58,3.21,4.09-2.31,5.52-7.5,3.21-11.58-1.4-2.46-3.29-5.33-5.94-8.06-1.33-1.36-2.85-2.7-4.61-3.89-1.75-1.2-3.73-2.26-5.93-3.07-2.95-1.09-5.99-1.59-8.88-1.58-2.53,0-4.95.37-7.21.95-3.96,1.02-7.45,2.67-10.65,4.42-2.39,1.32-4.62,2.71-6.71,4.01-3.12,1.97-5.96,3.74-8.3,4.88-1.17.57-2.2.98-3.03,1.22-.84.24-1.46.32-1.9.32-.42,0-.68-.05-1-.17-.38-.15-.75-.35-1.27-.85-.45-.43-.99-1.1-1.56-2.05-1-1.65-2.03-4.16-2.89-7.29-1.31-4.69-2.27-10.73-2.97-17.39-.71-6.67-1.18-13.96-1.65-21.34-.36-5.61-.51-10.93-.51-15.92,0-12.48.93-22.82,1.85-30.25.57-4.66-2.74-8.9-7.4-9.48-4.66-.57-8.9,2.74-9.48,7.4"/>
      <path class="cls-5" d="M99.33,319.4c1.11-5.71,2.21-11.42,3.32-17.13-7.79-19.09-15.58-38.18-23.37-57.28-2.87-7.35-5.74-14.7-8.61-22.05-4.6.42-15.15,2.05-24.63,10.11-4.28,3.64-7.11,7.54-8.94,10.62,16.32,24.46,32.63,48.92,48.95,73.38,4.43.78,8.85,1.56,13.28,2.33Z"/>
      <path d="M0,372.04c13.63-10.72,27.79-23.76,43.7-36.95,13.64-11.3,26.08-23.07,37.43-33.94,5.62,4.83,13.74,12.04,19.36,16.87-12.56,6.1-34.7,17.11-48.84,36.58-7.16,9.85-11.93,22.65-12.43,39.73-.69,23.68,3.38,44.3,2.06,45.26-1.28.93-.47-15.4-41.27-67.55Z"/>
      <path class="cls-2" d="M49.73,89.66c8.73-1.1,14.43,10.78,26.48,19.83,8.32,6.25,21.59,12.61,43.27,12.8-3.43,15.05-6.43,34.14-6.75,56.31-.3,20.69,1.81,38.7,4.49,53.19-6.79,4.9-22.25,14.64-44.23,16.59-16.74,1.49-30.13-2.17-37.67-4.87,2.66-16.21,5.31-32.42,7.97-48.63l-11.4-71.33c1.46-6.6,2.92-13.21,4.39-19.81,2.75-6.11,7.13-13.28,13.46-14.08"/>
      <path d="M41.89,129.61c3.06,16.18,9.09,37.42,21.68,59.84,2.4,4.27,4.53,8.06,6.55,11.45,1.52,2.54,2.99,4.85,4.5,6.98,2.27,3.18,4.64,5.98,7.58,8.3,1.47,1.15,3.08,2.17,4.81,2.97,1.73.8,3.59,1.39,5.47,1.74,1.47.27,2.94.4,4.39.4,3.32,0,6.45-.69,9.28-1.75,2.48-.93,4.75-2.13,6.88-3.46,3.73-2.33,7.07-5.05,10.31-7.75,2.43-2.03,4.79-4.05,7.13-5.91,3.5-2.8,6.94-5.21,10.29-6.83,1.68-.81,3.32-1.44,4.97-1.86,1.65-.42,3.29-.64,5.03-.64.65,0,1.31.03,1.99.1,2.27.23,4.34.81,6.15,1.54,1.81.73,3.36,1.61,4.57,2.39,3.95,2.54,9.21,1.39,11.75-2.56s1.39-9.21-2.56-11.75c-1.85-1.19-4.33-2.61-7.38-3.84-3.05-1.24-6.7-2.29-10.84-2.7-1.24-.12-2.47-.18-3.67-.18-3.75,0-7.32.58-10.63,1.56-5.81,1.72-10.79,4.59-15.21,7.69-3.32,2.33-6.33,4.81-9.15,7.16-4.21,3.53-8,6.77-11.26,8.86-1.63,1.05-3.1,1.81-4.36,2.28-1.27.47-2.3.65-3.26.65-.43,0-.85-.04-1.3-.12-.48-.09-.88-.21-1.27-.38-.68-.29-1.4-.74-2.38-1.65-1.45-1.34-3.33-3.74-5.56-7.28-2.24-3.53-4.83-8.13-7.97-13.74-11.48-20.44-16.99-39.83-19.8-54.68-.87-4.61-5.32-7.64-9.93-6.77s-7.64,5.32-6.77,9.93Z"/>
      <path class="cls-7" d="M114.38,116.95c-3.37,1.64,4.28,14.66,2.7,34.44-.69,8.66-2.68,12.8-1.31,21.73.96,6.28,3.02,11.24,4.63,14.47,3.25-9.13,16.61-48.65,1.36-65.9-.62-.7-5.15-5.82-7.38-4.74"/>
      <path class="cls-7" d="M115.07,119.36c4.7,6.99-6.11,23.72-14.09,32.89-11.95,13.73-20.52,14.16-33.12,27.22-9.54,9.88-14.79,20.17-17.63,26.82-8.53-3.49-17.05-6.97-25.58-10.46-1.81-11.82-2.93-27.29-.9-45.15,1.24-10.94,3.42-20.58,5.81-28.71,1.2-4.47,3.22-10.9,6.71-18.24,3.31-6.98,4.97-10.47,6.95-11.34,9.39-4.1,19,21.54,42.19,25.23,6.88,1.09,12.66.57,17.3.05,6.15-.69,10.3-1.38,12.35,1.68"/>
      <path class="cls-8" d="M34.76,107.06c-.56,1.11-.92,2.01-1.14,2.73.36-.89.74-1.8,1.14-2.73M63.79,93.94c7.18,10.15,18,18.63,29.88,23.72.42.19.86.4,1.34.6,2.85-.06,5.42-.32,7.71-.58,2.49-.28,4.65-.56,6.48-.59.51-.24,1.05-.43,1.6-.56-5.62-6.62-15.34-15.45-29.99-19.91-6.07-1.85-11.83-2.59-17.03-2.69"/>
      <path d="M110.8,116.53c-.56.13-1.09.32-1.6.56.11,0,.22,0,.32,0,.66,0,1.28.04,1.85.12-.19-.22-.38-.45-.57-.68"/>
      <path class="cls-4" d="M47.05,100.57c-.55,0-1.12.03-1.69.1-4.35.5-7.54,2.74-9.23,4.13-.03-.02-.06-.04-.09-.06-.51.86-.94,1.64-1.28,2.33-.4.93-.78,1.84-1.14,2.73-.44,1.46-.26,2.23.12,2.64.26.28.6.39,1.04.39,1.13,0,2.84-.78,5.03-1.55,2.19-.78,4.86-1.55,7.91-1.55.36,0,.72.01,1.09.03,6.38.39,9.08,4.05,16.12,8.82,3.71,2.51,18.42,12.11,32.94,12.11,3.21,0,6.4-.47,9.47-1.58,4.11-1.5,7.09-3.69,8.86-5.19-.82-1.31-2.4-3.75-4.83-6.69-.57-.09-1.19-.12-1.85-.12-.11,0-.21,0-.32,0-1.83.03-3.99.31-6.48.59-2.29.26-4.87.52-7.71.58,2.69,1.16,6.33,2.47,10.76,3.3,5.12.96,8.6.78,8.64,1.2.07.69-7.84,3.86-17.21,3.86-1.92,0-3.9-.13-5.89-.45-21.43-3.38-29.57-25.6-44.25-25.61"/>
      <path class="cls-3" d="M147.85,111.96c-11.24,9.86-25.5,10.74-28.45,10.86h0c-8.5.35-17.37-1.56-25.73-5.15-22.23-9.54-40.77-30.93-38.61-52.92,2.55-26.09,32.9-39.37,40.88-42.87,4.45-1.95,10.13-4.43,16.37-5.81.51-.11,1.03-.22,1.54-.32h.04c.44-.1.89-.17,1.34-.24l.24-.04c.53-.08,1.07-.15,1.61-.21.53-.06,1.07-.11,1.62-.15,4.72-.35,9.63.17,14.45,2.18,1.94.8,3.69,1.77,5.29,2.89,9.31,6.44,13.28,17.45,16.57,26.56,2.41,6.7,16.15,44.76-7.17,65.22Z"/>
      <path d="M149.73,84.65c-1.66,11-6.11,25.87-18.22,33.26-3.54,2.16-7.6,3.61-12.03,4.39h0c-6.79.7-18.24.87-30.46-4.41-21.34-9.23-40.69-33.22-37.14-57.82,4.47-30.98,39.3-43.84,45.07-45.94,7.67-2.8,14.53-3.82,19.49-4.21,3.9.83,9.45,2.59,14.78,6.65,10.78,8.23,13.78,20.71,17.11,34.59,0,0,2.57,10.53,2.42,20.84-.03,1.85-.11,6.68-1.01,12.65Z"/>
      <path class="cls-6" d="M149.73,84.65c-1.98,2.49-4.31,3.85-6.6,3.55-5.19-.67-8.33-9.53-7-19.78,1.32-10.24,6.61-18.01,11.8-17.34.13.02.27.04.39.07,1.73,7.23,2.52,14.39,2.42,20.84-.03,1.85-.11,6.68-1.01,12.65Z"/>
      <ellipse class="cls-6" cx="105.56" cy="66.47" rx="18.72" ry="11.24" transform="translate(26.11 162.64) rotate(-82.64)"/>
      <path class="cls-6" d="M122.15,37.89c.62.83-3.57,6.93-9.92,8.28-5.02,1.07-10.11-1.1-10.04-2.09.06-.83,3.71-.45,9.99-2.32,6.66-1.98,9.52-4.48,9.97-3.87Z"/>
      <path class="cls-6" d="M134.35,38.4c-.51.78,1.54,7.14,5.6,8.96,3.21,1.43,6.85-.34,6.93-1.33.06-.82-2.41-.72-6.36-3.04-4.19-2.46-5.79-5.15-6.16-4.58Z"/>
      <path class="cls-6" d="M99.77,99.43c3.83-3.09,6.4-3.95,8.08-3.95.63,0,1.14.12,1.57.29,1.21.47,1.97,1.48,2.76,2.48.4.5.8.99,1.29,1.38.49.39,1.11.68,1.84.7h.1c.74,0,1.37-.26,1.9-.62.79-.54,1.4-1.29,1.99-1.86.29-.29.58-.53.86-.69.28-.16.54-.24.84-.25h.16c.46.06.82.29,1.18.71.54.62.99,1.61,1.55,2.53.28.46.6.9.99,1.27.4.37.89.66,1.48.76.16.03.33.04.49.04.82,0,1.57-.35,2.25-.81,1.01-.7,1.91-1.7,2.69-2.5.39-.4.75-.75,1.06-.98.31-.24.55-.33.65-.32h.08s.14.08.26.39c.11.3.21.84.21,1.7,0,.73-.07,1.69-.23,2.93-.04.28.16.54.44.58s.54-.16.58-.44c.17-1.27.24-2.27.24-3.06,0-.93-.09-1.57-.27-2.06-.17-.48-.47-.82-.83-.96-.15-.06-.32-.1-.48-.1-.32,0-.61.11-.88.27-.46.27-.9.68-1.37,1.15-.69.7-1.43,1.52-2.19,2.16-.76.64-1.52,1.05-2.2,1.05-.1,0-.21,0-.31-.03-.49-.09-.87-.36-1.25-.8-.56-.66-1.01-1.66-1.56-2.56-.28-.45-.59-.88-.98-1.23-.39-.35-.89-.61-1.48-.67-.09-.01-.19-.02-.28-.02-.68,0-1.25.28-1.73.64-.72.54-1.3,1.27-1.91,1.84-.62.57-1.21.94-1.93.94h-.07c-.49-.02-.86-.18-1.24-.48-.57-.44-1.09-1.19-1.73-1.97-.64-.78-1.43-1.58-2.58-2.04-.55-.22-1.2-.36-1.95-.36-2.04,0-4.8,1.01-8.72,4.17-.22.18-.26.5-.08.72s.5.26.72.08Z"/>
      <path class="cls-7" d="M138.45,20.17c-1.6-1.12-3.35-2.08-5.29-2.89-4.82-2-9.73-2.52-14.45-2.18-8.72.62-16.83,4.17-22.76,6.77-7.98,3.5-38.33,16.78-40.88,42.87-2.17,21.99,16.38,43.38,38.61,52.92,2.76,1.29,6.88,2.92,12.11,3.9,5.12.96,8.6.78,8.64,1.2.08.83-11.41,5.26-23.1,3.41-22.23-3.51-30.17-27.31-45.94-25.51-4.35.5-7.54,2.74-9.23,4.13-1.49-1.05-8.33-6.08-9.6-14.78-.68-4.64.51-8.39,1.34-10.4-.31.04-6.94.79-7.26.83-2.42.28-4.84.55-7.26.82-3.27.37-6.53.74-9.8,1.11-1.77.2-2.92-1.8-1.85-3.22,4.39-5.82,10.03-13.63,16.17-23.15,4.91-7.59,6.55-10.6,10.57-16.64,3.19-4.78,13.46-20.2,22.05-27.28,18.48-15.28,61.24-18.51,84.82,4.69,1.12,1.1,2.16,2.23,3.13,3.39"/>
      <g class="cls-9">
        <path class="cls-4" d="M43.41,74.38c-2.01,0-5.69.61-9.21,1.91-2.47.92-4.72,2.13-6.59,3.35.14-.02.23-.03.26-.03h0c-.36.88-.8,2.1-1.11,3.57,1.12-.48,2.52-1.08,4.26-1.84,13.46-5.86,13.98-6.36,13.9-6.62-.07-.23-.63-.35-1.52-.35"/>
      </g>
    </g>
  </g>
</svg>