<?xml version="1.0" encoding="UTF-8"?>
<svg id="Layer_2" data-name="Layer 2" xmlns="http://www.w3.org/2000/svg" xmlns:xlink="http://www.w3.org/1999/xlink" viewBox="0 0 200.49 445.31">
  <defs>
    <style>
      .cls-1 {
        fill: none;
      }

      .cls-2 {
        fill: #5c8062;
      }

      .cls-3 {
        fill: #612a00;
      }

      .cls-4 {
        fill: #772e0f;
      }

      .cls-5 {
        fill: #5e3615;
      }

      .cls-6 {
        fill: #fff;
      }

      .cls-7 {
        fill: #a1541c;
      }

      .cls-8 {
        fill: #8c8c8c;
      }

      .cls-9 {
        clip-path: url(#clippath);
      }
    </style>
    <clipPath id="clippath">
      <path class="cls-1" d="M134.34,18.07c-1.65-1.04-3.44-1.93-5.42-2.65-4.91-1.78-9.83-2.09-14.53-1.53-8.68,1.01-16.63,4.92-22.44,7.77-7.82,3.85-37.54,18.47-38.93,44.65-1.18,22.07,18.29,42.61,40.93,51.15,2.82,1.17,7.01,2.61,12.27,3.36,5.16.73,8.62.4,8.68.82.12.83-11.16,5.76-22.93,4.44-22.37-2.52-31.35-25.94-47.03-23.44-4.32.69-7.41,3.07-9.03,4.53-1.54-.98-8.59-5.71-10.25-14.34-.89-4.61.14-8.41.88-10.45-.31.05-6.9,1.1-7.22,1.15-2.41.38-4.81.77-7.22,1.15-3.25.52-6.49,1.03-9.74,1.55-1.75.28-3-1.67-1.99-3.13,4.13-6.01,9.41-14.06,15.12-23.84,4.57-7.8,6.07-10.89,9.82-17.1,2.97-4.92,12.55-20.78,20.81-28.24,17.78-16.09,60.35-21.22,84.94.91,1.17,1.05,2.26,2.13,3.28,3.24"/>
    </clipPath>
  </defs>
  <g id="step_7">
    <g>
      <path d="M104.89,123.08c-.43,5.47-.8,12.41-.8,20.52s.4,18.15,1.56,28.82c.7,6.4,1.4,12.89,2.28,19.16.66,4.71,1.42,9.29,2.37,13.63.71,3.26,1.53,6.39,2.51,9.37,1.48,4.45,3.3,8.57,5.95,12.22,1.33,1.82,2.89,3.51,4.74,4.97,1.85,1.45,4.01,2.65,6.37,3.4,2,.64,4.06.94,6.03.94,2.53,0,4.89-.47,7.04-1.16,3.77-1.22,6.96-3.06,9.95-4.96,2.24-1.43,4.35-2.93,6.39-4.33,3.05-2.11,5.94-4,8.51-5.24,1.28-.62,2.47-1.08,3.55-1.38,1.08-.3,2.04-.43,2.94-.43.87,0,1.7.12,2.63.41.79.25,1.53.6,2.25,1.05,1.08.67,2.12,1.57,3.07,2.63.96,1.05,1.82,2.25,2.55,3.42,2.49,3.98,7.74,5.18,11.72,2.69,3.98-2.49,5.18-7.74,2.69-11.72-1.51-2.4-3.52-5.18-6.3-7.79-1.39-1.3-2.97-2.57-4.77-3.68-1.8-1.12-3.83-2.09-6.06-2.8-2.6-.83-5.24-1.21-7.78-1.21-2.65,0-5.18.41-7.53,1.06-4.11,1.15-7.69,2.99-10.93,4.94-2.43,1.47-4.68,3.01-6.78,4.46-3.14,2.18-5.99,4.14-8.32,5.38-1.16.62-2.18,1.06-3,1.32-.82.26-1.41.33-1.82.33-.33,0-.56-.04-.84-.13-.39-.13-.76-.32-1.31-.79-.47-.41-1.04-1.05-1.65-1.98-1.07-1.61-2.21-4.07-3.21-7.15-1.52-4.63-2.74-10.62-3.74-17.24-1-6.63-1.8-13.9-2.6-21.24-1.09-9.98-1.46-19.08-1.46-26.98s.35-14.08.75-19.2c.37-4.68-3.13-8.77-7.81-9.14-4.68-.37-8.77,3.13-9.14,7.81"/>
      <path class="cls-5" d="M155.67,298.17c-.05-5.82-.1-11.63-.15-17.45-11.43-17.16-22.86-34.32-34.29-51.48-4.28-6.63-8.55-13.26-12.83-19.9-10.98-3.68-22.37.16-27.43,8.43-4.96,8.11-1.84,17.21-1.35,18.57,20.86,20.73,41.71,41.45,62.57,62.18,4.49-.12,8.99-.24,13.48-.36Z"/>
      <path d="M80.2,377.21c11.35-13.96,19.57-27.64,31.23-44.7,9.99-14.63,16.82-30.37,24.73-43.95,6.74,3.09,13.47,6.19,20.21,9.28-9.26,11.62-20.7,28.07-32.06,49.37-4.92,9.23-13.91,18.3-9.68,34.86,5.87,22.95,32.92,31.33,32.92,31.33,0,0-14.31,6-33.55-8.23-8.53-6.31-19.41-16.42-33.79-27.97Z"/>
      <path class="cls-5" d="M45.97,336.46c4.36-3.74,8.73-7.49,13.09-11.23,8.04-31.76,16.09-63.51,24.13-95.27-3.93-2.11-13.67-6.59-23.61-2.92-1.85.68-8.39,3-13.39,9.95-3.35,4.66-4.53,9.32-5,11.88-.75,23.86-1.5,47.72-2.25,71.58l7.03,16Z"/>
      <path d="M15.05,424.97c3.88-19.35,18.85-86.4,22.99-104.15,6.44,2.44,15.46,2.25,21.9,4.7-5.44,29.48-10.15,44.12-12.74,57.43-3.06,15.7-1.06,28.99,7.25,41.42,12.76,19.07,43.29,17.7,42.89,19.21-.31,1.18-53.63,1.74-53.63,1.74,0,0-16.23-4.68-28.65-20.34Z"/>
      <path class="cls-2" d="M48.8,91.45c8.68-1.49,14.9,10.13,27.33,18.63,8.59,5.88,22.13,11.63,43.8,10.86-2.76,15.19-4.9,34.39-4.23,56.55.62,20.68,3.54,38.58,6.86,52.93-6.57,5.2-21.57,15.62-43.44,18.54-16.65,2.23-30.2-.83-37.85-3.18,1.93-16.31,3.86-32.62,5.79-48.94-4.86-23.58-9.71-47.17-14.57-70.75,1.17-6.66,2.33-13.32,3.5-19.98,2.48-6.23,6.53-13.59,12.82-14.66"/>
      <path d="M42.75,131.71c3.78,16.02,10.75,36.98,24.33,58.82,2.59,4.16,4.88,7.85,7.06,11.14,1.63,2.47,3.2,4.71,4.8,6.77,2.41,3.07,4.9,5.77,7.94,7.95,1.52,1.09,3.17,2.03,4.94,2.75,1.77.73,3.64,1.23,5.54,1.49,1.12.16,2.23.23,3.33.23,3.45,0,6.72-.76,9.62-1.92,2.55-1.02,4.86-2.34,7.02-3.79,3.76-2.55,7.08-5.51,10.3-8.44,2.41-2.2,4.75-4.39,7.07-6.41,3.48-3.03,6.91-5.63,10.28-7.37,1.69-.87,3.35-1.54,5.03-2,1.68-.45,3.38-.69,5.21-.7.36,0,.73,0,1.11.03,2.28.12,4.37.62,6.21,1.27,1.84.65,3.43,1.46,4.67,2.18,4.06,2.36,9.26.98,11.62-3.08s.98-9.26-3.08-11.62c-1.9-1.1-4.44-2.41-7.55-3.51-3.11-1.1-6.8-1.99-10.95-2.21-.68-.04-1.36-.06-2.04-.06-3.92,0-7.64.63-11.07,1.7-3,.94-5.79,2.2-8.36,3.64-4.51,2.53-8.42,5.6-11.96,8.65-2.66,2.3-5.11,4.6-7.42,6.71-3.45,3.17-6.61,5.89-9.31,7.59-1.34.85-2.56,1.45-3.6,1.81-1.06.36-1.93.51-2.8.52-.32,0-.65-.02-.99-.07-.49-.07-.89-.17-1.28-.32-.69-.26-1.44-.68-2.45-1.54-1.51-1.27-3.5-3.59-5.88-7.02-2.39-3.42-5.18-7.91-8.58-13.37-12.38-19.91-18.75-39.04-22.22-53.75-1.08-4.57-5.66-7.4-10.23-6.32s-7.4,5.66-6.32,10.23Z"/>
      <path class="cls-7" d="M114.6,115.84c-3.3,1.79,4.92,14.45,4.24,34.28-.3,8.69-2.11,12.91-.34,21.77,1.24,6.23,3.52,11.09,5.27,14.25,2.84-9.27,14.43-49.34-1.58-65.89-.65-.67-5.4-5.59-7.59-4.41"/>
      <path class="cls-7" d="M115.4,118.21c5.01,6.78-5.05,23.97-12.61,33.49-11.32,14.24-19.87,15.06-31.88,28.67-9.09,10.3-13.88,20.81-16.42,27.58-8.67-3.1-17.35-6.21-26.02-9.31-2.34-11.72-4.15-27.13-2.91-45.06.76-10.98,2.5-20.71,4.53-28.94.99-4.52,2.73-11.03,5.89-18.53,3-7.12,4.5-10.68,6.44-11.64,9.2-4.51,19.94,20.67,43.27,23.33,6.7.76,12.31.05,16.85-.65,6.35-.99,10.61-1.98,12.85,1.06"/>
      <path class="cls-8" d="M64.69,95.07c-.56,0-1.11,0-1.65.02,7.62,9.82,18.81,17.81,30.91,22.37.42.18.88.36,1.37.54,2.66-.18,5.07-.52,7.24-.85,2.66-.41,4.95-.83,6.89-.95.5-.26,1.03-.47,1.58-.63-5.91-6.36-16.01-14.75-30.85-18.55-5.5-1.41-10.72-1.95-15.48-1.95"/>
      <path d="M111.01,115.57c-.55.16-1.08.37-1.58.63.35-.02.7-.03,1.03-.03.4,0,.79.02,1.15.06-.2-.22-.4-.43-.6-.66"/>
      <path class="cls-8" d="M34.63,109.5c-.51,1.13-.83,2.04-1.02,2.78.32-.9.66-1.83,1.02-2.78"/>
      <path class="cls-4" d="M47.26,102.45c-.76,0-1.54.06-2.33.19-4.32.69-7.41,3.07-9.03,4.53-.03-.02-.06-.04-.09-.06-.47.89-.86,1.68-1.18,2.38-.36.95-.7,1.87-1.02,2.78-.37,1.48-.16,2.24.23,2.63.25.24.57.35.95.35,1.16,0,2.93-.92,5.24-1.85,2.31-.92,5.15-1.85,8.45-1.85.1,0,.2,0,.3,0,6.39.11,9.26,3.64,16.49,8.09,3.68,2.26,17.91,10.67,31.93,10.67,3.71,0,7.41-.59,10.9-2.04,4.04-1.68,6.92-4,8.62-5.58-.88-1.28-2.57-3.64-5.12-6.47-.37-.04-.75-.06-1.15-.06-.33,0-.67.01-1.03.03-1.93.12-4.23.53-6.89.95-2.17.34-4.58.68-7.24.85,2.74,1.04,6.43,2.18,10.9,2.82,5.16.73,8.62.4,8.68.82.1.73-8.67,4.66-18.83,4.66-1.35,0-2.72-.07-4.1-.22-21.24-2.39-30.41-23.62-44.7-23.62"/>
      <path class="cls-3" d="M147.82,109.35c-10.79,10.35-24.99,11.86-27.93,12.12h0c-8.47.73-17.43-.79-25.94-4-22.63-8.54-42.11-29.08-40.93-51.15,1.39-26.18,31.11-40.8,38.93-44.65,4.36-2.14,9.92-4.88,16.09-6.53.5-.14,1.02-.27,1.53-.38l.04-.02c.44-.1.88-.2,1.33-.29l.23-.05c.53-.1,1.06-.2,1.6-.29.53-.09,1.07-.15,1.61-.22,4.7-.56,9.63-.25,14.53,1.53,1.98.72,3.77,1.61,5.42,2.65,9.59,6.02,14.05,16.84,17.74,25.8,2.71,6.58,18.13,44-4.25,65.48Z"/>
      <path d="M148.48,81.98c-1.17,11.06-4.95,26.12-16.72,34.04-3.44,2.32-7.44,3.94-11.82,4.93h-.01c-6.75,1-18.18,1.68-30.62-3.05-21.73-8.27-42.13-31.38-39.68-56.11,3.08-31.15,37.31-45.54,42.98-47.9,7.54-3.14,14.34-4.47,19.28-5.08,3.94.66,9.56,2.16,15.06,5.99,11.14,7.74,14.69,20.07,18.64,33.8,0,0,3.04,10.41,3.35,20.71.05,1.85.19,6.68-.45,12.69Z"/>
      <path class="cls-6" d="M148.48,81.98c-1.87,2.57-4.13,4.04-6.43,3.84-5.21-.44-8.74-9.15-7.88-19.45.87-10.29,5.8-18.29,11.02-17.85.13.01.27.03.4.05,2.05,7.15,3.16,14.26,3.35,20.71.05,1.85.19,6.68-.45,12.69Z"/>
      <path class="cls-6" d="M114.74,66.74c-.87,10.3-6.59,18.23-12.77,17.71-6.19-.52-10.5-9.29-9.64-19.59.87-10.3,6.59-18.23,12.77-17.71,6.19.52,10.5,9.29,9.64,19.59Z"/>
      <path class="cls-6" d="M118.85,36.5c.66.8-3.26,7.08-9.54,8.71-4.97,1.29-10.15-.65-10.12-1.64.02-.83,3.69-.61,9.88-2.76,6.57-2.28,9.31-4.9,9.79-4.31Z"/>
      <path class="cls-6" d="M131.06,36.47c-.48.8,1.86,7.07,5.99,8.7,3.27,1.29,6.83-.65,6.86-1.63.03-.83-2.44-.61-6.49-2.76-4.3-2.27-6.01-4.89-6.36-4.3Z"/>
      <path class="cls-6" d="M99.22,98.98c3.85-3.4,6.43-4.31,8.11-4.31.53,0,.98.09,1.37.22,1.23.42,2.03,1.38,2.86,2.34.41.48.83.95,1.34,1.32.51.37,1.13.63,1.85.63h.04c.77,0,1.41-.3,1.94-.69.79-.59,1.38-1.38,1.96-1.99.29-.31.57-.56.85-.73.28-.17.54-.26.85-.26h.1c.47.04.83.25,1.21.65.57.59,1.06,1.57,1.66,2.46.3.45.64.88,1.05,1.23.41.35.92.62,1.52.69.12.02.24.02.36.02.85,0,1.6-.37,2.27-.87,1.01-.75,1.87-1.81,2.64-2.66.38-.43.73-.8,1.03-1.05.3-.25.54-.34.63-.34h.07c.05.03.17.08.32.48.14.39.25,1.1.25,2.22,0,.63-.03,1.38-.11,2.29-.02.28.19.53.47.56.28.02.53-.19.56-.47.08-.93.12-1.72.12-2.38,0-1.19-.11-1.99-.31-2.56-.19-.57-.53-.95-.93-1.1-.14-.05-.28-.08-.42-.08-.33,0-.63.12-.89.29-.46.29-.89.73-1.34,1.22-.67.74-1.39,1.62-2.14,2.29-.75.68-1.5,1.11-2.2,1.11h-.23c-.5-.08-.89-.34-1.28-.76-.59-.63-1.08-1.61-1.67-2.49-.3-.44-.63-.86-1.04-1.19-.41-.33-.92-.57-1.51-.61h-.16c-.7,0-1.29.29-1.77.68-.72.58-1.28,1.36-1.88,1.97-.61.61-1.19,1.01-1.95,1.02h-.03c-.49,0-.86-.15-1.25-.43-.58-.42-1.14-1.15-1.81-1.89-.67-.74-1.49-1.51-2.66-1.91-.49-.17-1.06-.28-1.7-.28-2.06,0-4.85,1.08-8.79,4.56-.21.19-.23.51-.05.73.19.21.51.23.73.05Z"/>
      <path class="cls-7" d="M134.34,18.07c-1.65-1.04-3.44-1.93-5.42-2.65-4.91-1.78-9.83-2.09-14.53-1.53-8.68,1.01-16.63,4.92-22.44,7.77-7.82,3.85-37.54,18.47-38.93,44.65-1.18,22.07,18.29,42.61,40.93,51.15,2.82,1.17,7.01,2.61,12.27,3.36,5.16.73,8.62.4,8.68.82.12.83-11.16,5.76-22.93,4.44-22.37-2.52-31.35-25.94-47.03-23.44-4.32.69-7.41,3.07-9.03,4.53-1.54-.98-8.59-5.71-10.25-14.34-.89-4.61.14-8.41.88-10.45-.31.05-6.9,1.1-7.22,1.15-2.41.38-4.81.77-7.22,1.15-3.25.52-6.49,1.03-9.74,1.55-1.75.28-3-1.67-1.99-3.13,4.13-6.01,9.41-14.06,15.12-23.84,4.57-7.8,6.07-10.89,9.82-17.1,2.97-4.92,12.55-20.78,20.81-28.24,17.78-16.09,60.35-21.22,84.94.91,1.17,1.05,2.26,2.13,3.28,3.24"/>
      <g class="cls-9">
        <path class="cls-4" d="M42.18,76.46c-1.9,0-5.81.77-9.48,2.33-2.43,1.03-4.62,2.34-6.43,3.64.14-.02.23-.04.26-.04h0c-.32.9-.7,2.13-.95,3.62,1.1-.53,2.47-1.19,4.17-2.03,13.18-6.45,13.68-6.98,13.59-7.23-.07-.19-.48-.29-1.16-.29"/>
      </g>
    </g>
  </g>
</svg>