<?xml version="1.0" encoding="UTF-8"?>
<svg xmlns="http://www.w3.org/2000/svg" xmlns:xlink="http://www.w3.org/1999/xlink" viewBox="0 0 236.19 447.6">
  <defs>
    <style>
      .cls-1 {
        fill: #5c8062;
      }

      .cls-2 {
        stroke: #fff;
        stroke-width: 1.03px;
      }

      .cls-2, .cls-3 {
        fill: none;
        stroke-linecap: round;
        stroke-miterlimit: 10;
      }

      .cls-4 {
        fill: #612a00;
      }

      .cls-5 {
        isolation: isolate;
      }

      .cls-6 {
        fill: #5e3615;
      }

      .cls-7 {
        fill: #fff;
      }

      .cls-8 {
        fill: #a1541c;
      }

      .cls-9 {
        mix-blend-mode: overlay;
        opacity: .45;
      }

      .cls-3 {
        stroke: #000;
        stroke-width: 17px;
      }

      .cls-10 {
        clip-path: url(#clippath);
      }
    </style>
    <clipPath id="clippath">
      <path class="cls-8" d="M168.86,17.81c-1.65-1.03-3.45-1.91-5.43-2.62-4.92-1.76-9.84-2.03-14.54-1.45-8.68,1.06-16.6,5.02-22.4,7.9-7.8,3.9-37.43,18.69-38.67,44.87-1.06,22.08,18.54,42.5,41.22,50.91,2.82,1.15,7.02,2.57,12.29,3.29,5.16.7,8.63.35,8.69.77.12.83-11.13,5.83-22.9,4.57-22.38-2.39-31.5-25.75-47.17-23.16-4.32.71-7.39,3.11-9.01,4.59-1.55-.97-8.62-5.66-10.33-14.28-.91-4.6.09-8.41.82-10.45-.31.05-6.89,1.14-7.21,1.19-2.4.4-4.81.79-7.21,1.19-3.24.53-6.49,1.07-9.73,1.6-1.75.29-3.01-1.65-2.01-3.12,4.09-6.03,9.33-14.12,14.99-23.93,4.52-7.83,6.01-10.92,9.72-17.15,2.94-4.94,12.43-20.85,20.65-28.36,17.69-16.19,60.23-21.57,84.95.42,1.17,1.04,2.27,2.12,3.3,3.23Z"/>
    </clipPath>
  </defs>
  <g class="cls-5">
    <g id="Layer_2" data-name="Layer 2">
      <g id="step_2">
        <path id="L_arm" class="cls-3" d="M148.5,123.6c-.78,10.8-1.31,27.52,1.02,47.75,2.93,25.57,5.91,51.46,18.68,55.47,14.26,4.47,28.95-22.02,46.92-16.42,6.06,1.89,10.06,6.67,12.57,10.61"/>
        <path id="L_leg" class="cls-6" d="M159.33,319.62c1.99-5.47,3.97-10.93,5.96-16.4-4.71-20.07-9.42-40.15-14.13-60.22-1.69-7.71-3.38-15.42-5.06-23.12-9-7.28-21.01-7.68-28.64-1.69-7.48,5.86-7.74,15.48-7.76,16.93,12.3,26.71,24.59,53.42,36.89,80.13,4.25,1.46,8.5,2.92,12.75,4.38Z"/>
        <path id="R_leg" class="cls-6" d="M77.96,330.11c4.56-3.26,9.13-6.52,13.69-9.78,9.81-29.62,19.62-59.25,29.43-88.87-3.8-2.27-13.26-7.18-23.38-4.37-1.88.52-8.54,2.29-13.92,8.55-3.61,4.2-5.05,8.55-5.65,10.95-2.09,22.62-4.18,45.23-6.27,67.85,2.04,5.23,4.07,10.45,6.11,15.68Z"/>
        <path id="R_foot" d="M111.26,412.15c6.25-18.07,9.22-33.76,15.08-53.56,5.57-18.81,10.53-37.1,14.95-54.78,6.4,2.55,15.65,6.24,22.05,8.79-12.79,28.74-16.49,39.17-19.3,52.44-3.31,15.65-14.7,42.18-3.79,52.4,15.95,14.93,45.15,15.39,44.73,16.9-.33,1.17-15.12,1.99-50.76,2.86-10.38.25-13.5-14.02-22.97-25.03Z"/>
        <path class="cls-1" d="M83.75,91.68c8.67-1.54,14.95,10.04,27.44,18.48,8.62,5.82,22.2,11.51,43.86,10.61-2.67,15.21-4.7,34.42-3.9,56.57.74,20.68,3.76,38.56,7.16,52.89-6.54,5.24-21.48,15.74-43.34,18.8-16.64,2.33-30.2-.65-37.86-2.96,1.84-16.32,3.67-32.65,5.51-48.97-4.99-23.56-9.99-47.11-14.98-70.67,1.13-6.67,2.26-13.34,3.38-20,2.44-6.24,6.45-13.62,12.73-14.74Z"/>
        <path id="R_arm" class="cls-3" d="M86.19,129.97c3.72,15.35,10.5,35.35,23.6,56.15,10.45,16.59,15.67,24.88,24.39,26.04,19.42,2.58,31.91-32.04,58.09-30.76,6.44.31,11.57,2.7,14.72,4.5"/>
        <g>
          <path class="cls-8" d="M149.69,115.68c-3.29,1.8,5.01,14.42,4.44,34.26-.25,8.69-2.04,12.92-.22,21.77,1.28,6.23,3.59,11.07,5.35,14.22,2.79-9.29,14.14-49.43-1.96-65.88-.65-.67-5.44-5.56-7.61-4.36Z"/>
          <path class="cls-8" d="M150.5,118.05c5.04,6.75-4.91,24-12.42,33.56-11.24,14.31-19.78,15.18-31.71,28.85-9.03,10.35-13.76,20.89-16.26,27.68-8.69-3.05-17.38-6.11-26.08-9.16-2.41-11.71-4.3-27.11-3.17-45.04.69-10.99,2.38-20.73,4.36-28.96.97-4.53,2.67-11.05,5.78-18.56,2.96-7.14,4.44-10.71,6.37-11.67,9.17-4.56,20.06,20.56,43.41,23.07,16.1,1.74,25.83-4.96,29.71.23Z"/>
          <path class="cls-9" d="M68.93,115.22c1.75,1.7,7.05-3.53,14.92-3.44,6.39.07,9.28,3.59,16.54,7.99,4.67,2.83,26.27,15.4,42.88,8.38,4.03-1.7,6.9-4.04,8.59-5.63-2.89-4.16-14.58-19.92-36.72-25.46-19.26-4.82-34.9.99-40.02,3.15-7.02,10.89-7.19,14.04-6.2,15Z"/>
        </g>
        <g>
          <path class="cls-4" d="M182.87,109c-10.73,10.41-24.92,12.01-27.86,12.28h0c-8.47.78-17.43-.68-25.96-3.85-22.68-8.41-42.28-28.84-41.22-50.91,1.24-26.19,30.87-40.98,38.67-44.87,4.34-2.17,9.9-4.94,16.06-6.63.5-.14,1.01-.28,1.53-.39.01,0,.03,0,.04-.02.44-.11.88-.2,1.33-.3.07-.01.15-.03.23-.05.53-.11,1.06-.21,1.6-.29.53-.09,1.07-.16,1.61-.23,4.7-.58,9.62-.31,14.54,1.45,1.98.71,3.78,1.58,5.43,2.62,9.62,5.96,14.14,16.76,17.89,25.7,2.75,6.57,18.38,43.89-3.87,65.5Z"/>
          <path d="M183.37,81.64c-1.11,11.07-4.8,26.15-16.52,34.13-3.42,2.34-7.41,3.98-11.8,4.99h0c-6.75,1.04-18.17,1.79-30.64-2.87-21.78-8.14-42.31-31.13-40-55.88,2.9-31.16,37.04-45.76,42.7-48.15,7.52-3.18,14.32-4.55,19.25-5.19,3.94.64,9.57,2.11,15.09,5.9,11.18,7.68,14.81,19.99,18.83,33.69,0,0,3.1,10.39,3.47,20.69.07,1.85.23,6.68-.37,12.69Z"/>
          <path class="cls-7" d="M183.37,81.64c-1.86,2.58-4.11,4.06-6.41,3.88-5.21-.41-8.8-9.09-7.99-19.4.81-10.3,5.7-18.32,10.91-17.91.13.01.27.03.4.05,2.09,7.13,3.24,14.25,3.47,20.69.07,1.85.23,6.68-.37,12.69Z"/>
          <ellipse class="cls-7" cx="138.34" cy="65.71" rx="18.72" ry="11.24" transform="translate(62.03 198.49) rotate(-85.52)"/>
          <path class="cls-7" d="M153.47,36.33c.66.8-3.22,7.1-9.49,8.77-4.96,1.32-10.15-.59-10.13-1.58.01-.83,3.68-.64,9.86-2.82,6.56-2.32,9.28-4.95,9.76-4.37Z"/>
          <path class="cls-7" d="M165.68,36.22c-.47.8,1.9,7.05,6.04,8.66,3.28,1.27,6.83-.69,6.85-1.67.02-.83-2.44-.6-6.51-2.72-4.31-2.25-6.04-4.86-6.39-4.27Z"/>
          <path class="cls-2" d="M133.87,98.54c5.09-4.55,8.12-4.87,9.96-4.24,2.81.95,3.49,4.28,5.95,4.23,2.61-.05,3.39-3.83,5.71-3.7,2.51.15,2.9,4.67,5.5,4.99,3.04.38,5.45-5.48,7.08-4.89.59.21,1.17,1.29.82,5.51"/>
          <g>
            <path class="cls-8" d="M168.86,17.81c-1.65-1.03-3.45-1.91-5.43-2.62-4.92-1.76-9.84-2.03-14.54-1.45-8.68,1.06-16.6,5.02-22.4,7.9-7.8,3.9-37.43,18.69-38.67,44.87-1.06,22.08,18.54,42.5,41.22,50.91,2.82,1.15,7.02,2.57,12.29,3.29,5.16.7,8.63.35,8.69.77.12.83-11.13,5.83-22.9,4.57-22.38-2.39-31.5-25.75-47.17-23.16-4.32.71-7.39,3.11-9.01,4.59-1.55-.97-8.62-5.66-10.33-14.28-.91-4.6.09-8.41.82-10.45-.31.05-6.89,1.14-7.21,1.19-2.4.4-4.81.79-7.21,1.19-3.24.53-6.49,1.07-9.73,1.6-1.75.29-3.01-1.65-2.01-3.12,4.09-6.03,9.33-14.12,14.99-23.93,4.52-7.83,6.01-10.92,9.72-17.15,2.94-4.94,12.43-20.85,20.65-28.36,17.69-16.19,60.23-21.57,84.95.42,1.17,1.04,2.27,2.12,3.3,3.23Z"/>
            <g class="cls-10">
              <path class="cls-9" d="M55.97,88.25c-.48-.69,4.57-6.12,11.6-9.14,4.97-2.14,10.38-2.84,10.63-2.1.09.25-.4.79-13.55,7.31-7.89,3.92-8.53,4.13-8.68,3.93Z"/>
            </g>
          </g>
        </g>
        <path id="L_foot" d="M0,392.17c13.09-12.33,26.73-26.13,40.55-41.5,11.84-13.17,22.53-26.08,32.17-38.49,6.27,3.96,12.53,7.92,18.8,11.88-11.54,7.87-27.39,21.4-38.54,42.73-5.64,10.79-12.93,24.74-10.93,41.71,2.78,23.52,21.67,37.89,20.5,39.03-1.13,1.1-14.57-9.71-62.55-55.35Z"/>
      </g>
    </g>
  </g>
</svg>