<?xml version="1.0" encoding="UTF-8"?>
<svg id="Layer_2" data-name="Layer 2" xmlns="http://www.w3.org/2000/svg" xmlns:xlink="http://www.w3.org/1999/xlink" viewBox="0 0 185.23 424.05">
  <defs>
    <style>
      .cls-1 {
        fill: none;
      }

      .cls-2 {
        fill: #5c8062;
      }

      .cls-3 {
        fill: #612a00;
      }

      .cls-4 {
        fill: #772e0f;
      }

      .cls-5 {
        fill: #5e3615;
      }

      .cls-6 {
        fill: #fff;
      }

      .cls-7 {
        fill: #a1541c;
      }

      .cls-8 {
        fill: #8c8c8c;
      }

      .cls-9 {
        clip-path: url(#clippath);
      }
    </style>
    <clipPath id="clippath">
      <path class="cls-1" d="M140.48,23.14c-1.53-1.21-3.22-2.28-5.11-3.2-4.7-2.28-9.56-3.09-14.3-3.03-8.74.1-17.05,3.17-23.13,5.41-8.18,3.02-39.25,14.48-43.35,40.37-3.47,21.83,13.78,44.28,35.4,55.12,2.68,1.45,6.7,3.33,11.85,4.61,5.05,1.26,8.54,1.29,8.55,1.71.03.84-11.7,4.57-23.27,2.04-21.99-4.82-28.5-29.05-44.35-28.18-4.37.24-7.69,2.28-9.45,3.57-1.43-1.14-7.95-6.57-8.71-15.32-.4-4.67,1.01-8.35,1.95-10.3-.31.02-6.98.38-7.3.39-2.43.13-4.86.26-7.3.39-3.28.18-6.57.35-9.85.53-1.77.1-2.81-1.97-1.65-3.32,4.73-5.55,10.82-13.01,17.51-22.15,5.35-7.29,7.17-10.2,11.54-15.99,3.47-4.59,14.63-19.36,23.63-25.93,19.35-14.16,62.22-14.85,84.39,9.71,1.05,1.17,2.03,2.35,2.93,3.57"/>
    </clipPath>
  </defs>
  <g id="step_5">
    <g>
      <path d="M100.32,124.53c-1.99,10.8-4.36,27.44-4.36,47.92,0,.41,0,.82,0,1.23.03,6.44.06,12.97.28,19.3.17,4.75.45,9.38.94,13.81.37,3.32.86,6.52,1.52,9.58,1.01,4.58,2.4,8.87,4.66,12.77,1.13,1.94,2.51,3.79,4.2,5.43,1.69,1.64,3.71,3.05,5.98,4.04,2.65,1.17,5.46,1.68,8.07,1.67,2.25,0,4.36-.35,6.33-.86,3.45-.91,6.51-2.31,9.41-3.78,4.33-2.21,8.35-4.62,11.99-6.33,1.82-.86,3.52-1.53,5.05-1.97,1.53-.44,2.87-.65,4.04-.64,1.27,0,2.34.21,3.55.73.76.33,1.46.76,2.13,1.27,1,.78,1.94,1.78,2.79,2.93.84,1.15,1.58,2.43,2.18,3.67,2.07,4.21,7.16,5.96,11.37,3.89,4.22-2.07,5.96-7.16,3.89-11.37-1.25-2.54-2.97-5.51-5.46-8.4-1.25-1.44-2.69-2.86-4.37-4.16-1.68-1.3-3.59-2.48-5.74-3.41-3.42-1.5-6.99-2.16-10.36-2.15-2.37,0-4.64.31-6.77.8-3.75.86-7.11,2.26-10.22,3.76-2.33,1.12-4.52,2.31-6.57,3.44-3.07,1.69-5.87,3.22-8.2,4.21-1.16.5-2.2.86-3.05,1.08-.86.22-1.52.3-2,.3-.57,0-.87-.08-1.24-.23-.37-.17-.72-.39-1.22-.92-.42-.46-.93-1.16-1.43-2.14-.9-1.71-1.78-4.27-2.45-7.44-1.03-4.76-1.63-10.85-1.93-17.54-.31-6.7-.35-14.01-.38-21.4,0-.39,0-.77,0-1.16,0-19.17,2.22-34.76,4.08-44.85.85-4.62-2.21-9.05-6.82-9.9-4.62-.85-9.05,2.21-9.9,6.82"/>
      <path class="cls-5" d="M150.1,312.69c-.14-5.81-.28-11.63-.42-17.44-11.69-16.98-23.38-33.97-35.08-50.95-4.38-6.57-8.75-13.13-13.13-19.7-11.04-3.51-22.37.5-27.3,8.84-4.83,8.18-1.57,17.24-1.06,18.59,21.17,20.4,42.34,40.81,63.51,61.21,4.49-.19,8.98-.37,13.47-.56Z"/>
      <path d="M73.36,390.93c11.72-13.65,20.3-27.11,32.41-43.86,10.38-14.35,17.62-29.91,25.89-43.27,6.65,3.27,13.3,6.55,19.95,9.82-10.64,9.05-22.04,27.27-33.37,48.5-4.92,9.23-14.39,17.92-10.6,34.59,5.26,23.1,47.76,22.14,47.76,22.14,0,0-19.46,0-49.01.94-10.6.34-20.59-19.31-33.04-28.86Z"/>
      <path class="cls-5" d="M55.04,320.38c3.17-4.63,6.34-9.26,9.5-13.88-.95-31.19-1.89-62.38-2.84-93.57-4.35-.83-14.92-2.2-23.46,3.92-1.59,1.14-7.24,5.08-10.14,12.8-1.95,5.18-1.81,9.76-1.55,12.22,5.79,21.96,11.58,43.92,17.38,65.88,3.71,4.21,7.41,8.42,11.12,12.63Z"/>
      <path d="M14.18,408.37c5.96-18.16,8.67-33.9,14.22-53.8,5.27-18.9,9.93-37.26,14.06-55.02,6.44,2.44,15.97,6.38,22.41,8.82-9.57,27.17-13.66,40-16.25,53.31-3.06,15.7-1.06,28.99,7.25,41.42,12.76,19.07,43.29,17.7,42.89,19.21-.31,1.18-53.63,1.74-53.63,1.74,0,0-18.53,0-30.94-15.68Z"/>
      <path class="cls-2" d="M47.8,87.26c8.78-.58,13.77,11.62,25.25,21.37,7.93,6.73,20.81,13.87,42.43,15.34-4.32,14.82-8.44,33.7-10.07,55.81-1.52,20.64-.48,38.74,1.33,53.36-7.07,4.49-23.07,13.3-45.13,13.94-16.79.49-29.95-3.95-37.31-7.09,3.61-16.02,7.22-32.05,10.83-48.07-2.39-23.96-4.77-47.92-7.16-71.88,1.85-6.5,3.7-13.01,5.55-19.51,3.11-5.94,7.9-12.84,14.27-13.26"/>
      <path d="M37.61,126.67c2.1,16.33,6.86,37.89,18.1,61.02,2.14,4.41,4.04,8.32,5.86,11.82,1.37,2.62,2.69,5.02,4.08,7.23,2.07,3.31,4.28,6.25,7.07,8.73,1.4,1.24,2.94,2.35,4.63,3.25,1.68.91,3.5,1.6,5.36,2.06,1.94.48,3.9.71,5.8.7,3.13,0,6.1-.6,8.81-1.53,4.76-1.64,8.83-4.17,12.69-6.83,2.89-2,5.65-4.11,8.37-6.12,4.07-3.01,8.04-5.76,11.86-7.64,1.91-.94,3.78-1.68,5.62-2.17,1.84-.49,3.64-.75,5.5-.75,1.02,0,2.06.08,3.15.25,2.26.36,4.28,1.07,6.05,1.91,1.77.84,3.26,1.81,4.42,2.65,3.79,2.77,9.11,1.93,11.88-1.86,2.77-3.79,1.93-9.11-1.86-11.88-1.77-1.29-4.17-2.86-7.14-4.27-2.98-1.41-6.55-2.68-10.66-3.34-1.97-.32-3.92-.46-5.83-.46-3.53,0-6.9.51-10.06,1.38-5.53,1.51-10.37,4.04-14.73,6.77-3.27,2.06-6.28,4.25-9.09,6.34-4.21,3.13-8.02,6.01-11.3,7.89-1.63.94-3.12,1.64-4.4,2.06-1.28.43-2.34.6-3.28.6-.58,0-1.13-.06-1.73-.21-.48-.12-.86-.26-1.24-.45-.66-.33-1.36-.83-2.28-1.79-1.37-1.42-3.11-3.93-5.12-7.59-2.02-3.65-4.34-8.4-7.15-14.18-10.25-21.08-14.6-40.77-16.53-55.76-.6-4.66-4.86-7.94-9.52-7.35s-7.94,4.86-7.35,9.52Z"/>
      <path class="cls-7" d="M110.72,118.33c-3.47,1.43,3.4,14.88.66,34.54-1.2,8.61-3.44,12.62-2.6,21.62.59,6.33,2.35,11.4,3.77,14.72,3.79-8.92,19.46-47.58,5.26-65.7-.57-.73-4.8-6.12-7.09-5.17"/>
      <path class="cls-7" d="M111.27,120.77c4.28,7.26-7.51,23.32-16.01,32-12.74,12.99-21.33,12.92-34.68,25.21-10.1,9.3-15.96,19.26-19.19,25.73-8.31-3.99-16.61-7.97-24.92-11.96-1.11-11.9-1.31-27.41,1.78-45.12,1.89-10.85,4.64-20.34,7.5-28.31,1.46-4.39,3.86-10.69,7.78-17.82,3.72-6.77,5.58-10.16,7.61-10.91,9.61-3.53,17.69,22.63,40.62,27.69,7.09,1.56,13.09,1.3,17.85,1.04,5.86-.32,9.84-.64,11.65,2.44"/>
      <path class="cls-8" d="M31.83,103.74c-.63,1.07-1.04,1.95-1.3,2.66.41-.87.84-1.75,1.3-2.66M61.58,92.36c6.56,10.55,16.87,19.66,28.42,25.45.4.22.84.45,1.3.68.82.03,1.62.04,2.39.04,2.14,0,4.12-.1,5.92-.2,1.8-.1,3.42-.2,4.86-.2.37,0,.73,0,1.07.02.52-.21,1.07-.37,1.63-.47-5.22-6.94-14.4-16.33-28.76-21.65-5.95-2.2-11.66-3.29-16.84-3.69"/>
      <path d="M107.18,117.69c-.56.1-1.11.26-1.63.47.79.03,1.51.11,2.16.25-.17-.23-.35-.47-.53-.71"/>
      <path class="cls-4" d="M43.61,97.96c-.27,0-.54,0-.82.02-4.37.24-7.69,2.28-9.45,3.57-.03-.02-.05-.04-.08-.07-.56.83-1.03,1.58-1.42,2.25-.46.9-.89,1.79-1.3,2.66-.52,1.44-.39,2.21-.04,2.64.27.33.66.46,1.17.46,1.08,0,2.69-.59,4.71-1.19,2.01-.59,4.44-1.19,7.15-1.19.71,0,1.43.04,2.17.13,6.34.77,8.83,4.58,15.56,9.75,3.7,2.84,18.91,14.1,34.04,14.1,2.58,0,5.15-.33,7.67-1.08,4.2-1.25,7.3-3.27,9.15-4.66-.74-1.36-2.18-3.88-4.42-6.96-.66-.14-1.38-.21-2.16-.25-.34-.01-.7-.02-1.07-.02-1.44,0-3.06.1-4.86.2-1.8.1-3.77.2-5.92.2-.78,0-1.57-.01-2.39-.04,2.61,1.32,6.17,2.84,10.55,3.93,5.05,1.26,8.54,1.29,8.55,1.71.02.63-6.63,2.91-14.85,2.91-2.69,0-5.56-.24-8.41-.87-21.6-4.74-28.26-28.2-43.53-28.21"/>
      <path class="cls-3" d="M144.43,115.32c-11.8,9.18-26.09,9.21-29.04,9.16h0c-8.5-.15-17.25-2.59-25.38-6.67-21.63-10.84-38.87-33.29-35.4-55.12,4.09-25.89,35.17-37.35,43.35-40.37,4.55-1.68,10.38-3.82,16.68-4.83.51-.08,1.04-.16,1.56-.22h.04c.45-.07.9-.12,1.35-.16l.24-.02c.54-.05,1.08-.09,1.62-.12.54-.03,1.08-.04,1.63-.05,4.74-.07,9.6.74,14.3,3.03,1.89.92,3.58,1.99,5.11,3.2,8.91,6.98,12.23,18.21,14.97,27.5,2.01,6.83,13.47,45.64-11.02,64.68Z"/>
      <path d="M147.92,88.17c-2.31,10.88-7.63,25.46-20.16,32.12-3.66,1.95-7.8,3.15-12.27,3.67h0c-6.82.3-18.26-.21-30.14-6.21-20.76-10.48-38.65-35.57-33.65-59.92,6.29-30.66,41.83-41.43,47.71-43.19,7.82-2.34,14.73-2.95,19.7-3.05,3.85,1.06,9.28,3.14,14.36,7.51,10.28,8.86,12.53,21.49,15.04,35.55,0,0,1.94,10.67,1.18,20.95-.14,1.85-.5,6.66-1.76,12.57Z"/>
      <path class="cls-6" d="M147.92,88.17c-2.13,2.36-4.53,3.59-6.8,3.16-5.14-.98-7.75-10-5.82-20.16,1.93-10.15,7.67-17.59,12.81-16.61.13.02.26.06.39.09,1.3,7.32,1.66,14.51,1.18,20.95-.14,1.85-.5,6.66-1.76,12.57Z"/>
      <ellipse class="cls-6" cx="104.9" cy="67.41" rx="18.72" ry="11.24" transform="translate(19.1 157.89) rotate(-79.24)"/>
      <path class="cls-6" d="M123.16,39.86c.57.86-3.97,6.7-10.39,7.68-5.08.77-10.03-1.7-9.9-2.68.1-.82,3.73-.23,10.11-1.72,6.77-1.59,9.76-3.91,10.18-3.28Z"/>
      <path class="cls-6" d="M135.31,41.09c-.56.74,1.11,7.22,5.06,9.27,3.12,1.62,6.86.06,6.99-.91.11-.82-2.36-.86-6.17-3.42-4.04-2.71-5.47-5.49-5.88-4.94Z"/>
      <path class="cls-6" d="M97.17,99.97c3.76-2.69,6.3-3.47,7.98-3.47.77,0,1.37.16,1.87.39,1.18.55,1.88,1.59,2.61,2.64.37.52.74,1.04,1.21,1.46.47.42,1.07.74,1.8.81.1,0,.19.01.29.01.69,0,1.3-.24,1.82-.56.78-.49,1.4-1.16,2-1.68.3-.26.59-.48.86-.63.28-.15.54-.22.81-.22l.25.02c.46.08.8.33,1.13.77.5.65.89,1.67,1.39,2.62.25.48.54.94.92,1.33.37.39.85.71,1.44.85.22.05.44.08.66.08.79,0,1.53-.31,2.21-.74,1.02-.64,1.94-1.55,2.74-2.28.4-.37.77-.69,1.09-.9.31-.22.57-.31.67-.3l.09.02s.11.06.2.28c.09.22.16.61.16,1.23,0,.78-.12,1.91-.42,3.49-.05.28.13.55.41.6s.55-.13.6-.41c.31-1.63.44-2.81.44-3.69,0-.7-.08-1.2-.23-1.6-.15-.39-.41-.69-.71-.83-.17-.09-.37-.13-.55-.13-.62.02-1.12.36-1.65.77-.79.63-1.64,1.51-2.52,2.23-.88.72-1.78,1.23-2.54,1.22-.14,0-.28-.02-.42-.05-.49-.12-.85-.41-1.2-.87-.52-.69-.91-1.71-1.41-2.65-.25-.47-.53-.92-.91-1.29-.37-.37-.85-.66-1.43-.76-.14-.02-.28-.04-.42-.04-.64,0-1.19.25-1.67.57-.72.49-1.32,1.15-1.94,1.66-.62.52-1.21.86-1.9.86h-.19c-.49-.06-.85-.24-1.21-.56-.54-.47-1.02-1.26-1.61-2.07-.6-.81-1.33-1.67-2.46-2.19-.62-.29-1.38-.49-2.3-.48-2.01,0-4.72.91-8.58,3.66-.23.17-.29.49-.12.72s.49.29.72.12Z"/>
      <path class="cls-7" d="M140.48,23.14c-1.53-1.21-3.22-2.28-5.11-3.2-4.7-2.28-9.56-3.09-14.3-3.03-8.74.1-17.05,3.17-23.13,5.41-8.18,3.02-39.25,14.48-43.35,40.37-3.47,21.83,13.78,44.28,35.4,55.12,2.68,1.45,6.7,3.33,11.85,4.61,5.05,1.26,8.54,1.29,8.55,1.71.03.84-11.7,4.57-23.27,2.04-21.99-4.82-28.5-29.05-44.35-28.18-4.37.24-7.69,2.28-9.45,3.57-1.43-1.14-7.95-6.57-8.71-15.32-.4-4.67,1.01-8.35,1.95-10.3-.31.02-6.98.38-7.3.39-2.43.13-4.86.26-7.3.39-3.28.18-6.57.35-9.85.53-1.77.1-2.81-1.97-1.65-3.32,4.73-5.55,10.82-13.01,17.51-22.15,5.35-7.29,7.17-10.2,11.54-15.99,3.47-4.59,14.63-19.36,23.63-25.93,19.35-14.16,62.22-14.85,84.39,9.71,1.05,1.17,2.03,2.35,2.93,3.57"/>
      <g class="cls-9">
        <path class="cls-4" d="M41.64,71.61c-2.1,0-5.37.41-8.55,1.38-2.52.77-4.84,1.85-6.77,2.96.14,0,.23-.01.26-.01h0c-.42.86-.92,2.04-1.32,3.5,1.15-.41,2.58-.93,4.36-1.58,13.78-5.05,14.33-5.52,14.27-5.79-.07-.29-.92-.46-2.25-.46"/>
      </g>
    </g>
  </g>
</svg>