<?xml version="1.0" encoding="UTF-8"?>
<svg id="Layer_2" data-name="Layer 2" xmlns="http://www.w3.org/2000/svg" xmlns:xlink="http://www.w3.org/1999/xlink" viewBox="0 0 209.53 444.24">
  <defs>
    <style>
      .cls-1 {
        fill: none;
      }

      .cls-2 {
        fill: #5c8062;
      }

      .cls-3 {
        fill: #612a00;
      }

      .cls-4 {
        fill: #772e0f;
      }

      .cls-5 {
        fill: #5e3615;
      }

      .cls-6 {
        fill: #fff;
      }

      .cls-7 {
        fill: #a1541c;
      }

      .cls-8 {
        fill: #8c8c8c;
      }

      .cls-9 {
        clip-path: url(#clippath);
      }
    </style>
    <clipPath id="clippath">
      <path class="cls-1" d="M129.45,15.06c-1.72-.93-3.57-1.69-5.59-2.27-5.02-1.44-9.95-1.4-14.6-.52-8.59,1.6-16.25,6.06-21.85,9.31-7.54,4.38-36.17,21.02-35.75,47.23.34,22.1,21.19,41.24,44.36,48.2,2.89.97,7.17,2.12,12.47,2.5,2.54.18,4.67.14,6.18.1,1.58-.05,2.49-.09,2.54.12.17.82-10.74,6.52-22.57,6.01-22.49-.97-33.07-23.71-48.54-20.13-4.26.99-7.18,3.57-8.7,5.15-1.6-.88-8.96-5.1-11.21-13.59-1.2-4.54-.45-8.39.15-10.48-.31.07-6.81,1.57-7.12,1.64-2.37.55-4.75,1.1-7.12,1.64-3.2.74-6.41,1.48-9.61,2.22-1.73.4-3.1-1.46-2.2-2.99,3.7-6.28,8.41-14.68,13.44-24.83,4.02-8.1,5.31-11.28,8.61-17.73,2.63-5.11,11.08-21.59,18.81-29.61C57.77-.27,99.89-8.33,125.95,12.05c1.24.97,2.4,1.97,3.5,3.01"/>
    </clipPath>
  </defs>
  <g id="step_6">
    <g>
      <path d="M107.33,121.85c0,.75-.01,1.54-.01,2.35,0,11.2.72,27.51,4.18,46.83,1.14,6.33,2.29,12.76,3.6,18.96.99,4.65,2.06,9.17,3.3,13.44.94,3.2,1.97,6.27,3.15,9.17,1.79,4.34,3.89,8.33,6.78,11.78,1.45,1.72,3.12,3.3,5.07,4.63,1.94,1.32,4.18,2.36,6.59,2.95,1.56.38,3.15.57,4.68.57,2.71,0,5.24-.56,7.5-1.37,1.98-.72,3.78-1.63,5.46-2.62,2.94-1.74,5.54-3.74,8.03-5.7,3.7-2.94,7.17-5.8,10.29-7.71,1.56-.96,3-1.67,4.3-2.12,1.3-.45,2.42-.65,3.5-.65.66,0,1.32.07,2.05.25.81.2,1.57.49,2.32.89,1.12.59,2.22,1.42,3.25,2.41,1.03.99,1.97,2.12,2.78,3.24,2.76,3.8,8.08,4.64,11.87,1.87,3.8-2.76,4.64-8.08,1.87-11.87-1.67-2.29-3.87-4.92-6.82-7.33-1.47-1.2-3.14-2.35-5.02-3.35-1.88-.99-3.96-1.82-6.24-2.37-2.04-.5-4.08-.73-6.07-.73-2.84,0-5.54.48-8.02,1.24-4.35,1.35-8.03,3.51-11.32,5.77-2.47,1.7-4.72,3.49-6.82,5.16-3.14,2.52-5.97,4.78-8.28,6.18-1.15.71-2.15,1.19-2.93,1.47-.78.28-1.32.35-1.7.35-.23,0-.41-.02-.63-.08-.39-.1-.78-.26-1.36-.7-.5-.38-1.11-.98-1.78-1.86-1.18-1.53-2.48-3.9-3.7-6.91-1.83-4.51-3.47-10.4-4.92-16.94-1.46-6.54-2.75-13.74-4.06-21.01-3.25-18.08-3.92-33.36-3.92-43.82,0-.76,0-1.49,0-2.19.04-4.69-3.73-8.53-8.42-8.57-4.69-.04-8.53,3.73-8.58,8.42"/>
      <path class="cls-5" d="M141.49,328.61c2.18-5.39,4.36-10.78,6.54-16.17-3.99-20.23-7.98-40.46-11.97-60.69-1.41-7.76-2.82-15.53-4.23-23.29-8.74-7.6-20.72-8.42-28.56-2.72-7.68,5.59-8.29,15.2-8.36,16.64,11.33,27.13,22.66,54.26,34,81.4,4.2,1.61,8.39,3.22,12.59,4.83Z"/>
      <path d="M47.95,381.04c15-9.93,26.93-20.54,43.15-33.35,13.9-10.98,25.11-23.97,36.71-34.56,5.51,4.96,11.01,9.93,16.52,14.89-12.3,8.33-28.14,20.62-45.34,37.56-7.45,7.34-18.74,13.32-19.64,30.38-1.25,23.65,22.07,39.73,22.07,39.73,0,0-15.44,1.46-29.57-17.87-6.26-8.57-13.62-21.47-23.91-36.78Z"/>
      <path class="cls-5" d="M64.26,336.13c4.03-3.9,8.07-7.79,12.1-11.69,5.35-30.74,10.71-61.48,16.06-92.23-4.09-1.69-14.17-5.16-23.77-.89-1.79.79-8.11,3.52-12.51,10.5-2.95,4.68-3.74,9.2-3.98,11.66,1.25,22.68,2.5,45.35,3.76,68.03,2.78,4.87,5.56,9.74,8.35,14.61Z"/>
      <path d="M31.48,423.89c3.88-19.35,18.85-86.4,22.99-104.15,6.44,2.44,15.46,2.25,21.9,4.7-5.44,29.48-10.15,44.12-12.74,57.43-3.06,15.7-1.06,28.99,7.25,41.42,12.76,19.07,43.29,17.7,42.89,19.21-.31,1.18-53.63,1.74-53.63,1.74,0,0-16.23-4.68-28.65-20.34Z"/>
      <path class="cls-2" d="M49.19,94.17c8.55-2.09,15.56,9.07,28.56,16.7,8.97,5.27,22.89,10.08,44.44,7.81-1.7,15.34-2.51,34.65-.31,56.71,2.05,20.59,6.19,38.25,10.5,52.33-6.19,5.64-20.44,17.07-42.06,21.5-16.46,3.38-30.18,1.26-37.98-.56.8-16.41,1.6-32.81,2.4-49.22-6.48-23.19-12.95-46.39-19.43-69.58.7-6.73,1.41-13.45,2.11-20.18,2.04-6.39,5.58-14,11.77-15.52"/>
      <path d="M45.94,134.75c4.88,15.72,13.28,36.15,28.34,57,2.87,3.97,5.41,7.5,7.81,10.63,1.8,2.35,3.52,4.48,5.26,6.42,2.61,2.9,5.29,5.42,8.47,7.39,1.59.98,3.3,1.81,5.12,2.41,1.81.6,3.72.97,5.63,1.1.56.04,1.12.06,1.67.06,3.64,0,7.09-.85,10.11-2.17,2.65-1.16,5.01-2.65,7.18-4.29,3.78-2.87,7.03-6.18,10.16-9.46,2.35-2.46,4.62-4.91,6.89-7.16,3.4-3.38,6.78-6.29,10.15-8.24,1.69-.98,3.37-1.73,5.1-2.26,1.73-.52,3.51-.82,5.47-.85.1,0,.2,0,.31,0,2.22,0,4.27.35,6.11.87,1.83.52,3.42,1.2,4.68,1.82,4.21,2.07,9.31.34,11.38-3.88,2.07-4.21.34-9.31-3.88-11.38-1.93-.95-4.48-2.05-7.56-2.92-3.08-.87-6.7-1.52-10.74-1.52-.18,0-.37,0-.56,0-4.15.06-8.07.81-11.64,2.06-3.13,1.09-5.99,2.54-8.61,4.18-4.59,2.88-8.46,6.35-11.94,9.78-2.61,2.58-4.99,5.15-7.24,7.5-1.68,1.77-3.28,3.41-4.8,4.83-2.27,2.15-4.36,3.78-6.12,4.74-.88.49-1.67.81-2.39,1.02-.72.21-1.38.3-2.07.3-.16,0-.33,0-.5-.02-.49-.03-.9-.11-1.3-.23-.71-.22-1.48-.58-2.55-1.37-1.59-1.16-3.74-3.34-6.35-6.6-2.62-3.25-5.72-7.53-9.48-12.74-13.72-19-21.4-37.65-25.88-52.08-1.39-4.48-6.15-6.99-10.64-5.6-4.48,1.39-6.99,6.15-5.6,10.64h0Z"/>
      <path class="cls-7" d="M116.52,113.95c-3.17,2.01,5.91,14.08,6.6,33.91.3,8.69-1.21,13.02,1.16,21.74,1.67,6.13,4.28,10.82,6.24,13.85,2.2-9.44,10.98-50.22-6.13-65.62-.69-.62-5.78-5.2-7.87-3.87"/>
      <path class="cls-7" d="M117.48,116.26c5.46,6.42-3.38,24.26-10.27,34.28-10.31,14.99-18.78,16.4-29.82,30.8-8.35,10.9-12.4,21.72-14.47,28.65-8.87-2.5-17.74-4.99-26.6-7.49-3.14-11.53-6.01-26.78-6.02-44.75,0-11.01,1.07-20.83,2.52-29.18.68-4.58,1.97-11.2,4.6-18.89,2.5-7.31,3.75-10.97,5.62-12.05,8.86-5.14,21.32,19.25,44.78,20.28,6.4.28,11.72-.69,16.08-1.66,6.65-1.48,11.05-2.97,13.58.01"/>
      <path class="cls-8" d="M36.3,113.16c-.43,1.17-.69,2.1-.82,2.84.25-.93.53-1.87.82-2.84M69.62,96.54c-2.07,0-4.07.1-5.98.29,8.28,9.27,20,16.46,32.38,20.18.44.15.9.3,1.4.45,2.36-.32,4.52-.76,6.48-1.2,2.92-.65,5.41-1.3,7.49-1.58.48-.3.99-.54,1.53-.74-6.33-5.94-16.99-13.61-32.06-16.37-3.94-.72-7.7-1.02-11.24-1.02"/>
      <path d="M112.92,113.94c-.54.2-1.05.45-1.53.74.65-.09,1.26-.13,1.84-.13.11,0,.22,0,.33,0-.21-.2-.42-.41-.64-.61"/>
      <path class="cls-4" d="M49.41,105.22c-1.08,0-2.18.12-3.31.38-4.26.99-7.18,3.57-8.7,5.15-.03-.02-.06-.03-.09-.05-.41.92-.74,1.73-1.01,2.46-.3.97-.57,1.92-.82,2.84-.27,1.5,0,2.24.42,2.6.23.2.51.29.84.29,2.3,0,6.96-4.3,13.84-4.66.29-.02.58-.02.86-.02,5.81,0,8.97,3.2,16.15,6.95,3.6,1.88,16.84,8.52,30.03,8.52,4.58,0,9.14-.8,13.3-2.87,3.92-1.96,6.63-4.47,8.22-6.16-.96-1.21-2.81-3.45-5.56-6.1-.11,0-.22,0-.33,0-.57,0-1.19.05-1.84.13-2.08.27-4.57.93-7.49,1.58-1.96.44-4.12.87-6.48,1.2,2.8.85,6.57,1.73,11.07,2.06,1.43.1,2.72.13,3.85.13.88,0,1.67-.02,2.33-.04.67-.02,1.21-.04,1.63-.04.57,0,.89.04.91.16.17.78-9.83,6.04-21.06,6.04-.5,0-1-.01-1.5-.03-20.85-.9-31.47-20.51-45.23-20.51"/>
      <path class="cls-3" d="M149.21,105.18c-10.04,11.07-24.11,13.56-27.03,14.02h-.01c-8.4,1.32-17.44.42-26.15-2.2-23.17-6.96-44.02-26.1-44.36-48.2-.42-26.21,28.21-42.85,35.75-47.23,4.2-2.44,9.56-5.55,15.6-7.63.49-.17,1-.34,1.5-.49l.04-.02c.43-.13.86-.26,1.31-.38l.23-.06c.52-.14,1.04-.27,1.58-.4.52-.12,1.05-.23,1.59-.33,4.65-.88,9.58-.92,14.6.52,2.02.58,3.87,1.34,5.59,2.27,9.98,5.34,15.18,15.83,19.48,24.51,3.16,6.38,21.12,42.64.28,65.61Z"/>
      <path d="M147.97,77.84c-.4,11.12-3.13,26.4-14.33,35.11-3.27,2.55-7.15,4.45-11.46,5.73h-.01c-6.67,1.47-18.03,2.93-30.76-.93-22.25-6.75-44.19-28.39-43.46-53.24.92-31.28,34.07-48.01,39.56-50.76,7.3-3.65,14-5.45,18.88-6.4,3.97.39,9.69,1.5,15.44,4.93,11.65,6.95,16.04,19.01,20.93,32.43,0,0,3.75,10.17,4.77,20.43.18,1.84.65,6.65.43,12.69Z"/>
      <path class="cls-6" d="M147.97,77.84c-1.69,2.7-3.84,4.31-6.15,4.28-5.23-.08-9.36-8.52-9.2-18.86.15-10.33,4.53-18.65,9.75-18.57.13,0,.27.01.4.03,2.54,6.99,4.13,14.01,4.77,20.43.18,1.84.65,6.65.43,12.69Z"/>
      <path class="cls-6" d="M113.26,64.96c-.15,10.34-5.31,18.64-11.52,18.55-6.21-.09-11.12-8.54-10.97-18.88s5.31-18.64,11.52-18.55c6.21.09,11.12,8.54,10.97,18.88Z"/>
      <path class="cls-6" d="M115.27,34.51c.71.75-2.76,7.29-8.92,9.35-4.87,1.63-10.17.05-10.21-.93-.04-.83,3.63-.87,9.66-3.44,6.4-2.73,8.95-5.53,9.47-4.98Z"/>
      <path class="cls-6" d="M127.45,33.63c-.42.83,2.34,6.92,6.58,8.26,3.35,1.06,6.77-1.12,6.73-2.1-.03-.83-2.48-.44-6.67-2.3-4.44-1.97-6.33-4.46-6.64-3.85Z"/>
      <path class="cls-6" d="M100.01,98.2c1.92-1.95,3.53-3.17,4.87-3.9,1.34-.73,2.4-.97,3.24-.97.4,0,.75.05,1.06.14,1.22.32,2.08,1.19,2.95,2.07.44.44.87.87,1.38,1.22.51.34,1.11.59,1.8.59h.26c.78-.07,1.41-.42,1.92-.86.76-.66,1.29-1.51,1.84-2.16.27-.32.54-.59.81-.77.27-.18.53-.27.86-.28h0c.47,0,.84.19,1.25.57.6.55,1.16,1.49,1.82,2.34.33.42.69.83,1.13,1.15.44.32.96.55,1.56.58h.17c.88,0,1.65-.41,2.31-.95.99-.82,1.81-1.98,2.53-2.91.36-.46.69-.87.98-1.14.14-.13.27-.23.38-.29.1-.06.17-.07.22-.07h.05s.08.04.17.14c.12.15.3.51.43,1.17.13.67.21,1.64.21,3,0,.2,0,.42,0,.64,0,.28.22.52.51.52.28,0,.52-.22.52-.51,0-.23,0-.45,0-.66,0-1.87-.15-3.07-.4-3.87-.13-.4-.28-.71-.47-.95-.19-.24-.43-.4-.68-.47-.11-.03-.23-.05-.34-.05-.35,0-.65.14-.91.32-.46.32-.86.8-1.29,1.34-.64.81-1.32,1.77-2.04,2.5-.36.37-.73.67-1.09.88-.37.21-.72.32-1.08.32h-.11c-.5-.04-.91-.26-1.33-.65-.63-.59-1.19-1.53-1.84-2.36-.33-.42-.68-.81-1.11-1.11-.43-.3-.95-.51-1.54-.51h-.01c-.73,0-1.33.32-1.81.74-.71.62-1.22,1.46-1.79,2.13-.28.33-.57.62-.88.83-.31.21-.63.33-1.03.37h-.17c-.45,0-.83-.14-1.22-.4-.59-.39-1.19-1.08-1.9-1.76-.71-.68-1.57-1.36-2.73-1.67-.4-.11-.84-.17-1.33-.17-1.04,0-2.28.3-3.74,1.1-1.46.8-3.14,2.08-5.11,4.08-.2.2-.2.53,0,.73.2.2.53.2.73,0Z"/>
      <path class="cls-7" d="M129.45,15.06c-1.72-.93-3.57-1.69-5.59-2.27-5.02-1.44-9.95-1.4-14.6-.52-8.59,1.6-16.25,6.06-21.85,9.31-7.54,4.38-36.17,21.02-35.75,47.23.34,22.1,21.19,41.24,44.36,48.2,2.89.97,7.17,2.12,12.47,2.5,2.54.18,4.67.14,6.18.1,1.58-.05,2.49-.09,2.54.12.17.82-10.74,6.52-22.57,6.01-22.49-.97-33.07-23.71-48.54-20.13-4.26.99-7.18,3.57-8.7,5.15-1.6-.88-8.96-5.1-11.21-13.59-1.2-4.54-.45-8.39.15-10.48-.31.07-6.81,1.57-7.12,1.64-2.37.55-4.75,1.1-7.12,1.64-3.2.74-6.41,1.48-9.61,2.22-1.73.4-3.1-1.46-2.2-2.99,3.7-6.28,8.41-14.68,13.44-24.83,4.02-8.1,5.31-11.28,8.61-17.73,2.63-5.11,11.08-21.59,18.81-29.61C57.77-.27,99.89-8.33,125.95,12.05c1.24.97,2.4,1.97,3.5,3.01"/>
      <g class="cls-9">
        <path class="cls-4" d="M41.92,79.66c-1.71,0-5.86,1.06-9.68,2.99-2.35,1.19-4.45,2.65-6.16,4.08.14-.03.23-.05.26-.06h0c-.26.92-.55,2.17-.7,3.68,1.06-.6,2.38-1.36,4.02-2.31,12.71-7.35,13.16-7.91,13.06-8.16-.06-.15-.35-.22-.8-.22"/>
      </g>
    </g>
  </g>
</svg>