<?xml version="1.0" encoding="UTF-8"?>
<svg id="Layer_2" data-name="Layer 2" xmlns="http://www.w3.org/2000/svg" xmlns:xlink="http://www.w3.org/1999/xlink" viewBox="0 0 236.19 447.6">
  <defs>
    <style>
      .cls-1 {
        fill: none;
      }

      .cls-2 {
        fill: #5c8062;
      }

      .cls-3 {
        fill: #612a00;
      }

      .cls-4 {
        fill: #772e0f;
      }

      .cls-5 {
        fill: #5e3615;
      }

      .cls-6 {
        fill: #fff;
      }

      .cls-7 {
        fill: #a1541c;
      }

      .cls-8 {
        fill: #8c8c8c;
      }

      .cls-9 {
        clip-path: url(#clippath);
      }
    </style>
    <clipPath id="clippath">
      <path class="cls-1" d="M168.86,17.81c-1.65-1.03-3.45-1.91-5.43-2.62-4.92-1.76-9.84-2.03-14.54-1.45-8.68,1.06-16.6,5.02-22.39,7.9-7.8,3.9-37.43,18.69-38.67,44.87-1.06,22.08,18.54,42.5,41.22,50.91,2.82,1.15,7.02,2.57,12.29,3.29,5.16.7,8.63.35,8.69.77.12.83-11.13,5.83-22.9,4.57-22.38-2.39-31.5-25.75-47.17-23.16-4.32.71-7.39,3.11-9.01,4.59-1.55-.97-8.62-5.66-10.33-14.28-.91-4.6.09-8.41.82-10.45-.31.05-6.89,1.14-7.21,1.19-2.4.4-4.81.79-7.21,1.19-3.24.53-6.49,1.07-9.73,1.6-1.75.29-3-1.65-2.01-3.12,4.09-6.03,9.33-14.12,14.99-23.93,4.52-7.83,6.01-10.92,9.72-17.15,2.94-4.94,12.43-20.85,20.65-28.36,17.69-16.19,60.23-21.57,84.95.42,1.17,1.04,2.27,2.12,3.3,3.22"/>
    </clipPath>
  </defs>
  <g id="step_2">
    <g>
      <path d="M140.02,122.98c-.37,5.12-.69,11.53-.69,18.99,0,8.79.44,19.04,1.74,30.35.73,6.39,1.48,12.88,2.39,19.15.69,4.7,1.47,9.28,2.45,13.62.73,3.26,1.56,6.38,2.56,9.35,1.51,4.45,3.35,8.56,6.03,12.19,1.34,1.81,2.91,3.5,4.77,4.94,1.86,1.44,4.02,2.62,6.39,3.36,1.96.62,3.98.9,5.91.9,2.55,0,4.92-.48,7.08-1.17,3.78-1.24,6.98-3.11,9.97-5.03,2.24-1.45,4.36-2.96,6.4-4.38,3.05-2.13,5.94-4.05,8.51-5.3,1.28-.63,2.48-1.09,3.55-1.39,1.08-.3,2.04-.43,2.94-.43.85,0,1.67.12,2.58.4.79.25,1.53.59,2.26,1.03,1.08.66,2.13,1.56,3.09,2.61.96,1.05,1.83,2.24,2.57,3.41,2.52,3.96,7.77,5.14,11.73,2.62,3.96-2.52,5.14-7.77,2.62-11.73-1.52-2.39-3.55-5.15-6.34-7.75-1.4-1.3-2.99-2.55-4.8-3.66-1.81-1.11-3.84-2.07-6.08-2.76-2.55-.8-5.14-1.17-7.63-1.17-2.67,0-5.21.41-7.57,1.08-4.13,1.17-7.72,3.03-10.97,5.01-2.43,1.49-4.68,3.05-6.79,4.52-3.14,2.21-5.99,4.2-8.32,5.45-1.16.63-2.18,1.07-2.99,1.33-.82.26-1.4.34-1.81.34-.32,0-.55-.04-.82-.12-.39-.13-.76-.31-1.31-.78-.47-.41-1.05-1.05-1.66-1.97-1.08-1.6-2.23-4.05-3.25-7.13-1.54-4.62-2.81-10.6-3.84-17.22-1.04-6.62-1.88-13.89-2.72-21.23-1.22-10.59-1.63-20.19-1.63-28.41,0-6.98.29-12.97.64-17.76.34-4.68-3.18-8.75-7.86-9.09-4.68-.34-8.75,3.18-9.09,7.86"/>
      <path class="cls-5" d="M159.33,319.62c1.99-5.47,3.97-10.93,5.96-16.4l-14.13-60.22c-1.69-7.71-3.38-15.42-5.06-23.12-9-7.28-21.01-7.68-28.64-1.69-7.48,5.86-7.74,15.48-7.76,16.93,12.3,26.71,24.59,53.42,36.89,80.13,4.25,1.46,8.5,2.92,12.75,4.38Z"/>
      <path class="cls-5" d="M77.96,330.11c4.56-3.26,9.13-6.52,13.69-9.78,9.81-29.62,19.62-59.25,29.43-88.87-3.8-2.27-13.26-7.18-23.38-4.37-1.88.52-8.54,2.29-13.92,8.55-3.61,4.2-5.05,8.55-5.65,10.95-2.09,22.62-4.18,45.23-6.27,67.85,2.04,5.23,4.07,10.45,6.11,15.68Z"/>
      <path d="M111.26,412.15c6.25-18.07,9.22-33.76,15.08-53.56,5.57-18.81,10.53-37.1,14.95-54.78,6.4,2.55,15.65,6.24,22.05,8.79-12.79,28.74-16.49,39.17-19.3,52.44-3.31,15.65-14.7,42.18-3.79,52.4,15.95,14.93,45.15,15.39,44.73,16.9-.33,1.17-15.12,1.99-50.76,2.86-10.38.25-13.5-14.02-22.97-25.03Z"/>
      <path class="cls-2" d="M83.75,91.68c8.67-1.54,14.95,10.04,27.44,18.48,8.62,5.82,22.2,11.51,43.86,10.61-2.67,15.21-4.7,34.42-3.9,56.57.74,20.68,3.76,38.56,7.16,52.89-6.54,5.24-21.48,15.74-43.34,18.8-16.64,2.33-30.2-.65-37.86-2.96,1.84-16.32,3.67-32.65,5.51-48.97-4.99-23.56-9.99-47.11-14.98-70.67,1.13-6.67,2.26-13.34,3.38-20,2.44-6.24,6.45-13.62,12.73-14.74"/>
      <path d="M77.93,131.97c3.87,16,10.96,36.92,24.67,58.68,2.61,4.15,4.93,7.83,7.12,11.1,1.65,2.46,3.23,4.69,4.84,6.74,2.42,3.06,4.93,5.74,7.99,7.91,1.52,1.08,3.18,2.01,4.96,2.73,1.77.72,3.65,1.21,5.55,1.46,1.07.14,2.14.21,3.19.21,3.47,0,6.75-.76,9.67-1.94,2.56-1.03,4.88-2.37,7.03-3.83,3.77-2.58,7.08-5.57,10.3-8.53,2.41-2.22,4.74-4.44,7.06-6.47,3.47-3.06,6.91-5.68,10.28-7.44,1.69-.88,3.36-1.56,5.04-2.01,1.69-.46,3.39-.7,5.23-.7.33,0,.66,0,.99.02,2.28.11,4.37.59,6.22,1.23,1.85.64,3.44,1.44,4.68,2.15,4.07,2.33,9.27.93,11.6-3.15s.93-9.27-3.15-11.6c-1.9-1.09-4.45-2.39-7.57-3.47-3.11-1.08-6.81-1.95-10.97-2.15-.61-.03-1.22-.04-1.82-.04-3.94,0-7.68.64-11.13,1.72-3.02.95-5.81,2.22-8.4,3.68-4.52,2.56-8.43,5.66-11.98,8.75-2.66,2.32-5.11,4.65-7.42,6.78-3.45,3.2-6.6,5.95-9.29,7.66-1.34.86-2.55,1.46-3.6,1.83-1.05.37-1.93.52-2.8.52-.31,0-.62-.02-.95-.06-.49-.07-.89-.17-1.29-.31-.69-.26-1.44-.67-2.46-1.53-1.51-1.26-3.52-3.57-5.92-6.99-2.41-3.41-5.23-7.88-8.66-13.32-12.49-19.83-18.97-38.93-22.53-53.62-1.1-4.56-5.7-7.37-10.26-6.26s-7.37,5.7-6.26,10.26Z"/>
      <path class="cls-7" d="M149.69,115.68c-3.29,1.8,5.01,14.42,4.44,34.26-.25,8.69-2.04,12.92-.22,21.77,1.28,6.23,3.59,11.07,5.35,14.22,2.79-9.29,14.14-49.43-1.96-65.88-.65-.67-5.44-5.56-7.61-4.36"/>
      <path class="cls-7" d="M150.5,118.05c5.04,6.75-4.91,24-12.42,33.56-11.24,14.31-19.78,15.18-31.71,28.85-9.03,10.35-13.76,20.89-16.26,27.68-8.69-3.05-17.38-6.11-26.08-9.16-2.41-11.71-4.3-27.11-3.17-45.04.69-10.99,2.38-20.73,4.36-28.96.97-4.53,2.67-11.05,5.78-18.56,2.96-7.14,4.44-10.71,6.37-11.67,9.17-4.56,20.06,20.56,43.41,23.07,6.68.72,12.26-.01,16.79-.74,6.38-1.03,10.65-2.06,12.92.97"/>
      <path class="cls-8" d="M100.02,95.21c-.68,0-1.36.01-2.02.03,7.68,9.77,18.92,17.7,31.04,22.19.43.17.88.35,1.37.54,2.64-.19,5.03-.54,7.18-.89,2.68-.43,4.99-.87,6.94-1,.5-.26,1.03-.48,1.57-.64-5.94-6.33-16.09-14.65-30.95-18.37-5.37-1.34-10.46-1.86-15.12-1.86"/>
      <path d="M146.1,115.44c-.55.16-1.08.38-1.57.64.38-.03.75-.04,1.11-.04.37,0,.73.02,1.07.05-.2-.21-.4-.43-.6-.65"/>
      <path class="cls-8" d="M69.68,109.81c-.5,1.14-.82,2.05-1,2.78.31-.91.65-1.84,1-2.78"/>
      <path class="cls-4" d="M82.35,102.69c-.79,0-1.59.06-2.41.2-4.32.71-7.39,3.11-9.01,4.59-.03-.02-.06-.04-.09-.06-.47.89-.85,1.68-1.17,2.39-.36.95-.69,1.88-1,2.78-.36,1.48-.15,2.24.25,2.63.25.24.56.34.94.34,1.16,0,2.94-.94,5.26-1.89,2.32-.95,5.19-1.89,8.52-1.89.07,0,.13,0,.2,0,6.39.07,9.28,3.59,16.54,7.99,3.68,2.23,17.83,10.48,31.79,10.48,3.78,0,7.55-.61,11.09-2.1,4.03-1.7,6.9-4.04,8.59-5.63-.88-1.27-2.59-3.62-5.16-6.44-.34-.03-.7-.05-1.07-.05s-.72.01-1.11.04c-1.94.13-4.26.56-6.94,1-2.15.35-4.54.7-7.18.89,2.74,1.03,6.45,2.15,10.92,2.75,5.16.7,8.63.35,8.69.77.11.74-8.78,4.77-19.03,4.77-1.28,0-2.57-.06-3.87-.2-21.21-2.26-30.51-23.36-44.76-23.36"/>
      <path class="cls-3" d="M182.87,109c-10.73,10.41-24.92,12.01-27.86,12.28h-.01c-8.47.78-17.43-.68-25.96-3.85-22.68-8.41-42.28-28.84-41.22-50.91,1.24-26.19,30.87-40.98,38.67-44.87,4.34-2.17,9.9-4.94,16.06-6.63.5-.14,1.01-.28,1.53-.39l.04-.02c.44-.11.88-.2,1.33-.3l.23-.05c.53-.11,1.06-.21,1.6-.29.53-.09,1.07-.16,1.61-.23,4.7-.58,9.62-.31,14.54,1.45,1.98.71,3.78,1.58,5.43,2.62,9.62,5.96,14.14,16.76,17.89,25.7,2.75,6.57,18.38,43.89-3.87,65.5Z"/>
      <path d="M183.37,81.64c-1.11,11.07-4.8,26.15-16.52,34.13-3.42,2.34-7.41,3.98-11.8,4.99h0c-6.75,1.04-18.17,1.79-30.64-2.87-21.78-8.14-42.31-31.13-40-55.88,2.9-31.16,37.04-45.76,42.7-48.15,7.52-3.18,14.32-4.55,19.25-5.19,3.94.64,9.57,2.11,15.09,5.9,11.18,7.68,14.8,19.99,18.83,33.69,0,0,3.1,10.39,3.47,20.69.07,1.85.23,6.68-.37,12.69Z"/>
      <path class="cls-6" d="M183.37,81.64c-1.86,2.58-4.11,4.06-6.41,3.88-5.21-.41-8.8-9.09-7.99-19.4.81-10.3,5.7-18.32,10.91-17.91.13.01.27.03.4.05,2.09,7.13,3.24,14.25,3.47,20.69.07,1.85.23,6.68-.37,12.69Z"/>
      <ellipse class="cls-6" cx="138.34" cy="65.71" rx="18.72" ry="11.24" transform="translate(62.03 198.49) rotate(-85.52)"/>
      <path class="cls-6" d="M153.47,36.33c.66.8-3.22,7.1-9.49,8.77-4.96,1.32-10.15-.59-10.13-1.58.01-.83,3.68-.64,9.86-2.82,6.56-2.32,9.28-4.95,9.76-4.37Z"/>
      <path class="cls-6" d="M165.68,36.22c-.47.8,1.9,7.05,6.04,8.66,3.28,1.27,6.83-.69,6.85-1.67.02-.83-2.45-.6-6.51-2.72-4.31-2.25-6.04-4.86-6.39-4.27Z"/>
      <path class="cls-6" d="M134.21,98.92c3.85-3.44,6.43-4.36,8.11-4.35.52,0,.96.08,1.34.21,1.23.41,2.03,1.37,2.87,2.32.42.47.84.94,1.35,1.31.51.37,1.13.63,1.85.63h.06c.77-.01,1.41-.31,1.94-.7.79-.59,1.37-1.39,1.95-2.01.29-.31.57-.56.84-.73.28-.17.54-.26.85-.26h.09c.47.03.83.25,1.21.64.57.59,1.07,1.56,1.67,2.45.3.44.64.87,1.06,1.22.41.35.92.61,1.52.68.12.01.23.02.35.02.85,0,1.61-.38,2.28-.88,1.01-.75,1.87-1.82,2.63-2.68.38-.43.73-.81,1.03-1.05.3-.26.54-.35.62-.34h.07s.12.11.12.11c.09.1.21.33.3.76.09.43.16,1.06.16,1.93,0,.61-.03,1.33-.1,2.19-.02.28.19.53.47.56s.53-.19.56-.47c.07-.88.1-1.63.1-2.27,0-1.23-.11-2.05-.32-2.64-.1-.29-.23-.53-.39-.72-.16-.19-.36-.33-.56-.4-.14-.05-.28-.07-.42-.07-.33,0-.63.13-.89.29-.46.29-.89.73-1.34,1.23-.67.75-1.39,1.63-2.13,2.31-.75.68-1.5,1.12-2.19,1.11h-.22c-.5-.08-.89-.33-1.29-.75-.59-.63-1.09-1.6-1.69-2.48-.3-.44-.63-.85-1.04-1.18-.41-.33-.92-.57-1.51-.6h-.15c-.7,0-1.3.29-1.77.68-.72.58-1.28,1.37-1.88,1.98-.61.62-1.19,1.02-1.95,1.04h-.04c-.48,0-.86-.15-1.25-.43-.58-.41-1.14-1.14-1.82-1.88-.68-.74-1.5-1.5-2.67-1.89-.48-.16-1.04-.27-1.67-.27-2.07,0-4.85,1.09-8.8,4.62-.21.19-.23.52-.04.73s.52.23.73.04Z"/>
      <path class="cls-7" d="M168.86,17.81c-1.65-1.03-3.45-1.91-5.43-2.62-4.92-1.76-9.84-2.03-14.54-1.45-8.68,1.06-16.6,5.02-22.39,7.9-7.8,3.9-37.43,18.69-38.67,44.87-1.06,22.08,18.54,42.5,41.22,50.91,2.82,1.15,7.02,2.57,12.29,3.29,5.16.7,8.63.35,8.69.77.12.83-11.13,5.83-22.9,4.57-22.38-2.39-31.5-25.75-47.17-23.16-4.32.71-7.39,3.11-9.01,4.59-1.55-.97-8.62-5.66-10.33-14.28-.91-4.6.09-8.41.82-10.45-.31.05-6.89,1.14-7.21,1.19-2.4.4-4.81.79-7.21,1.19-3.24.53-6.49,1.07-9.73,1.6-1.75.29-3-1.65-2.01-3.12,4.09-6.03,9.33-14.12,14.99-23.93,4.52-7.83,6.01-10.92,9.72-17.15,2.94-4.94,12.43-20.85,20.65-28.36,17.69-16.19,60.23-21.57,84.95.42,1.17,1.04,2.27,2.12,3.3,3.22"/>
      <g class="cls-9">
        <path class="cls-4" d="M77.08,76.73c-1.88,0-5.82.79-9.51,2.38-2.42,1.04-4.6,2.36-6.41,3.68.14-.02.23-.04.26-.04h0c-.32.9-.69,2.13-.93,3.63,1.09-.53,2.46-1.21,4.16-2.05,13.15-6.53,13.64-7.06,13.55-7.31-.07-.19-.47-.28-1.12-.28"/>
      </g>
      <path d="M0,392.17c13.09-12.33,26.73-26.13,40.55-41.5,11.84-13.17,22.53-26.08,32.17-38.49,6.27,3.96,12.53,7.92,18.8,11.88-11.54,7.87-27.39,21.4-38.54,42.73-5.64,10.79-12.93,24.74-10.93,41.71,2.78,23.52,21.67,37.89,20.5,39.03-1.13,1.1-14.57-9.71-62.55-55.35Z"/>
    </g>
  </g>
</svg>