<?xml version="1.0" encoding="UTF-8"?>
<svg xmlns="http://www.w3.org/2000/svg" xmlns:xlink="http://www.w3.org/1999/xlink" viewBox="0 0 178.98 451.36">
  <defs>
    <style>
      .cls-1 {
        fill: #5c8062;
      }

      .cls-2 {
        stroke: #fff;
        stroke-width: 1.03px;
      }

      .cls-2, .cls-3 {
        fill: none;
        stroke-linecap: round;
        stroke-miterlimit: 10;
      }

      .cls-4 {
        fill: #612a00;
      }

      .cls-5 {
        isolation: isolate;
      }

      .cls-6 {
        fill: #5e3615;
      }

      .cls-7 {
        fill: #fff;
      }

      .cls-8 {
        fill: #a1541c;
      }

      .cls-9 {
        mix-blend-mode: overlay;
        opacity: .45;
      }

      .cls-3 {
        stroke: #000;
        stroke-width: 17px;
      }

      .cls-10 {
        clip-path: url(#clippath);
      }
    </style>
    <clipPath id="clippath">
      <path class="cls-8" d="M142.41,25.21c-1.48-1.27-3.13-2.4-4.98-3.39-4.6-2.47-9.43-3.47-14.17-3.59-8.74-.24-17.16,2.5-23.32,4.5-8.29,2.7-39.79,12.93-44.89,38.65-4.32,21.68,12.04,44.78,33.22,56.46,2.62,1.55,6.56,3.59,11.66,5.07,5,1.46,8.48,1.62,8.48,2.05,0,.84-11.87,4.11-23.33,1.13-21.78-5.68-27.34-30.14-43.22-29.9-4.37.07-7.77,1.98-9.59,3.2-1.38-1.19-7.69-6.87-8.1-15.65-.22-4.69,1.33-8.3,2.36-10.22-.31,0-6.99.1-7.31.11-2.44.04-4.87.07-7.31.11-3.29.05-6.58.1-9.86.15-1.78.03-2.73-2.08-1.52-3.39,4.94-5.36,11.32-12.58,18.37-21.45,5.63-7.07,7.56-9.91,12.15-15.52,3.64-4.45,15.38-18.78,24.62-24.99,19.89-13.39,62.76-12.4,83.95,13,1,1.21,1.93,2.43,2.78,3.68Z"/>
    </clipPath>
  </defs>
  <g class="cls-5">
    <g id="Layer_2" data-name="Layer 2">
      <g id="step_4">
        <path id="R_leg" class="cls-6" d="M60.22,332.3c4.37-3.51,8.74-7.03,13.12-10.54,8.13-30.13,16.25-60.26,24.38-90.38-3.92-2.05-13.64-6.42-23.59-3.05-1.85.63-8.4,2.77-13.41,9.32-3.36,4.4-4.56,8.82-5.03,11.25-.81,22.7-1.63,45.39-2.44,68.09,2.33,5.1,4.66,10.2,6.98,15.31Z"/>
        <path id="R_foot" d="M39.28,428.56c3.56-18.78,4.21-34.74,7.13-55.19,2.78-19.42,5.02-38.24,6.82-56.38l20.1,4.77c-3.98,30.17-5.1,42.5-5.95,56.04-1,15.96-6.35,44.4,3.5,55.65,15.12,17.26,43.27,14.47,43.07,16.03-.16,1.21-13.27,3.29-48.31.51-10.35-.82-15.39-11.91-26.36-21.43Z"/>
        <path id="L_arm" class="cls-3" d="M106.61,126.81c-2.37,10.57-5.37,27.02-6.07,47.38-.89,25.72-1.78,51.77,10.26,57.62,13.44,6.54,31.89-17.49,48.83-9.29,5.71,2.76,8.96,8.08,10.85,12.36"/>
        <path id="L_leg" class="cls-6" d="M99.72,296.3c-.33-5.81-.67-11.61-1-17.42-12.25-16.58-24.51-33.17-36.76-49.75-4.59-6.42-9.19-12.83-13.78-19.25-4.35,1.54-14.18,5.72-21.38,15.87-3.25,4.58-5.03,9.06-6.05,12.5,21.84,19.69,43.68,39.37,65.52,59.06,4.48-.34,8.97-.67,13.45-1.01Z"/>
        <path id="L_foot" d="M86.21,402.6c-.03-17.34-1.56-36.53-2.12-57.19-.48-17.71-2.07-34.76-3.63-50.4,7.27-1.44,15.99-3.39,23.26-4.83-.89,15.26-3.27,36.32,3.33,59.46,3.34,11.71,4.48,31.78,19.36,40.18,22.59,12.76,33.11,26.98,33.05,28.61-.06,1.58-7.04-15.77-73.26-15.84Z"/>
        <path class="cls-1" d="M47.3,85.65c8.8-.24,13.3,12.14,24.4,22.34,7.66,7.04,20.25,14.67,41.8,16.99-4.89,14.64-9.75,33.34-12.24,55.37-2.33,20.56-2,38.69-.75,53.37-7.24,4.21-23.58,12.38-45.64,12.17-16.8-.17-29.77-5.12-37.01-8.54,4.23-15.87,8.47-31.74,12.7-47.61-1.45-24.04-2.9-48.07-4.34-72.11,2.1-6.43,4.21-12.85,6.31-19.28,3.34-5.81,8.4-12.52,14.78-12.69Z"/>
        <path id="R_arm" class="cls-3" d="M44.04,123.88c1.4,15.73,5.15,36.51,15.02,59.02,7.87,17.95,11.81,26.93,20.26,29.37,18.82,5.43,36.31-26.95,62.01-21.81,6.32,1.26,11.04,4.38,13.89,6.63"/>
        <g>
          <path class="cls-8" d="M108.95,119.16c-3.52,1.3,2.82,15.01-.69,34.54-1.54,8.55-3.93,12.48-3.44,21.5.34,6.35,1.91,11.48,3.19,14.85,4.13-8.77,21.31-46.78,7.82-65.44-.55-.76-4.55-6.3-6.88-5.44Z"/>
          <path class="cls-8" d="M109.41,121.63c3.99,7.42-8.41,23.01-17.25,31.35-13.24,12.49-21.81,12.08-35.64,23.84-10.46,8.9-16.7,18.62-20.18,24.96-8.14-4.31-16.29-8.61-24.43-12.92-.64-11.94-.24-27.44,3.54-45.02,2.31-10.76,5.43-20.14,8.6-28,1.63-4.33,4.28-10.53,8.47-17.5,3.98-6.62,5.98-9.93,8.03-10.6,9.74-3.16,16.79,23.3,39.51,29.25,15.66,4.1,26.28-1.07,29.34,4.63Z"/>
          <path class="cls-9" d="M29.15,106.74c1.48,1.94,7.5-2.44,15.27-1.19,6.31,1.02,8.64,4.93,15.17,10.36,4.2,3.49,23.7,19.12,41.17,14.64,4.24-1.09,7.42-2.98,9.33-4.3-2.24-4.54-11.47-21.86-32.54-30.62-18.33-7.62-34.66-4.19-40.04-2.82-8.56,9.73-9.19,12.82-8.35,13.92Z"/>
        </g>
        <g>
          <path class="cls-4" d="M142.76,117.47c-12.15,8.71-26.43,8.18-29.38,8.02h0c-8.49-.48-17.14-3.26-25.1-7.66-21.19-11.68-37.54-34.78-33.22-56.46,5.1-25.71,36.6-35.95,44.89-38.65,4.62-1.5,10.52-3.41,16.86-4.17.52-.06,1.04-.12,1.57-.16.01,0,.03,0,.04,0,.45-.04.9-.07,1.36-.1.07,0,.16-.01.24-.01.54-.03,1.08-.05,1.62-.05.54,0,1.08,0,1.63.01,4.73.12,9.56,1.12,14.17,3.59,1.85.99,3.5,2.13,4.98,3.39,8.63,7.32,11.5,18.67,13.88,28.06,1.74,6.9,11.67,46.13-13.54,64.2Z"/>
          <path d="M147.3,90.48c-2.73,10.78-8.62,25.15-21.4,31.31-3.73,1.81-7.92,2.84-12.41,3.19h0c-6.83.03-18.24-.93-29.87-7.38-20.33-11.28-37.23-37.06-31.28-61.19,7.49-30.39,43.42-39.77,49.36-41.29,7.91-2.03,14.83-2.38,19.81-2.28,3.8,1.21,9.15,3.5,14.05,8.07,9.92,9.25,11.68,21.96,13.63,36.11,0,0,1.53,10.74.36,20.98-.21,1.84-.76,6.64-2.25,12.49Z"/>
          <path class="cls-7" d="M147.3,90.48c-2.22,2.28-4.67,3.41-6.92,2.89-5.1-1.18-7.35-10.3-5.03-20.37,2.32-10.07,8.35-17.27,13.45-16.1.13.03.26.07.39.11,1.01,7.37,1.09,14.57.36,20.98-.21,1.84-.76,6.64-2.25,12.49Z"/>
          <ellipse class="cls-7" cx="105.13" cy="68.05" rx="18.72" ry="11.24" transform="translate(15.17 155.18) rotate(-77)"/>
          <path class="cls-7" d="M124.45,41.24c.54.89-4.23,6.54-10.69,7.27-5.1.57-9.95-2.09-9.79-3.06.14-.82,3.74-.08,10.17-1.33,6.83-1.32,9.91-3.52,10.3-2.87Z"/>
          <path class="cls-7" d="M136.54,42.95c-.59.72.83,7.26,4.69,9.46,3.05,1.74,6.85.33,7.02-.64.14-.81-2.33-.96-6.03-3.65-3.93-2.86-5.25-5.7-5.68-5.17Z"/>
          <path class="cls-2" d="M95.85,99.86c5.71-3.75,8.75-3.61,10.48-2.72,2.63,1.35,2.82,4.75,5.26,5.07,2.58.34,3.92-3.29,6.19-2.81,2.46.52,2.18,5.05,4.69,5.75,2.95.82,6.2-4.61,7.73-3.78.55.3.96,1.45,0,5.57"/>
          <g>
            <path class="cls-8" d="M142.41,25.21c-1.48-1.27-3.13-2.4-4.98-3.39-4.6-2.47-9.43-3.47-14.17-3.59-8.74-.24-17.16,2.5-23.32,4.5-8.29,2.7-39.79,12.93-44.89,38.65-4.32,21.68,12.04,44.78,33.22,56.46,2.62,1.55,6.56,3.59,11.66,5.07,5,1.46,8.48,1.62,8.48,2.05,0,.84-11.87,4.11-23.33,1.13-21.78-5.68-27.34-30.14-43.22-29.9-4.37.07-7.77,1.98-9.59,3.2-1.38-1.19-7.69-6.87-8.1-15.65-.22-4.69,1.33-8.3,2.36-10.22-.31,0-6.99.1-7.31.11-2.44.04-4.87.07-7.31.11-3.29.05-6.58.1-9.86.15-1.78.03-2.73-2.08-1.52-3.39,4.94-5.36,11.32-12.58,18.37-21.45,5.63-7.07,7.56-9.91,12.15-15.52,3.64-4.45,15.38-18.78,24.62-24.99,19.89-13.39,62.76-12.4,83.95,13,1,1.21,1.93,2.43,2.78,3.68Z"/>
            <g class="cls-10">
              <path class="cls-9" d="M20.33,78.14c-.38-.76,5.42-5.37,12.83-7.32,5.23-1.38,10.68-1.27,10.82-.5.05.27-.52.72-14.48,5.22-8.38,2.7-9.05,2.82-9.17,2.6Z"/>
            </g>
          </g>
        </g>
      </g>
    </g>
  </g>
</svg>