<?xml version="1.0" encoding="UTF-8"?>
<svg xmlns="http://www.w3.org/2000/svg" xmlns:xlink="http://www.w3.org/1999/xlink" viewBox="0 0 209.53 444.24">
  <defs>
    <style>
      .cls-1 {
        fill: #5c8062;
      }

      .cls-2 {
        stroke: #fff;
        stroke-width: 1.03px;
      }

      .cls-2, .cls-3 {
        fill: none;
        stroke-linecap: round;
        stroke-miterlimit: 10;
      }

      .cls-4 {
        fill: #612a00;
      }

      .cls-5 {
        isolation: isolate;
      }

      .cls-6 {
        fill: #5e3615;
      }

      .cls-7 {
        fill: #fff;
      }

      .cls-8 {
        fill: #a1541c;
      }

      .cls-9 {
        mix-blend-mode: overlay;
        opacity: .45;
      }

      .cls-3 {
        stroke: #000;
        stroke-width: 17px;
      }

      .cls-10 {
        clip-path: url(#clippath);
      }
    </style>
    <clipPath id="clippath">
      <path class="cls-8" d="M129.45,15.06c-1.72-.93-3.57-1.69-5.59-2.27-5.02-1.44-9.95-1.4-14.6-.52-8.59,1.6-16.25,6.06-21.85,9.31-7.54,4.38-36.17,21.02-35.75,47.23.34,22.1,21.19,41.24,44.36,48.2,2.89.97,7.17,2.12,12.47,2.5,5.2.37,8.63-.2,8.72.21.17.82-10.74,6.52-22.57,6.01-22.49-.97-33.07-23.71-48.54-20.13-4.26.99-7.18,3.57-8.7,5.15-1.6-.87-8.96-5.1-11.21-13.59-1.2-4.54-.45-8.39.15-10.48-.31.07-6.81,1.57-7.12,1.64-2.37.55-4.75,1.1-7.12,1.64-3.2.74-6.41,1.48-9.61,2.22-1.73.4-3.1-1.46-2.2-2.99,3.7-6.28,8.41-14.68,13.44-24.83,4.02-8.1,5.31-11.28,8.61-17.73,2.63-5.11,11.08-21.59,18.81-29.61C57.77-.27,99.89-8.33,125.95,12.05c1.24.97,2.4,1.97,3.5,3.01Z"/>
    </clipPath>
  </defs>
  <g class="cls-5">
    <g id="Layer_2" data-name="Layer 2">
      <g id="step_6">
        <path id="L_arm" class="cls-3" d="M115.83,121.92c-.1,10.83.44,27.54,4.04,47.59,4.55,25.33,9.15,50.98,22.16,54.17,14.52,3.56,27.5-23.81,45.78-19.36,6.16,1.5,10.46,6.02,13.21,9.8"/>
        <path id="L_leg" class="cls-6" d="M141.49,328.61c2.18-5.39,4.36-10.78,6.54-16.17-3.99-20.23-7.98-40.46-11.97-60.69-1.41-7.76-2.82-15.53-4.23-23.29-8.74-7.6-20.72-8.42-28.56-2.72-7.68,5.59-8.29,15.2-8.36,16.64,11.33,27.13,22.66,54.26,34,81.4,4.2,1.61,8.39,3.22,12.59,4.83Z"/>
        <path id="L_foot" d="M47.95,381.04c15-9.93,26.93-20.54,43.15-33.35,13.9-10.98,25.11-23.97,36.71-34.56,5.51,4.96,11.01,9.93,16.52,14.89-12.3,8.33-28.13,20.62-45.34,37.56-7.45,7.34-18.74,13.32-19.64,30.38-1.25,23.65,22.07,39.73,22.07,39.73,0,0-15.44,1.46-29.57-17.87-6.26-8.57-13.62-21.47-23.91-36.78Z"/>
        <path id="R_leg" class="cls-6" d="M64.26,336.13c4.03-3.9,8.07-7.79,12.1-11.69,5.35-30.74,10.71-61.48,16.06-92.23-4.09-1.69-14.17-5.16-23.77-.89-1.79.79-8.11,3.52-12.51,10.5-2.95,4.68-3.74,9.2-3.98,11.66,1.25,22.68,2.5,45.35,3.76,68.03,2.78,4.87,5.56,9.74,8.35,14.61Z"/>
        <path id="R_foot" d="M31.48,423.89c3.88-19.35,18.85-86.4,22.99-104.15,6.44,2.44,15.46,2.25,21.9,4.7-5.44,29.48-10.15,44.12-12.74,57.43-3.06,15.7-1.06,28.99,7.25,41.42,12.75,19.07,43.29,17.7,42.89,19.21-.31,1.18-53.63,1.74-53.63,1.74,0,0-16.23-4.68-28.65-20.34Z"/>
        <path class="cls-1" d="M49.19,94.17c8.55-2.09,15.56,9.07,28.56,16.7,8.97,5.27,22.89,10.08,44.44,7.81-1.7,15.34-2.51,34.65-.31,56.71,2.05,20.59,6.19,38.25,10.5,52.33-6.19,5.64-20.44,17.07-42.06,21.5-16.46,3.38-30.18,1.26-37.98-.56.8-16.41,1.6-32.81,2.4-49.22-6.48-23.19-12.95-46.39-19.43-69.58.7-6.73,1.41-13.45,2.11-20.18,2.04-6.39,5.58-14,11.77-15.52Z"/>
        <path id="R_arm" class="cls-3" d="M54.05,132.23c4.68,15.08,12.72,34.61,27.11,54.54,11.48,15.89,17.22,23.84,25.99,24.44,19.54,1.35,29.82-33.99,56.02-34.38,6.45-.09,11.72,1.96,14.97,3.56"/>
        <g>
          <path class="cls-8" d="M116.52,113.95c-3.17,2.01,5.91,14.08,6.6,33.91.3,8.69-1.21,13.02,1.16,21.74,1.67,6.13,4.28,10.82,6.24,13.85,2.2-9.44,10.98-50.22-6.13-65.62-.69-.62-5.78-5.2-7.87-3.87Z"/>
          <path class="cls-8" d="M117.48,116.26c5.46,6.42-3.38,24.27-10.27,34.28-10.31,14.99-18.78,16.4-29.82,30.8-8.35,10.9-12.4,21.72-14.47,28.65-8.87-2.5-17.74-4.99-26.6-7.49-3.14-11.53-6.01-26.78-6.02-44.75,0-11.01,1.07-20.83,2.52-29.18.68-4.58,1.97-11.2,4.6-18.89,2.5-7.31,3.75-10.97,5.62-12.05,8.86-5.14,21.32,19.25,44.78,20.28,16.18.71,25.46-6.58,29.66-1.65Z"/>
          <path class="cls-9" d="M35.89,118.6c1.85,1.59,6.81-3.97,14.67-4.38,6.38-.33,9.49,3,17.01,6.93,4.84,2.53,27.19,13.7,43.33,5.65,3.92-1.96,6.63-4.47,8.22-6.16-3.15-3.97-15.81-18.96-38.26-23.08-19.53-3.59-34.77,3.2-39.74,5.68-6.32,11.31-6.28,14.47-5.24,15.37Z"/>
        </g>
        <g>
          <path class="cls-4" d="M149.21,105.18c-10.04,11.07-24.11,13.56-27.03,14.02h-.01c-8.4,1.32-17.44.42-26.15-2.2-23.17-6.96-44.02-26.1-44.36-48.2-.42-26.21,28.21-42.85,35.75-47.23,4.2-2.44,9.56-5.55,15.6-7.63.49-.17,1-.34,1.5-.49.01,0,.03,0,.04-.02.43-.13.86-.26,1.31-.38.07-.02.15-.04.23-.06.52-.14,1.04-.27,1.58-.4.52-.12,1.05-.23,1.6-.33,4.65-.88,9.58-.92,14.6.52,2.02.58,3.87,1.34,5.59,2.27,9.98,5.34,15.18,15.83,19.48,24.51,3.16,6.38,21.12,42.64.28,65.61Z"/>
          <path d="M147.97,77.84c-.4,11.12-3.13,26.4-14.33,35.11-3.27,2.55-7.15,4.45-11.46,5.73h-.01c-6.67,1.47-18.03,2.93-30.76-.93-22.25-6.75-44.19-28.39-43.46-53.24.92-31.28,34.07-48.01,39.56-50.76,7.3-3.65,14-5.45,18.88-6.4,3.97.39,9.69,1.5,15.44,4.93,11.65,6.95,16.04,19.01,20.93,32.43,0,0,3.75,10.17,4.77,20.43.18,1.84.65,6.65.43,12.69Z"/>
          <path class="cls-7" d="M147.97,77.84c-1.69,2.7-3.84,4.31-6.15,4.28-5.23-.08-9.36-8.52-9.2-18.86.15-10.33,4.53-18.65,9.75-18.57.13,0,.27.01.4.03,2.54,6.99,4.13,14.01,4.77,20.43.18,1.84.65,6.65.43,12.69Z"/>
          <ellipse class="cls-7" cx="102.02" cy="64.79" rx="18.72" ry="11.24" transform="translate(35.73 165.85) rotate(-89.15)"/>
          <path class="cls-7" d="M115.27,34.51c.71.75-2.76,7.29-8.92,9.35-4.87,1.63-10.17.05-10.21-.93-.04-.83,3.63-.87,9.66-3.44,6.4-2.73,8.95-5.53,9.47-4.98Z"/>
          <path class="cls-7" d="M127.45,33.63c-.42.83,2.34,6.92,6.58,8.26,3.35,1.06,6.77-1.12,6.73-2.1-.03-.83-2.48-.44-6.67-2.3-4.44-1.97-6.33-4.46-6.64-3.85Z"/>
          <path class="cls-2" d="M99.64,97.84c4.8-4.87,7.79-5.37,9.67-4.87,2.86.77,3.76,4.05,6.2,3.85,2.6-.21,3.14-4.04,5.46-4.05,2.52-.01,3.19,4.48,5.8,4.64,3.06.18,5.09-5.81,6.76-5.33.6.17,1.25,1.21,1.17,5.44"/>
          <g>
            <path class="cls-8" d="M129.45,15.06c-1.72-.93-3.57-1.69-5.59-2.27-5.02-1.44-9.95-1.4-14.6-.52-8.59,1.6-16.25,6.06-21.85,9.31-7.54,4.38-36.17,21.02-35.75,47.23.34,22.1,21.19,41.24,44.36,48.2,2.89.97,7.17,2.12,12.47,2.5,5.2.37,8.63-.2,8.72.21.17.82-10.74,6.52-22.57,6.01-22.49-.97-33.07-23.71-48.54-20.13-4.26.99-7.18,3.57-8.7,5.15-1.6-.87-8.96-5.1-11.21-13.59-1.2-4.54-.45-8.39.15-10.48-.31.07-6.81,1.57-7.12,1.64-2.37.55-4.75,1.1-7.12,1.64-3.2.74-6.41,1.48-9.61,2.22-1.73.4-3.1-1.46-2.2-2.99,3.7-6.28,8.41-14.68,13.44-24.83,4.02-8.1,5.31-11.28,8.61-17.73,2.63-5.11,11.08-21.59,18.81-29.61C57.77-.27,99.89-8.33,125.95,12.05c1.24.97,2.4,1.97,3.5,3.01Z"/>
            <g class="cls-10">
              <path class="cls-9" d="M21.25,92.51c-.53-.66,4.17-6.39,11-9.86,4.83-2.45,10.18-3.49,10.48-2.77.1.25-.35.81-13.06,8.16-7.62,4.41-8.26,4.67-8.41,4.47Z"/>
            </g>
          </g>
        </g>
      </g>
    </g>
  </g>
</svg>