<?xml version="1.0" encoding="UTF-8"?>
<svg xmlns="http://www.w3.org/2000/svg" xmlns:xlink="http://www.w3.org/1999/xlink" viewBox="0 0 200.49 445.31">
  <defs>
    <style>
      .cls-1 {
        fill: #5c8062;
      }

      .cls-2 {
        stroke: #fff;
        stroke-width: 1.03px;
      }

      .cls-2, .cls-3 {
        fill: none;
        stroke-linecap: round;
        stroke-miterlimit: 10;
      }

      .cls-4 {
        fill: #612a00;
      }

      .cls-5 {
        isolation: isolate;
      }

      .cls-6 {
        fill: #5e3615;
      }

      .cls-7 {
        fill: #fff;
      }

      .cls-8 {
        fill: #a1541c;
      }

      .cls-9 {
        mix-blend-mode: overlay;
        opacity: .45;
      }

      .cls-3 {
        stroke: #000;
        stroke-width: 17px;
      }

      .cls-10 {
        clip-path: url(#clippath);
      }
    </style>
    <clipPath id="clippath">
      <path class="cls-8" d="M134.34,18.07c-1.65-1.04-3.44-1.93-5.42-2.65-4.91-1.79-9.83-2.09-14.53-1.53-8.68,1.01-16.63,4.92-22.44,7.77-7.82,3.85-37.54,18.47-38.93,44.65-1.18,22.07,18.29,42.61,40.93,51.15,2.82,1.17,7.01,2.61,12.27,3.36,5.16.73,8.62.4,8.68.82.12.83-11.16,5.76-22.93,4.44-22.37-2.52-31.35-25.94-47.03-23.44-4.32.69-7.41,3.07-9.03,4.53-1.54-.98-8.59-5.71-10.25-14.34-.89-4.61.14-8.41.88-10.45-.31.05-6.9,1.1-7.22,1.15-2.41.38-4.81.77-7.22,1.15-3.25.52-6.49,1.03-9.74,1.55-1.75.28-3-1.67-1.99-3.13,4.13-6.01,9.41-14.06,15.12-23.84,4.57-7.8,6.07-10.89,9.82-17.1,2.97-4.92,12.55-20.78,20.81-28.24,17.78-16.09,60.35-21.22,84.94.91,1.17,1.05,2.26,2.13,3.28,3.24Z"/>
    </clipPath>
  </defs>
  <g class="cls-5">
    <g id="Layer_2" data-name="Layer 2">
      <g id="step_7">
        <path id="L_arm" class="cls-3" d="M113.37,123.74c-.84,10.8-1.47,27.51.74,47.76,2.79,25.58,5.61,51.49,18.36,55.58,14.24,4.56,29.08-21.85,47.01-16.15,6.05,1.92,10.02,6.72,12.5,10.69"/>
        <path id="L_leg" class="cls-6" d="M155.67,298.17c-.05-5.82-.1-11.63-.15-17.45-11.43-17.16-22.86-34.32-34.29-51.48-4.28-6.63-8.55-13.26-12.83-19.89-10.98-3.68-22.37.16-27.43,8.43-4.96,8.11-1.84,17.21-1.35,18.57,20.86,20.73,41.71,41.45,62.57,62.18,4.49-.12,8.99-.24,13.48-.36Z"/>
        <path id="L_foot" d="M80.2,377.21c11.35-13.96,19.57-27.64,31.23-44.7,9.99-14.63,16.82-30.37,24.73-43.95,6.74,3.09,13.47,6.19,20.21,9.28-9.26,11.62-20.7,28.07-32.06,49.37-4.92,9.23-13.91,18.3-9.68,34.86,5.87,22.95,32.92,31.33,32.92,31.33,0,0-14.31,6-33.55-8.23-8.53-6.31-19.41-16.42-33.79-27.97Z"/>
        <path id="R_leg" class="cls-6" d="M45.97,336.46c4.36-3.74,8.73-7.49,13.09-11.23,8.04-31.76,16.09-63.51,24.13-95.27-3.93-2.11-13.67-6.59-23.61-2.92-1.85.68-8.39,3-13.39,9.95-3.35,4.66-4.53,9.32-5,11.88-.75,23.86-1.5,47.72-2.25,71.58,2.34,5.33,4.69,10.67,7.03,16Z"/>
        <path id="R_foot" d="M15.05,424.97c3.88-19.35,18.85-86.4,22.99-104.15,6.44,2.44,15.46,2.25,21.9,4.7-5.44,29.48-10.15,44.12-12.74,57.43-3.06,15.7-1.06,28.99,7.25,41.42,12.75,19.07,43.29,17.7,42.89,19.21-.31,1.18-53.63,1.74-53.63,1.74,0,0-16.23-4.68-28.65-20.34Z"/>
        <path class="cls-1" d="M48.8,91.45c8.68-1.49,14.9,10.13,27.33,18.63,8.59,5.87,22.13,11.63,43.8,10.86-2.76,15.19-4.9,34.39-4.23,56.55.62,20.68,3.54,38.58,6.86,52.93-6.57,5.2-21.57,15.62-43.44,18.54-16.65,2.23-30.2-.83-37.85-3.18,1.93-16.31,3.86-32.62,5.79-48.94-4.86-23.58-9.71-47.17-14.57-70.75,1.17-6.66,2.33-13.32,3.5-19.98,2.48-6.23,6.53-13.59,12.82-14.66Z"/>
        <path id="R_arm" class="cls-3" d="M51.02,129.75c3.63,15.37,10.29,35.41,23.27,56.28,10.35,16.65,15.53,24.97,24.24,26.18,19.4,2.7,32.1-31.85,58.27-30.42,6.44.35,11.55,2.76,14.69,4.59"/>
        <g>
          <path class="cls-8" d="M114.6,115.84c-3.3,1.79,4.92,14.45,4.24,34.28-.3,8.69-2.11,12.91-.34,21.77,1.24,6.23,3.52,11.09,5.27,14.25,2.84-9.27,14.43-49.34-1.58-65.89-.65-.67-5.4-5.59-7.59-4.41Z"/>
          <path class="cls-8" d="M115.4,118.21c5.01,6.78-5.05,23.97-12.61,33.49-11.32,14.24-19.87,15.06-31.88,28.67-9.09,10.3-13.88,20.81-16.42,27.58-8.67-3.1-17.35-6.21-26.02-9.31-2.34-11.72-4.15-27.13-2.91-45.06.76-10.98,2.5-20.71,4.53-28.94.99-4.52,2.73-11.03,5.89-18.53,3-7.12,4.5-10.68,6.44-11.64,9.2-4.51,19.94,20.67,43.27,23.33,16.09,1.83,25.86-4.81,29.7.4Z"/>
          <path class="cls-9" d="M33.84,114.9c1.74,1.71,7.07-3.49,14.94-3.35,6.39.11,9.26,3.64,16.49,8.09,4.66,2.86,26.18,15.55,42.83,8.63,4.04-1.68,6.92-4,8.62-5.58-2.87-4.18-14.46-20.01-36.57-25.67-19.23-4.93-34.91.79-40.04,2.91-7.08,10.85-7.27,14-6.29,14.97Z"/>
        </g>
        <g>
          <path class="cls-4" d="M147.82,109.35c-10.79,10.35-24.99,11.86-27.93,12.12h0c-8.47.73-17.43-.79-25.94-4-22.63-8.54-42.11-29.08-40.93-51.15,1.39-26.18,31.11-40.8,38.93-44.65,4.36-2.14,9.92-4.88,16.09-6.53.5-.14,1.02-.27,1.53-.38.01,0,.03,0,.04-.02.44-.1.88-.2,1.33-.29.07-.01.15-.03.23-.05.53-.1,1.06-.2,1.6-.29.53-.09,1.07-.15,1.61-.22,4.7-.56,9.63-.25,14.53,1.53,1.98.72,3.77,1.61,5.42,2.65,9.59,6.02,14.05,16.84,17.74,25.8,2.71,6.58,18.13,44-4.25,65.48Z"/>
          <path d="M148.48,81.98c-1.17,11.06-4.95,26.12-16.72,34.04-3.44,2.32-7.44,3.94-11.82,4.93h0c-6.75,1-18.18,1.68-30.62-3.05-21.73-8.27-42.13-31.38-39.68-56.11,3.08-31.15,37.31-45.54,42.98-47.9,7.54-3.14,14.34-4.47,19.28-5.08,3.94.66,9.56,2.16,15.06,5.99,11.14,7.74,14.69,20.07,18.64,33.8,0,0,3.04,10.41,3.35,20.71.05,1.85.19,6.68-.45,12.69Z"/>
          <path class="cls-7" d="M148.48,81.98c-1.87,2.57-4.13,4.04-6.43,3.84-5.21-.44-8.74-9.15-7.88-19.45s5.8-18.29,11.02-17.85c.13.01.27.03.4.05,2.05,7.15,3.16,14.26,3.35,20.71.05,1.85.19,6.68-.45,12.69Z"/>
          <ellipse class="cls-7" cx="103.54" cy="65.79" rx="18.72" ry="11.24" transform="translate(29.3 163.45) rotate(-85.19)"/>
          <path class="cls-7" d="M118.85,36.5c.66.8-3.26,7.08-9.54,8.71-4.97,1.29-10.15-.65-10.12-1.64.02-.83,3.69-.61,9.88-2.76,6.57-2.28,9.31-4.9,9.79-4.31Z"/>
          <path class="cls-7" d="M131.06,36.47c-.48.8,1.86,7.07,5.99,8.7,3.27,1.29,6.83-.65,6.86-1.63.03-.83-2.44-.61-6.49-2.76-4.3-2.27-6.01-4.89-6.36-4.3Z"/>
          <path class="cls-2" d="M98.88,98.6c5.12-4.52,8.15-4.82,9.99-4.19,2.8.96,3.47,4.3,5.92,4.27,2.61-.03,3.41-3.81,5.73-3.67,2.51.16,2.87,4.69,5.47,5.03,3.04.4,5.48-5.45,7.11-4.85.59.22,1.16,1.3.79,5.51"/>
          <g>
            <path class="cls-8" d="M134.34,18.07c-1.65-1.04-3.44-1.93-5.42-2.65-4.91-1.79-9.83-2.09-14.53-1.53-8.68,1.01-16.63,4.92-22.44,7.77-7.82,3.85-37.54,18.47-38.93,44.65-1.18,22.07,18.29,42.61,40.93,51.15,2.82,1.17,7.01,2.61,12.27,3.36,5.16.73,8.62.4,8.68.82.12.83-11.16,5.76-22.93,4.44-22.37-2.52-31.35-25.94-47.03-23.44-4.32.69-7.41,3.07-9.03,4.53-1.54-.98-8.59-5.71-10.25-14.34-.89-4.61.14-8.41.88-10.45-.31.05-6.9,1.1-7.22,1.15-2.41.38-4.81.77-7.22,1.15-3.25.52-6.49,1.03-9.74,1.55-1.75.28-3-1.67-1.99-3.13,4.13-6.01,9.41-14.06,15.12-23.84,4.57-7.8,6.07-10.89,9.82-17.1,2.97-4.92,12.55-20.78,20.81-28.24,17.78-16.09,60.35-21.22,84.94.91,1.17,1.05,2.26,2.13,3.28,3.24Z"/>
            <g class="cls-10">
              <path class="cls-9" d="M21.04,87.86c-.48-.7,4.6-6.09,11.65-9.07,4.98-2.11,10.39-2.78,10.64-2.04.09.26-.41.78-13.59,7.23-7.91,3.87-8.56,4.08-8.7,3.88Z"/>
            </g>
          </g>
        </g>
      </g>
    </g>
  </g>
</svg>