<?xml version="1.0" encoding="UTF-8"?>
<svg xmlns="http://www.w3.org/2000/svg" xmlns:xlink="http://www.w3.org/1999/xlink" viewBox="0 0 185.23 424.05">
  <defs>
    <style>
      .cls-1 {
        fill: #5c8062;
      }

      .cls-2 {
        stroke: #fff;
        stroke-width: 1.03px;
      }

      .cls-2, .cls-3 {
        fill: none;
        stroke-linecap: round;
        stroke-miterlimit: 10;
      }

      .cls-4 {
        fill: #612a00;
      }

      .cls-5 {
        isolation: isolate;
      }

      .cls-6 {
        fill: #5e3615;
      }

      .cls-7 {
        fill: #fff;
      }

      .cls-8 {
        fill: #a1541c;
      }

      .cls-9 {
        mix-blend-mode: overlay;
        opacity: .45;
      }

      .cls-3 {
        stroke: #000;
        stroke-width: 17px;
      }

      .cls-10 {
        clip-path: url(#clippath);
      }
    </style>
    <clipPath id="clippath">
      <path class="cls-8" d="M140.48,23.14c-1.53-1.21-3.22-2.28-5.11-3.2-4.7-2.28-9.56-3.09-14.3-3.03-8.74.1-17.05,3.17-23.13,5.41-8.18,3.02-39.25,14.48-43.35,40.37-3.47,21.83,13.78,44.28,35.4,55.12,2.68,1.45,6.7,3.33,11.85,4.61,5.05,1.26,8.54,1.29,8.55,1.71.03.84-11.7,4.57-23.27,2.04-21.99-4.82-28.5-29.05-44.35-28.18-4.37.24-7.69,2.28-9.45,3.57-1.43-1.14-7.95-6.57-8.71-15.32-.4-4.67,1.01-8.35,1.95-10.3-.31.02-6.98.38-7.3.39-2.43.13-4.86.26-7.3.39-3.28.18-6.57.35-9.85.53-1.77.1-2.81-1.97-1.65-3.32,4.73-5.55,10.81-13.01,17.51-22.15,5.35-7.29,7.17-10.2,11.54-15.99,3.47-4.59,14.63-19.37,23.63-25.93,19.35-14.16,62.22-14.85,84.39,9.71,1.05,1.17,2.03,2.35,2.93,3.57Z"/>
    </clipPath>
  </defs>
  <g class="cls-5">
    <g id="Layer_2" data-name="Layer 2">
      <g id="step_5">
        <path id="L_arm" class="cls-3" d="M108.67,126.06c-1.96,10.65-4.31,27.21-4.21,47.58.12,25.73.24,51.8,12.5,57.18,13.69,6.01,31.19-18.72,48.43-11.19,5.81,2.54,9.27,7.73,11.33,11.92"/>
        <path id="L_leg" class="cls-6" d="M150.1,312.69c-.14-5.81-.28-11.63-.42-17.44-11.69-16.98-23.38-33.97-35.08-50.95-4.38-6.57-8.75-13.13-13.13-19.7-11.04-3.51-22.37.5-27.3,8.84-4.83,8.18-1.57,17.24-1.06,18.59,21.17,20.4,42.34,40.81,63.51,61.21,4.49-.19,8.98-.37,13.47-.56Z"/>
        <path id="L_foot" d="M73.36,390.93c11.72-13.65,20.3-27.11,32.41-43.86,10.38-14.35,17.62-29.91,25.89-43.27,6.65,3.27,13.3,6.55,19.95,9.82-10.64,9.05-22.04,27.27-33.37,48.5-4.92,9.23-14.39,17.92-10.6,34.59,5.26,23.1,47.76,22.14,47.76,22.14,0,0-19.46,0-49.01.94-10.6.34-20.59-19.31-33.04-28.86Z"/>
        <path id="R_leg" class="cls-6" d="M55.04,320.38c3.17-4.63,6.34-9.26,9.5-13.88-.95-31.19-1.89-62.38-2.84-93.57-4.35-.83-14.92-2.2-23.46,3.92-1.59,1.14-7.24,5.08-10.14,12.8-1.95,5.18-1.81,9.76-1.55,12.22,5.79,21.96,11.58,43.92,17.38,65.88,3.71,4.21,7.41,8.42,11.12,12.63Z"/>
        <path id="R_foot" d="M14.18,408.37c5.96-18.16,8.67-33.9,14.22-53.8,5.27-18.9,9.93-37.26,14.06-55.02,6.44,2.44,15.97,6.38,22.41,8.82-9.57,27.17-13.66,40-16.25,53.31-3.06,15.7-1.06,28.99,7.25,41.42,12.75,19.07,43.29,17.7,42.89,19.21-.31,1.18-53.63,1.74-53.63,1.74,0,0-18.53,0-30.94-15.68Z"/>
        <path class="cls-1" d="M47.8,87.26c8.78-.58,13.77,11.62,25.25,21.37,7.93,6.73,20.81,13.87,42.44,15.34-4.32,14.82-8.44,33.7-10.07,55.81-1.52,20.64-.48,38.74,1.33,53.36-7.07,4.49-23.07,13.3-45.13,13.94-16.79.49-29.95-3.95-37.31-7.09,3.61-16.02,7.22-32.05,10.83-48.07-2.39-23.96-4.77-47.92-7.16-71.88,1.85-6.5,3.7-13.01,5.55-19.51,3.11-5.94,7.9-12.84,14.27-13.26Z"/>
        <path id="R_arm" class="cls-3" d="M46.04,125.58c2.01,15.66,6.57,36.29,17.32,58.39,8.57,17.63,12.86,26.45,21.39,28.55,19.02,4.69,35.23-28.35,61.11-24.22,6.37,1.02,11.2,3.95,14.14,6.08"/>
        <g>
          <path class="cls-8" d="M110.72,118.33c-3.47,1.43,3.4,14.88.66,34.54-1.2,8.61-3.44,12.62-2.6,21.62.59,6.33,2.35,11.4,3.77,14.72,3.79-8.92,19.46-47.58,5.26-65.7-.57-.73-4.8-6.12-7.09-5.17Z"/>
          <path class="cls-8" d="M111.27,120.77c4.28,7.26-7.51,23.32-16.01,32-12.74,12.99-21.33,12.92-34.68,25.21-10.1,9.3-15.96,19.26-19.19,25.73-8.31-3.99-16.61-7.97-24.92-11.96-1.11-11.9-1.31-27.41,1.77-45.12,1.89-10.85,4.64-20.34,7.5-28.31,1.46-4.39,3.86-10.69,7.78-17.82,3.72-6.77,5.58-10.16,7.61-10.91,9.61-3.53,17.69,22.63,40.62,27.69,15.81,3.49,26.22-2.1,29.5,3.48Z"/>
          <path class="cls-9" d="M30.49,109.03c1.55,1.88,7.4-2.73,15.21-1.78,6.34.77,8.83,4.58,15.57,9.75,4.33,3.33,24.42,18.18,41.71,13.02,4.2-1.25,7.3-3.27,9.15-4.66-2.42-4.45-12.31-21.4-33.71-29.32-18.62-6.89-34.8-2.83-40.12-1.25-8.17,10.06-8.68,13.17-7.8,14.24Z"/>
        </g>
        <g>
          <path class="cls-4" d="M144.43,115.32c-11.8,9.18-26.09,9.21-29.04,9.16h0c-8.5-.15-17.25-2.59-25.38-6.67-21.63-10.84-38.87-33.29-35.4-55.12,4.09-25.89,35.17-37.35,43.35-40.37,4.55-1.68,10.38-3.82,16.68-4.83.51-.08,1.04-.16,1.56-.22.01,0,.03,0,.04-.01.45-.06.9-.1,1.35-.15.07,0,.16-.02.24-.02.54-.05,1.08-.09,1.62-.12.54-.03,1.08-.04,1.63-.05,4.74-.07,9.6.74,14.3,3.03,1.89.92,3.58,1.99,5.11,3.2,8.91,6.98,12.23,18.21,14.97,27.5,2.01,6.83,13.47,45.64-11.02,64.68Z"/>
          <path d="M147.92,88.17c-2.31,10.88-7.63,25.46-20.16,32.12-3.66,1.95-7.8,3.15-12.27,3.67h0c-6.82.3-18.26-.21-30.14-6.21-20.76-10.48-38.65-35.57-33.65-59.92,6.29-30.66,41.83-41.43,47.71-43.19,7.82-2.34,14.73-2.95,19.7-3.05,3.85,1.06,9.28,3.14,14.36,7.51,10.28,8.86,12.53,21.49,15.04,35.55,0,0,1.94,10.67,1.18,20.95-.14,1.85-.5,6.66-1.76,12.57Z"/>
          <path class="cls-7" d="M147.92,88.17c-2.13,2.36-4.53,3.59-6.8,3.16-5.14-.98-7.75-10-5.82-20.16,1.93-10.15,7.67-17.59,12.81-16.61.13.02.26.06.39.09,1.3,7.32,1.66,14.51,1.18,20.95-.14,1.85-.5,6.66-1.76,12.57Z"/>
          <ellipse class="cls-7" cx="104.9" cy="67.41" rx="18.72" ry="11.24" transform="translate(19.1 157.89) rotate(-79.24)"/>
          <path class="cls-7" d="M123.16,39.86c.57.86-3.97,6.7-10.39,7.68-5.08.77-10.03-1.7-9.9-2.68.1-.82,3.73-.23,10.11-1.72,6.77-1.59,9.76-3.91,10.18-3.28Z"/>
          <path class="cls-7" d="M135.31,41.09c-.56.74,1.11,7.22,5.06,9.27,3.12,1.62,6.86.06,6.99-.91.11-.82-2.36-.86-6.17-3.42-4.04-2.71-5.47-5.49-5.88-4.94Z"/>
          <path class="cls-2" d="M96.87,99.55c5.56-3.97,8.6-3.95,10.37-3.13,2.69,1.25,3,4.64,5.45,4.86,2.59.24,3.79-3.44,6.08-3.05,2.48.42,2.37,4.96,4.92,5.57,2.98.71,6.01-4.85,7.57-4.08.56.28,1.02,1.41.22,5.56"/>
          <g>
            <path class="cls-8" d="M140.48,23.14c-1.53-1.21-3.22-2.28-5.11-3.2-4.7-2.28-9.56-3.09-14.3-3.03-8.74.1-17.05,3.17-23.13,5.41-8.18,3.02-39.25,14.48-43.35,40.37-3.47,21.83,13.78,44.28,35.4,55.12,2.68,1.45,6.7,3.33,11.85,4.61,5.05,1.26,8.54,1.29,8.55,1.71.03.84-11.7,4.57-23.27,2.04-21.99-4.82-28.5-29.05-44.35-28.18-4.37.24-7.69,2.28-9.45,3.57-1.43-1.14-7.95-6.57-8.71-15.32-.4-4.67,1.01-8.35,1.95-10.3-.31.02-6.98.38-7.3.39-2.43.13-4.86.26-7.3.39-3.28.18-6.57.35-9.85.53-1.77.1-2.81-1.97-1.65-3.32,4.73-5.55,10.81-13.01,17.51-22.15,5.35-7.29,7.17-10.2,11.54-15.99,3.47-4.59,14.63-19.37,23.63-25.93,19.35-14.16,62.22-14.85,84.39,9.71,1.05,1.17,2.03,2.35,2.93,3.57Z"/>
            <g class="cls-10">
              <path class="cls-9" d="M20.56,80.81c-.41-.74,5.21-5.58,12.53-7.82,5.18-1.58,10.62-1.68,10.8-.92.06.26-.49.74-14.27,5.79-8.27,3.03-8.94,3.18-9.06,2.95Z"/>
            </g>
          </g>
        </g>
      </g>
    </g>
  </g>
</svg>