<?xml version="1.0" encoding="UTF-8"?>
<svg xmlns="http://www.w3.org/2000/svg" xmlns:xlink="http://www.w3.org/1999/xlink" viewBox="0 0 195.47 447.35">
  <defs>
    <style>
      .cls-1 {
        fill: #5c8062;
      }

      .cls-2 {
        stroke: #fff;
        stroke-width: 1.03px;
      }

      .cls-2, .cls-3 {
        fill: none;
        stroke-linecap: round;
        stroke-miterlimit: 10;
      }

      .cls-4 {
        fill: #612a00;
      }

      .cls-5 {
        isolation: isolate;
      }

      .cls-6 {
        fill: #5e3615;
      }

      .cls-7 {
        fill: #fff;
      }

      .cls-8 {
        fill: #a1541c;
      }

      .cls-9 {
        mix-blend-mode: overlay;
        opacity: .45;
      }

      .cls-3 {
        stroke: #000;
        stroke-width: 17px;
      }

      .cls-10 {
        clip-path: url(#clippath);
      }
    </style>
    <clipPath id="clippath">
      <path class="cls-8" d="M138.45,20.17c-1.6-1.12-3.35-2.08-5.29-2.89-4.82-2-9.73-2.52-14.45-2.18-8.72.62-16.83,4.17-22.76,6.77-7.98,3.5-38.33,16.78-40.88,42.87-2.17,21.99,16.38,43.38,38.61,52.92,2.76,1.29,6.88,2.92,12.11,3.9,5.12.96,8.6.78,8.64,1.2.08.83-11.41,5.26-23.1,3.41-22.23-3.51-30.17-27.31-45.94-25.51-4.35.5-7.54,2.74-9.23,4.13-1.49-1.05-8.33-6.08-9.6-14.78-.68-4.64.51-8.39,1.34-10.4-.31.04-6.94.79-7.26.83-2.42.28-4.84.55-7.26.82-3.27.37-6.53.74-9.8,1.11-1.77.2-2.92-1.8-1.85-3.22,4.39-5.82,10.03-13.63,16.17-23.15,4.91-7.59,6.55-10.6,10.57-16.64,3.19-4.78,13.46-20.2,22.05-27.28,18.48-15.28,61.24-18.51,84.82,4.69,1.12,1.1,2.16,2.23,3.13,3.39Z"/>
    </clipPath>
  </defs>
  <g class="cls-5">
    <g id="Layer_2" data-name="Layer 2">
      <g id="step_3">
        <path id="R_leg" class="cls-6" d="M80.39,328.29c4.37-3.51,8.74-7.03,13.12-10.54,8.13-30.13,16.25-60.26,24.38-90.38-3.92-2.05-13.64-6.42-23.59-3.05-1.85.63-8.4,2.77-13.41,9.32-3.36,4.4-4.56,8.82-5.03,11.25-.81,22.7-1.63,45.39-2.44,68.09,2.33,5.1,4.66,10.2,6.98,15.31Z"/>
        <path id="R_foot" d="M59.45,424.54c3.56-18.78,4.21-34.74,7.13-55.19,2.78-19.42,5.02-38.24,6.82-56.38,6.7,1.59,13.4,3.18,20.1,4.77-3.98,30.17-5.1,42.5-5.95,56.04-1,15.96-6.35,44.4,3.5,55.65,15.12,17.26,43.27,14.47,43.07,16.03-.16,1.21-13.27,3.29-48.31.51-10.35-.82-15.39-11.91-26.36-21.43Z"/>
        <path id="L_arm" class="cls-3" d="M112.79,124.8c-1.32,10.75-2.69,27.41-1.39,47.74,1.64,25.68,3.31,51.69,15.87,56.34,14.02,5.19,30.02-20.54,47.69-14.04,5.95,2.19,9.71,7.16,12.02,11.23"/>
        <path id="L_leg" class="cls-6" d="M99.33,319.4c1.11-5.71,2.21-11.42,3.32-17.13-7.79-19.09-15.58-38.18-23.37-57.28-2.87-7.35-5.74-14.7-8.61-22.05-4.6.42-15.15,2.05-24.63,10.11-4.28,3.64-7.11,7.54-8.94,10.62,16.32,24.46,32.63,48.92,48.95,73.38,4.43.78,8.85,1.56,13.28,2.33Z"/>
        <path id="L_foot" d="M0,372.04c13.63-10.72,27.79-23.76,43.7-36.95,13.64-11.3,26.08-23.07,37.43-33.94,5.62,4.83,13.74,12.04,19.36,16.87-12.56,6.1-34.7,17.11-48.84,36.58-7.16,9.85-11.93,22.65-12.43,39.73-.69,23.68,3.38,44.3,2.06,45.26-1.28.93-.47-15.4-41.27-67.55Z"/>
        <path class="cls-1" d="M49.73,89.66c8.73-1.1,14.43,10.78,26.48,19.83,8.32,6.25,21.59,12.61,43.27,12.8-3.43,15.05-6.43,34.14-6.75,56.31-.3,20.69,1.81,38.7,4.49,53.19-6.79,4.9-22.25,14.64-44.23,16.59-16.74,1.49-30.13-2.17-37.67-4.87,2.66-16.21,5.31-32.42,7.97-48.63-3.8-23.78-7.6-47.56-11.4-71.33,1.46-6.6,2.92-13.21,4.39-19.81,2.75-6.11,7.13-13.28,13.46-14.08Z"/>
        <path id="R_arm" class="cls-3" d="M50.24,128.03c2.94,15.51,8.71,35.83,20.74,57.26,9.6,17.09,14.4,25.64,23.05,27.24,19.26,3.56,33.49-30.39,59.56-27.8,6.42.64,11.42,3.28,14.47,5.24"/>
        <g>
          <path class="cls-8" d="M114.38,116.95c-3.37,1.64,4.28,14.66,2.7,34.44-.69,8.66-2.68,12.8-1.31,21.73.96,6.28,3.02,11.24,4.63,14.47,3.25-9.13,16.61-48.65,1.36-65.9-.62-.7-5.15-5.82-7.38-4.74Z"/>
          <path class="cls-8" d="M115.07,119.36c4.7,6.99-6.11,23.72-14.09,32.89-11.95,13.73-20.52,14.16-33.12,27.22-9.54,9.88-14.79,20.17-17.63,26.82-8.53-3.49-17.05-6.97-25.58-10.46-1.81-11.82-2.93-27.29-.9-45.15,1.24-10.94,3.42-20.58,5.81-28.71,1.19-4.47,3.22-10.9,6.71-18.24,3.31-6.98,4.97-10.47,6.95-11.34,9.39-4.1,19,21.54,42.19,25.23,15.99,2.54,26.04-3.65,29.66,1.73Z"/>
          <path class="cls-9" d="M33.74,112.43c1.66,1.79,7.22-3.17,15.08-2.68,6.38.39,9.08,4.05,16.12,8.82,4.52,3.06,25.46,16.7,42.41,10.53,4.11-1.5,7.09-3.69,8.86-5.19-2.68-4.3-13.56-20.63-35.39-27.27-18.99-5.78-34.91-.77-40.13,1.13-7.56,10.52-7.88,13.66-6.95,14.67Z"/>
        </g>
        <g>
          <path class="cls-4" d="M147.85,111.96c-11.24,9.86-25.5,10.74-28.45,10.86h0c-8.5.35-17.37-1.56-25.73-5.15-22.23-9.54-40.77-30.93-38.61-52.92,2.55-26.09,32.9-39.37,40.88-42.87,4.45-1.95,10.13-4.43,16.37-5.81.51-.11,1.03-.22,1.54-.32.01,0,.03,0,.04-.01.44-.08.89-.16,1.34-.23.07,0,.15-.03.24-.04.53-.08,1.07-.15,1.61-.21.53-.06,1.07-.11,1.62-.15,4.72-.35,9.63.17,14.45,2.18,1.94.8,3.69,1.77,5.29,2.89,9.31,6.44,13.28,17.45,16.57,26.56,2.41,6.7,16.15,44.76-7.17,65.22Z"/>
          <path d="M149.73,84.65c-1.66,11-6.11,25.87-18.22,33.26-3.54,2.16-7.6,3.61-12.03,4.39h0c-6.79.7-18.24.87-30.46-4.41-21.34-9.23-40.69-33.22-37.14-57.82,4.47-30.98,39.3-43.84,45.07-45.94,7.67-2.8,14.53-3.82,19.49-4.21,3.9.83,9.45,2.59,14.78,6.65,10.78,8.23,13.78,20.71,17.11,34.59,0,0,2.57,10.53,2.42,20.84-.03,1.85-.11,6.68-1.01,12.65Z"/>
          <path class="cls-7" d="M149.73,84.65c-1.98,2.49-4.31,3.85-6.6,3.55-5.19-.67-8.33-9.53-7-19.78,1.32-10.24,6.61-18.01,11.8-17.34.13.02.27.04.39.07,1.73,7.23,2.52,14.39,2.42,20.84-.03,1.85-.11,6.68-1.01,12.65Z"/>
          <ellipse class="cls-7" cx="105.56" cy="66.47" rx="18.72" ry="11.24" transform="translate(26.11 162.64) rotate(-82.64)"/>
          <path class="cls-7" d="M122.15,37.89c.62.83-3.57,6.93-9.92,8.28-5.02,1.07-10.11-1.1-10.04-2.09.06-.83,3.71-.45,9.99-2.32,6.66-1.98,9.52-4.48,9.97-3.87Z"/>
          <path class="cls-7" d="M134.35,38.4c-.51.78,1.54,7.14,5.6,8.96,3.21,1.43,6.85-.34,6.93-1.33.06-.82-2.41-.72-6.36-3.04-4.19-2.46-5.79-5.15-6.16-4.58Z"/>
          <path class="cls-2" d="M99.44,99.03c5.32-4.29,8.35-4.45,10.16-3.74,2.76,1.09,3.27,4.45,5.73,4.53,2.6.08,3.58-3.66,5.89-3.41,2.5.27,2.66,4.81,5.24,5.26,3.02.53,5.72-5.2,7.32-4.53.58.24,1.1,1.35.55,5.54"/>
          <g>
            <path class="cls-8" d="M138.45,20.17c-1.6-1.12-3.35-2.08-5.29-2.89-4.82-2-9.73-2.52-14.45-2.18-8.72.62-16.83,4.17-22.76,6.77-7.98,3.5-38.33,16.78-40.88,42.87-2.17,21.99,16.38,43.38,38.61,52.92,2.76,1.29,6.88,2.92,12.11,3.9,5.12.96,8.6.78,8.64,1.2.08.83-11.41,5.26-23.1,3.41-22.23-3.51-30.17-27.31-45.94-25.51-4.35.5-7.54,2.74-9.23,4.13-1.49-1.05-8.33-6.08-9.6-14.78-.68-4.64.51-8.39,1.34-10.4-.31.04-6.94.79-7.26.83-2.42.28-4.84.55-7.26.82-3.27.37-6.53.74-9.8,1.11-1.77.2-2.92-1.8-1.85-3.22,4.39-5.82,10.03-13.63,16.17-23.15,4.91-7.59,6.55-10.6,10.57-16.64,3.19-4.78,13.46-20.2,22.05-27.28,18.48-15.28,61.24-18.51,84.82,4.69,1.12,1.1,2.16,2.23,3.13,3.39Z"/>
            <g class="cls-10">
              <path class="cls-9" d="M22.16,84.84c-.45-.72,4.87-5.88,12.05-8.54,5.07-1.88,10.51-2.31,10.72-1.56.07.26-.44.76-13.9,6.62-8.07,3.51-8.73,3.7-8.87,3.48Z"/>
            </g>
          </g>
        </g>
      </g>
    </g>
  </g>
</svg>