<?xml version="1.0" encoding="UTF-8"?>
<svg id="Layer_2" data-name="Layer 2" xmlns="http://www.w3.org/2000/svg" xmlns:xlink="http://www.w3.org/1999/xlink" viewBox="0 0 197.57 451.7">
  <defs>
    <style>
      .cls-1 {
        fill: none;
      }

      .cls-2 {
        fill: #5c8062;
      }

      .cls-3 {
        fill: #612a00;
      }

      .cls-4 {
        fill: #772e0f;
      }

      .cls-5 {
        fill: #5e3615;
      }

      .cls-6 {
        fill: #fff;
      }

      .cls-7 {
        fill: #a1541c;
      }

      .cls-8 {
        fill: #8c8c8c;
      }

      .cls-9 {
        clip-path: url(#clippath);
      }
    </style>
    <clipPath id="clippath">
      <path class="cls-1" d="M135.69,19.04c-1.63-1.08-3.4-2-5.36-2.76-4.87-1.89-9.78-2.29-14.5-1.83-8.7.82-16.73,4.57-22.6,7.3-7.9,3.69-37.92,17.68-39.86,43.82-1.65,22.04,17.4,42.98,39.85,52,2.79,1.22,6.95,2.76,12.19,3.62,5.14.84,8.61.58,8.66,1,.1.83-11.28,5.53-23.02,3.96-22.31-2.99-30.8-26.59-46.53-24.42-4.33.6-7.47,2.91-9.13,4.34-1.52-1.02-8.47-5.89-9.94-14.55-.79-4.62.31-8.4,1.09-10.43-.31.04-6.92.95-7.24,1-2.41.33-4.83.66-7.24,1-3.26.45-6.51.9-9.77,1.34-1.76.24-2.96-1.73-1.92-3.18,4.25-5.92,9.7-13.86,15.62-23.52,4.73-7.7,6.3-10.76,10.17-16.89,3.08-4.86,12.98-20.51,21.4-27.8,18.11-15.71,60.78-19.95,84.9,2.69,1.14,1.07,2.21,2.18,3.21,3.31"/>
    </clipPath>
  </defs>
  <g id="step_1_8" data-name="step_1&amp;amp;8">
    <g>
      <path d="M104.06,123.41c-.66,6.67-1.29,15.53-1.29,26.06,0,7.06.28,14.87,1.02,23.28.56,6.41,1.13,12.92,1.88,19.21.56,4.72,1.23,9.31,2.08,13.68.64,3.28,1.39,6.42,2.31,9.42,1.39,4.48,3.12,8.64,5.7,12.34,1.29,1.84,2.81,3.57,4.63,5.06,1.82,1.49,3.95,2.73,6.3,3.53,2.13.73,4.34,1.07,6.43,1.07,2.47,0,4.79-.44,6.9-1.09,3.71-1.15,6.88-2.91,9.85-4.72,2.23-1.37,4.34-2.79,6.38-4.13,3.05-2.01,5.93-3.82,8.5-5.01,1.28-.6,2.47-1.04,3.55-1.33,1.08-.29,2.04-.41,2.93-.41.95,0,1.82.14,2.8.47.79.27,1.52.63,2.23,1.09,1.06.69,2.08,1.61,3.02,2.69.93,1.07,1.77,2.29,2.48,3.48,2.41,4.03,7.63,5.34,11.66,2.93,4.03-2.41,5.34-7.63,2.93-11.66-1.46-2.43-3.41-5.25-6.13-7.92-1.36-1.33-2.92-2.63-4.7-3.78-1.78-1.16-3.78-2.17-6-2.93-2.77-.95-5.59-1.38-8.29-1.38-2.6,0-5.07.39-7.38,1.01-4.04,1.09-7.58,2.84-10.8,4.69-2.41,1.4-4.65,2.86-6.75,4.25-3.14,2.08-5.98,3.95-8.31,5.14-1.16.6-2.19,1.02-3.01,1.27-.83.25-1.43.33-1.86.33-.37,0-.61-.05-.91-.15-.38-.14-.75-.33-1.29-.82-.46-.42-1.02-1.08-1.61-2.01-1.04-1.63-2.12-4.11-3.06-7.22-1.42-4.66-2.52-10.67-3.38-17.32-.86-6.65-1.51-13.93-2.15-21.29-.69-7.87-.95-15.19-.95-21.8,0-9.86.58-18.15,1.2-24.38.46-4.67-2.95-8.83-7.62-9.3-4.67-.46-8.83,2.95-9.3,7.62"/>
      <path class="cls-5" d="M159.66,317.25c.27-5.81.54-11.62.81-17.43-10.46-17.77-20.93-35.53-31.39-53.3-3.9-6.86-7.81-13.72-11.71-20.57-10.76-4.28-22.34-1.08-27.85,6.9-5.4,7.82-2.79,17.08-2.37,18.47,19.68,21.85,39.36,43.7,59.04,65.54,4.49.13,8.99.26,13.48.39Z"/>
      <path d="M99.86,411.79c8.1-16.06,16.2-33.69,23.93-52.85,6.63-16.43,12.27-32.21,17.09-47.17,7.24,1.58,14.48,3.16,21.73,4.74-8.15,11.34-18.44,29.47-21.63,53.32-1.62,12.07-3.7,27.67,3.98,42.94,10.65,21.16,33.3,28.21,32.6,29.68-.68,1.42-17.01-4.15-77.7-30.66Z"/>
      <path class="cls-5" d="M64.06,333.35c3.26-4.56,6.52-9.13,9.78-13.69-.32-31.2-.65-62.41-.97-93.61-4.33-.91-14.87-2.49-23.54,3.45-1.61,1.11-7.34,4.93-10.39,12.6-2.05,5.14-2,9.72-1.8,12.19l16.06,66.22c3.62,4.28,7.24,8.56,10.86,12.85Z"/>
      <path d="M23.2,422.42c5.96-18.16,8.67-33.9,14.22-53.8,5.27-18.9,9.93-37.26,14.06-55.02,6.44,2.44,15.97,6.38,22.41,8.82-9.57,27.17-13.66,40-16.25,53.31-3.06,15.7-8.28,42.59.02,55.01,12.75,19.07,43.29,17.7,42.89,19.21-.31,1.18-18.75,1.29-53.63,1.74-7.82-7.02-11.3-13.61-23.72-29.27Z"/>
      <path class="cls-2" d="M48.64,90.61c8.7-1.31,14.68,10.44,26.94,19.2,8.46,6.05,21.89,12.09,43.56,11.78-3.07,15.13-5.62,34.28-5.42,56.45.19,20.69,2.73,38.65,5.75,53.06-6.67,5.06-21.89,15.16-43.82,17.63-16.7,1.88-30.18-1.46-37.77-3.98l6.82-48.8c-4.36-23.68-8.72-47.36-13.09-71.04,1.31-6.64,2.61-13.27,3.92-19.91,2.61-6.18,6.81-13.45,13.12-14.39"/>
      <path d="M41.75,130.73c3.45,16.1,9.97,37.2,23.09,59.32,2.5,4.22,4.72,7.95,6.82,11.29,1.58,2.5,3.1,4.78,4.66,6.87,2.34,3.12,4.78,5.87,7.77,8.12,1.49,1.12,3.13,2.1,4.88,2.86,1.75.76,3.62,1.3,5.51,1.61,1.28.21,2.57.31,3.83.31,3.39,0,6.59-.73,9.46-1.84,2.52-.98,4.81-2.24,6.95-3.63,3.75-2.44,7.08-5.29,10.31-8.11,2.42-2.12,4.77-4.23,7.1-6.17,3.49-2.92,6.93-5.43,10.29-7.12,1.68-.85,3.34-1.49,5-1.93,1.67-.44,3.34-.67,5.12-.67.5,0,1.01.02,1.53.06,2.28.17,4.35.71,6.19,1.4,1.83.69,3.4,1.53,4.62,2.28,4.01,2.44,9.24,1.17,11.68-2.84s1.17-9.24-2.84-11.68c-1.87-1.14-4.39-2.5-7.47-3.67-3.08-1.16-6.75-2.13-10.9-2.44-.94-.07-1.88-.11-2.81-.11-3.84,0-7.49.61-10.86,1.63-5.92,1.8-10.96,4.82-15.4,8.06-3.33,2.44-6.34,5.04-9.15,7.5-2.1,1.85-4.09,3.62-5.96,5.2-2.81,2.37-5.39,4.29-7.57,5.47-1.09.59-2.07,1-2.94,1.25-.87.25-1.62.36-2.35.36-.37,0-.74-.03-1.14-.09-.49-.08-.88-.19-1.28-.35-.68-.28-1.42-.71-2.42-1.59-1.48-1.3-3.42-3.66-5.73-7.14-2.32-3.47-5.02-8.01-8.3-13.54-11.96-20.16-17.93-39.42-21.09-54.2-.98-4.59-5.5-7.52-10.09-6.53s-7.52,5.5-6.53,10.09Z"/>
      <path class="cls-7" d="M113.92,116.37c-3.33,1.72,4.62,14.55,3.52,34.36-.48,8.68-2.38,12.86-.8,21.76,1.11,6.26,3.29,11.16,4.97,14.35,3.04-9.21,15.46-49.03-.2-65.91-.63-.68-5.29-5.7-7.49-4.57"/>
      <path class="cls-7" d="M114.67,118.76c4.86,6.88-5.55,23.86-13.31,33.22-11.62,14-20.18,14.64-32.47,27.99-9.3,10.11-14.31,20.52-16.99,27.23-8.61-3.28-17.21-6.57-25.82-9.85-2.09-11.77-3.58-27.21-1.97-45.11.99-10.97,2.94-20.65,5.13-28.84,1.09-4.5,2.97-10.97,6.28-18.4,3.15-7.06,4.72-10.59,6.68-11.5,9.29-4.32,19.51,21.09,42.78,24.23,6.79.92,12.48.29,17.07-.33,6.26-.85,10.47-1.7,12.62,1.35"/>
      <path class="cls-8" d="M63.12,94.55c-.11,0-.22,0-.33,0,7.41,9.97,18.44,18.2,30.43,23.01.42.18.87.38,1.35.57,2.75-.13,5.24-.43,7.46-.73,2.58-.35,4.81-.7,6.7-.78.51-.25,1.04-.45,1.59-.6-5.77-6.49-15.7-15.08-30.45-19.19-5.99-1.67-11.65-2.29-16.76-2.29"/>
      <path d="M110.33,116.03c-.55.15-1.09.35-1.59.6.25,0,.49-.02.72-.02.51,0,1,.03,1.46.08-.19-.22-.39-.44-.59-.67"/>
      <path class="cls-8" d="M34.09,108.36c-.53,1.12-.88,2.03-1.07,2.75.34-.9.69-1.82,1.07-2.75"/>
      <path class="cls-4" d="M46.56,101.58c-.66,0-1.34.05-2.03.14-4.33.6-7.47,2.91-9.13,4.34-.03-.02-.06-.04-.09-.06-.49.88-.9,1.66-1.23,2.36-.38.94-.74,1.86-1.07,2.75-.4,1.47-.21,2.23.18,2.63.25.26.58.37.99.37,1.14,0,2.89-.85,5.14-1.71,2.25-.85,5.02-1.71,8.2-1.71.22,0,.45,0,.67.01,6.38.24,9.18,3.84,16.32,8.43,3.7,2.38,18.17,11.34,32.43,11.34,3.47,0,6.93-.53,10.22-1.82,4.08-1.59,7-3.86,8.74-5.4-.85-1.29-2.49-3.69-4.99-6.57-.46-.06-.94-.08-1.46-.08-.23,0-.47,0-.72.02-1.88.08-4.12.43-6.7.78-2.23.3-4.72.6-7.46.73,2.72,1.1,6.39,2.32,10.84,3.04,5.14.84,8.61.58,8.66,1,.09.71-8.29,4.28-18.09,4.28-1.62,0-3.27-.1-4.93-.32-21.33-2.85-30.03-24.56-44.5-24.56"/>
      <path class="cls-3" d="M147.26,110.58c-11,10.12-25.24,11.34-28.18,11.53h0c-8.48.56-17.41-1.15-25.85-4.55-22.45-9.01-41.49-29.96-39.85-52,1.94-26.14,31.96-40.14,39.86-43.82,4.4-2.05,10.02-4.67,16.23-6.2.51-.12,1.02-.25,1.54-.35h.04c.44-.11.88-.19,1.33-.28l.24-.04c.53-.09,1.06-.18,1.61-.25.53-.08,1.07-.13,1.62-.19,4.71-.46,9.63-.05,14.5,1.83,1.96.76,3.73,1.68,5.36,2.76,9.46,6.21,13.69,17.13,17.2,26.16,2.57,6.64,17.2,44.37-5.62,65.37Z"/>
      <path d="M148.49,83.23c-1.4,11.03-5.49,26.01-17.43,33.68-3.48,2.25-7.52,3.78-11.93,4.68h0c-6.77.86-18.22,1.3-30.55-3.69-21.55-8.72-41.46-32.25-38.49-56.93,3.73-31.07,38.25-44.75,43.97-46.99,7.6-2.98,14.43-4.16,19.38-4.67,3.92.74,9.51,2.36,14.93,6.3,10.97,7.97,14.27,20.38,17.93,34.18,0,0,2.82,10.47,2.91,20.78.02,1.85.05,6.68-.71,12.68Z"/>
      <path class="cls-6" d="M148.49,83.23c-1.93,2.53-4.22,3.95-6.51,3.71-5.2-.55-8.55-9.33-7.47-19.61,1.08-10.27,6.19-18.16,11.39-17.61.13.01.27.04.4.06,1.9,7.19,2.86,14.33,2.91,20.78.02,1.85.05,6.68-.71,12.68Z"/>
      <ellipse class="cls-6" cx="103.9" cy="66.11" rx="18.72" ry="11.24" transform="translate(27.28 162.52) rotate(-83.99)"/>
      <path class="cls-6" d="M119.82,37.14c.64.81-3.4,7.01-9.72,8.51-5,1.19-10.13-.86-10.09-1.85.04-.83,3.7-.54,9.93-2.56,6.62-2.14,9.41-4.7,9.88-4.11Z"/>
      <path class="cls-6" d="M132.03,37.36c-.5.79,1.71,7.1,5.81,8.82,3.24,1.36,6.84-.51,6.89-1.49.04-.83-2.43-.66-6.43-2.89-4.25-2.36-5.91-5.02-6.27-4.44Z"/>
      <path class="cls-6" d="M98.89,99.2c3.84-3.25,6.42-4.14,8.1-4.14.58,0,1.05.1,1.46.25,1.22.45,2.01,1.43,2.82,2.42.41.49.82.97,1.33,1.35.5.38,1.13.65,1.86.65h.03c.76,0,1.4-.27,1.93-.65.8-.56,1.39-1.34,1.98-1.93.29-.3.58-.55.85-.71.28-.17.54-.25.85-.25h.13c.47.05.82.27,1.19.68.55.6,1.03,1.59,1.61,2.49.29.45.62.89,1.02,1.25.41.36.91.63,1.5.72.14.02.28.03.42.03.84,0,1.59-.36,2.26-.84,1.01-.73,1.89-1.76,2.66-2.58.38-.41.74-.78,1.04-1.02.3-.25.55-.34.64-.33h.07s.15.08.29.43c.13.35.23.97.23,1.95,0,.69-.05,1.55-.17,2.62-.03.28.17.54.46.57s.54-.17.57-.46c.12-1.1.17-2,.17-2.73,0-1.05-.1-1.77-.29-2.3-.18-.52-.5-.88-.88-1.03-.14-.06-.3-.08-.45-.08-.33,0-.62.12-.88.28-.46.28-.89.71-1.35,1.19-.68.72-1.41,1.57-2.17,2.23-.76.66-1.51,1.08-2.2,1.08l-.27-.02c-.5-.08-.88-.34-1.27-.77-.57-.64-1.05-1.63-1.62-2.52-.29-.45-.61-.87-1.01-1.21-.4-.34-.9-.59-1.49-.64h-.22c-.69-.01-1.28.28-1.76.65-.72.56-1.29,1.32-1.9,1.91-.61.59-1.2.98-1.95.98h-.02c-.49,0-.87-.16-1.25-.45-.58-.42-1.12-1.17-1.78-1.93-.66-.76-1.46-1.55-2.63-1.98-.52-.19-1.12-.31-1.82-.31-2.05,0-4.83,1.05-8.76,4.38-.22.18-.24.51-.06.73.18.22.51.24.73.06Z"/>
      <path class="cls-7" d="M135.69,19.04c-1.63-1.08-3.4-2-5.36-2.76-4.87-1.89-9.78-2.29-14.5-1.83-8.7.82-16.73,4.57-22.6,7.3-7.9,3.69-37.92,17.68-39.86,43.82-1.65,22.04,17.4,42.98,39.85,52,2.79,1.22,6.95,2.76,12.19,3.62,5.14.84,8.61.58,8.66,1,.1.83-11.28,5.53-23.02,3.96-22.31-2.99-30.8-26.59-46.53-24.42-4.33.6-7.47,2.91-9.13,4.34-1.52-1.02-8.47-5.89-9.94-14.55-.79-4.62.31-8.4,1.09-10.43-.31.04-6.92.95-7.24,1-2.41.33-4.83.66-7.24,1-3.26.45-6.51.9-9.77,1.34-1.76.24-2.96-1.73-1.92-3.18,4.25-5.92,9.7-13.86,15.62-23.52,4.73-7.7,6.3-10.76,10.17-16.89,3.08-4.86,12.98-20.51,21.4-27.8,18.11-15.71,60.78-19.95,84.9,2.69,1.14,1.07,2.21,2.18,3.21,3.31"/>
      <g class="cls-9">
        <path class="cls-4" d="M42.17,75.49c-1.95,0-5.76.69-9.37,2.13-2.45.97-4.67,2.24-6.51,3.51.14-.02.23-.03.26-.04h0c-.34.89-.75,2.11-1.03,3.6,1.11-.5,2.49-1.14,4.21-1.94,13.32-6.17,13.82-6.69,13.74-6.95-.07-.21-.54-.32-1.31-.32"/>
      </g>
    </g>
  </g>
</svg>