<?xml version="1.0" encoding="UTF-8"?>
<svg id="Layer_2" data-name="Layer 2" xmlns="http://www.w3.org/2000/svg" xmlns:xlink="http://www.w3.org/1999/xlink" viewBox="0 0 178.98 451.36">
  <defs>
    <style>
      .cls-1 {
        fill: none;
      }

      .cls-2 {
        fill: #5c8062;
      }

      .cls-3 {
        fill: #612a00;
      }

      .cls-4 {
        fill: #772e0f;
      }

      .cls-5 {
        fill: #5e3615;
      }

      .cls-6 {
        fill: #fff;
      }

      .cls-7 {
        fill: #a1541c;
      }

      .cls-8 {
        fill: #8c8c8c;
      }

      .cls-9 {
        clip-path: url(#clippath);
      }
    </style>
    <clipPath id="clippath">
      <path class="cls-1" d="M142.41,25.21c-1.48-1.27-3.13-2.4-4.98-3.39-4.6-2.47-9.43-3.47-14.17-3.59-8.74-.24-17.16,2.5-23.32,4.5-8.29,2.7-39.79,12.93-44.89,38.65-4.32,21.68,12.04,44.78,33.22,56.46,2.62,1.55,6.56,3.59,11.66,5.07,5,1.46,8.48,1.62,8.48,2.05,0,.84-11.87,4.11-23.33,1.13-21.78-5.68-27.34-30.14-43.22-29.9-4.37.07-7.77,1.98-9.59,3.2-1.38-1.19-7.69-6.87-8.1-15.65-.22-4.69,1.33-8.3,2.36-10.22-.31,0-6.99.1-7.31.11-2.44.04-4.87.07-7.31.11-3.29.05-6.58.1-9.86.14-1.78.03-2.73-2.08-1.52-3.39,4.94-5.36,11.32-12.58,18.37-21.45,5.63-7.07,7.56-9.91,12.15-15.52,3.64-4.45,15.38-18.78,24.62-24.99,19.89-13.39,62.76-12.4,83.95,13,1,1.21,1.93,2.43,2.78,3.68"/>
    </clipPath>
  </defs>
  <g id="step_4">
    <g>
      <path class="cls-5" d="M60.22,332.3c4.37-3.51,8.74-7.03,13.12-10.54,8.13-30.13,16.25-60.26,24.38-90.38-3.92-2.05-13.64-6.42-23.59-3.05-1.85.63-8.4,2.77-13.41,9.32-3.36,4.4-4.56,8.82-5.03,11.25-.81,22.7-1.63,45.39-2.44,68.09,2.33,5.1,4.66,10.2,6.98,15.31Z"/>
      <path d="M39.28,428.56c3.56-18.78,4.21-34.74,7.13-55.19,2.78-19.42,5.02-38.24,6.82-56.38,6.7,1.59,13.4,3.18,20.1,4.77-3.98,30.17-5.1,42.5-5.95,56.04-1,15.96-6.35,44.4,3.5,55.65,15.12,17.26,43.27,14.47,43.07,16.03-.16,1.21-13.27,3.29-48.31.51-10.35-.82-15.39-11.91-26.36-21.43Z"/>
      <path d="M98.31,124.95c-2.45,10.92-5.55,27.92-6.27,48.95-.23,6.75-.47,13.61-.47,20.24,0,4.66.12,9.2.45,13.55.25,3.26.63,6.41,1.18,9.42.85,4.52,2.07,8.77,4.18,12.68,1.06,1.95,2.35,3.81,3.96,5.48,1.61,1.66,3.54,3.12,5.74,4.19,1.44.7,2.95,1.21,4.44,1.54,1.5.32,2.99.46,4.42.46,2.14,0,4.16-.3,6.06-.75,3.32-.8,6.31-2.04,9.15-3.35,4.25-1.97,8.21-4.14,11.81-5.67,1.79-.77,3.48-1.39,5-1.79,1.52-.4,2.86-.59,4.02-.59,1.45.01,2.61.25,3.94.88.75.36,1.43.81,2.08,1.36.97.81,1.87,1.86,2.67,3.04.8,1.18,1.48,2.49,2.04,3.75,1.9,4.29,6.92,6.23,11.21,4.33,4.29-1.9,6.23-6.92,4.33-11.21-1.15-2.59-2.75-5.62-5.12-8.61-1.19-1.49-2.58-2.96-4.2-4.33-1.62-1.36-3.49-2.62-5.6-3.63-3.72-1.81-7.67-2.59-11.34-2.58-2.26,0-4.42.27-6.48.71-3.6.76-6.87,2-9.91,3.34-4.54,2.01-8.62,4.24-12.09,5.81-1.73.79-3.29,1.4-4.59,1.78-1.3.39-2.32.53-2.99.53-.35,0-.61-.03-.83-.08-.22-.05-.4-.11-.6-.21-.27-.13-.52-.3-.83-.6-.53-.51-1.25-1.49-1.94-3.11-1.05-2.41-1.93-6.16-2.44-10.7-.53-4.55-.72-9.89-.72-15.62,0-6.22.23-12.91.46-19.66.68-19.69,3.57-35.6,5.87-45.81,1.03-4.58-1.85-9.13-6.43-10.16-4.58-1.03-9.13,1.85-10.16,6.43"/>
      <path class="cls-5" d="M99.72,296.3c-.33-5.81-.67-11.61-1-17.42-12.25-16.58-24.51-33.17-36.76-49.75-4.59-6.42-9.19-12.83-13.78-19.25-4.35,1.54-14.18,5.72-21.38,15.87-3.25,4.58-5.03,9.06-6.05,12.5,21.84,19.69,43.68,39.37,65.52,59.06,4.48-.34,8.97-.67,13.45-1.01Z"/>
      <path d="M86.21,402.6c-.03-17.34-1.56-36.53-2.12-57.19-.48-17.71-2.07-34.76-3.63-50.4,7.27-1.44,15.99-3.39,23.26-4.83-.89,15.26-3.27,36.32,3.33,59.46,3.34,11.71,4.48,31.78,19.36,40.18,22.59,12.76,33.11,26.98,33.05,28.61-.06,1.58-7.04-15.77-73.26-15.84Z"/>
      <path class="cls-2" d="M47.3,85.65c8.8-.24,13.3,12.14,24.4,22.34,7.66,7.04,20.25,14.67,41.8,16.99-4.89,14.64-9.75,33.34-12.24,55.37-2.33,20.56-2,38.69-.75,53.37-7.24,4.21-23.58,12.38-45.64,12.17-16.8-.17-29.77-5.12-37.01-8.54,4.23-15.87,8.47-31.74,12.7-47.61-1.45-24.04-2.9-48.07-4.34-72.11,2.1-6.43,4.21-12.85,6.31-19.28,3.34-5.81,8.4-12.52,14.78-12.69"/>
      <path d="M35.57,124.64c1.46,16.4,5.37,38.13,15.7,61.68,1.97,4.49,3.71,8.47,5.4,12.04,1.27,2.68,2.5,5.12,3.79,7.38,1.94,3.38,4.03,6.41,6.73,9,1.35,1.29,2.85,2.46,4.5,3.43,1.65.97,3.43,1.73,5.28,2.27,2.24.65,4.53.95,6.73.95,3.01,0,5.87-.55,8.5-1.39,4.62-1.48,8.65-3.79,12.49-6.23,2.87-1.84,5.63-3.77,8.34-5.61,4.06-2.77,8.01-5.3,11.81-7.04,1.9-.87,3.75-1.56,5.55-2.01,1.81-.46,3.57-.7,5.36-.7,1.27,0,2.56.12,3.9.39,2.24.45,4.24,1.23,5.97,2.14,1.73.91,3.19,1.93,4.31,2.82,3.68,2.91,9.03,2.29,11.94-1.39s2.29-9.03-1.39-11.94c-1.72-1.36-4.05-3.02-6.97-4.55-2.92-1.53-6.44-2.94-10.53-3.75-2.45-.49-4.88-.72-7.24-.72-3.39,0-6.63.47-9.68,1.26-5.34,1.38-10.09,3.68-14.39,6.18-3.23,1.88-6.21,3.89-9.02,5.8-4.19,2.87-8,5.52-11.28,7.25-1.63.87-3.12,1.52-4.4,1.92-1.29.4-2.36.57-3.29.57-.7,0-1.33-.09-2.02-.28-.47-.14-.85-.3-1.23-.5-.64-.36-1.32-.88-2.2-1.87-1.31-1.47-2.95-4.05-4.82-7.79-1.88-3.73-4.01-8.56-6.59-14.45-9.42-21.47-13-41.31-14.34-56.36-.42-4.68-4.54-8.13-9.22-7.71s-8.13,4.54-7.71,9.22Z"/>
      <path class="cls-7" d="M108.95,119.16c-3.52,1.3,2.82,15.01-.69,34.54-1.54,8.55-3.93,12.48-3.44,21.5.34,6.35,1.91,11.48,3.19,14.85,4.13-8.77,21.31-46.78,7.82-65.44-.55-.76-4.55-6.3-6.88-5.44"/>
      <path class="cls-7" d="M109.41,121.63c3.99,7.42-8.41,23.01-17.25,31.35-13.24,12.49-21.81,12.08-35.63,23.84-10.46,8.9-16.7,18.62-20.18,24.96-8.14-4.31-16.29-8.61-24.43-12.92-.64-11.94-.24-27.44,3.54-45.02,2.31-10.76,5.43-20.14,8.6-28,1.63-4.33,4.28-10.53,8.47-17.5,3.98-6.62,5.98-9.93,8.03-10.6,9.74-3.16,16.79,23.3,39.51,29.25,7.21,1.89,13.35,1.81,18.17,1.73,5.66-.09,9.51-.18,11.17,2.9"/>
      <path class="cls-8" d="M30.7,101.5c-.67,1.05-1.12,1.91-1.4,2.61.44-.85.91-1.72,1.4-2.61M60.87,91.29c6.14,10.8,16.08,20.3,27.4,26.54.4.23.82.48,1.27.73,2.02.15,3.91.2,5.67.2,1.06,0,2.07-.02,3.02-.03.96-.02,1.86-.03,2.71-.03,1.02,0,1.97.02,2.84.09.53-.19,1.08-.32,1.65-.4-4.94-7.14-13.75-16.88-27.89-22.75-5.86-2.44-11.52-3.74-16.68-4.35"/>
      <path d="M105.44,118.39c-.57.08-1.12.21-1.65.4.78.06,1.5.17,2.15.33-.16-.24-.33-.49-.5-.73"/>
      <path class="cls-4" d="M42.1,96.18c-.08,0-.16,0-.23,0-4.37.07-7.77,1.98-9.59,3.2-.03-.02-.05-.04-.08-.07-.59.81-1.09,1.54-1.51,2.19-.49.89-.96,1.76-1.4,2.61-.58,1.41-.48,2.19-.14,2.63.28.36.71.5,1.28.5,1.05,0,2.58-.48,4.46-.96,1.88-.48,4.13-.96,6.62-.96.94,0,1.91.07,2.91.23,6.31,1.02,8.64,4.93,15.17,10.36,3.68,3.06,19.11,15.44,34.63,15.44,2.19,0,4.38-.25,6.54-.8,4.24-1.09,7.42-2.98,9.33-4.3-.69-1.39-2.02-3.97-4.15-7.13-.65-.16-1.37-.27-2.15-.33-.87-.07-1.81-.09-2.84-.09-.85,0-1.76.02-2.71.03-.96.02-1.97.03-3.02.03-1.75,0-3.65-.04-5.67-.2,2.56,1.42,6.06,3.08,10.39,4.34,5,1.46,8.48,1.62,8.48,2.05,0,.59-5.79,2.36-13.18,2.36-3.2,0-6.69-.33-10.15-1.23-21.67-5.65-27.28-29.9-42.98-29.9"/>
      <path class="cls-3" d="M142.76,117.47c-12.15,8.71-26.43,8.18-29.38,8.02h0c-8.49-.48-17.14-3.26-25.1-7.66-21.19-11.68-37.54-34.78-33.22-56.46,5.1-25.71,36.6-35.95,44.89-38.65,4.62-1.5,10.52-3.41,16.86-4.17.52-.06,1.04-.12,1.57-.16h.04c.45-.05.9-.08,1.36-.11h.24c.54-.04,1.08-.06,1.62-.07.54,0,1.08,0,1.63.01,4.73.12,9.56,1.12,14.17,3.59,1.85.99,3.5,2.13,4.98,3.39,8.63,7.32,11.5,18.67,13.88,28.06,1.74,6.9,11.67,46.13-13.54,64.2Z"/>
      <path d="M147.3,90.48c-2.74,10.78-8.62,25.15-21.4,31.31-3.73,1.81-7.92,2.84-12.41,3.19h0c-6.83.03-18.24-.93-29.87-7.38-20.33-11.28-37.23-37.06-31.28-61.19,7.49-30.39,43.42-39.77,49.36-41.29,7.91-2.03,14.83-2.38,19.81-2.28,3.8,1.21,9.15,3.5,14.05,8.07,9.92,9.25,11.68,21.96,13.63,36.11,0,0,1.53,10.74.36,20.98-.21,1.84-.76,6.64-2.25,12.49Z"/>
      <path class="cls-6" d="M147.3,90.48c-2.22,2.28-4.67,3.41-6.92,2.89-5.1-1.18-7.35-10.3-5.03-20.37,2.32-10.07,8.35-17.27,13.45-16.1.13.03.26.07.39.11,1.01,7.37,1.09,14.57.36,20.98-.21,1.84-.76,6.64-2.25,12.49Z"/>
      <ellipse class="cls-6" cx="105.13" cy="68.05" rx="18.72" ry="11.24" transform="translate(15.17 155.18) rotate(-77)"/>
      <path class="cls-6" d="M124.45,41.24c.54.89-4.23,6.54-10.69,7.27-5.1.57-9.95-2.09-9.79-3.06.14-.82,3.74-.08,10.17-1.33,6.83-1.32,9.91-3.52,10.3-2.87Z"/>
      <path class="cls-6" d="M136.54,42.95c-.59.72.83,7.26,4.69,9.46,3.05,1.74,6.85.33,7.02-.64.14-.81-2.33-.96-6.03-3.65-3.93-2.86-5.25-5.7-5.68-5.17Z"/>
      <path class="cls-6" d="M96.13,100.29c3.7-2.43,6.21-3.16,7.89-3.16.88,0,1.54.2,2.07.47,1.16.59,1.82,1.67,2.51,2.74.34.53.69,1.06,1.15,1.5.45.44,1.04.78,1.77.87.14.02.27.03.41.03.67,0,1.26-.22,1.77-.52.77-.45,1.4-1.08,2.01-1.56.3-.24.59-.45.87-.59.28-.14.53-.21.8-.21.1,0,.2.01.31.03.46.1.78.36,1.1.81.48.67.83,1.7,1.29,2.67.24.49.5.96.86,1.36.36.4.82.74,1.4.9.26.07.51.1.77.1.78,0,1.5-.29,2.18-.69,1.02-.6,1.95-1.45,2.77-2.14.41-.34.78-.64,1.1-.85.32-.21.58-.29.69-.29l.11.02s.1.06.17.24c.07.18.14.5.14,1.01,0,.78-.15,1.98-.56,3.75-.06.28.11.55.38.62.28.06.55-.11.62-.38.42-1.82.59-3.08.59-3.98,0-.59-.07-1.03-.21-1.39-.14-.35-.37-.62-.64-.77-.19-.1-.4-.15-.6-.15-.61.01-1.1.33-1.64.72-.8.59-1.66,1.42-2.56,2.09-.89.68-1.8,1.16-2.55,1.15-.17,0-.33-.02-.49-.07-.48-.14-.83-.44-1.16-.92-.49-.71-.84-1.75-1.3-2.7-.23-.48-.5-.94-.86-1.32-.36-.39-.83-.7-1.4-.82-.17-.04-.35-.05-.52-.05-.62,0-1.16.23-1.63.53-.71.45-1.32,1.07-1.94,1.55-.62.48-1.22.8-1.87.8-.09,0-.18,0-.27-.02-.49-.07-.84-.27-1.19-.6-.52-.49-.97-1.29-1.53-2.13-.56-.84-1.27-1.72-2.37-2.28-.66-.34-1.5-.58-2.54-.58-1.98,0-4.66.84-8.46,3.33-.24.16-.3.48-.15.71s.48.3.71.15Z"/>
      <path class="cls-7" d="M142.41,25.21c-1.48-1.27-3.13-2.4-4.98-3.39-4.6-2.47-9.43-3.47-14.17-3.59-8.74-.24-17.16,2.5-23.32,4.5-8.29,2.7-39.79,12.93-44.89,38.65-4.32,21.68,12.04,44.78,33.22,56.46,2.62,1.55,6.56,3.59,11.66,5.07,5,1.46,8.48,1.62,8.48,2.05,0,.84-11.87,4.11-23.33,1.13-21.78-5.68-27.34-30.14-43.22-29.9-4.37.07-7.77,1.98-9.59,3.2-1.38-1.19-7.69-6.87-8.1-15.65-.22-4.69,1.33-8.3,2.36-10.22-.31,0-6.99.1-7.31.11-2.44.04-4.87.07-7.31.11-3.29.05-6.58.1-9.86.14-1.78.03-2.73-2.08-1.52-3.39,4.94-5.36,11.32-12.58,18.37-21.45,5.63-7.07,7.56-9.91,12.15-15.52,3.64-4.45,15.38-18.78,24.62-24.99,19.89-13.39,62.76-12.4,83.95,13,1,1.21,1.93,2.43,2.78,3.68"/>
      <g class="cls-9">
        <path class="cls-4" d="M41.03,69.76c-2.09,0-5.01.31-7.87,1.06-2.55.67-4.9,1.66-6.88,2.69.14,0,.23,0,.26,0h0c-.45.84-1,2.01-1.46,3.45,1.16-.37,2.61-.83,4.42-1.41,13.97-4.51,14.53-4.96,14.48-5.22-.06-.35-1.22-.56-2.95-.56"/>
      </g>
    </g>
  </g>
</svg>