<?xml version="1.0" encoding="UTF-8"?>
<svg xmlns="http://www.w3.org/2000/svg" xmlns:xlink="http://www.w3.org/1999/xlink" viewBox="0 0 197.57 451.7">
  <defs>
    <style>
      .cls-1 {
        fill: #5c8062;
      }

      .cls-2 {
        stroke: #fff;
        stroke-width: 1.03px;
      }

      .cls-2, .cls-3 {
        fill: none;
        stroke-linecap: round;
        stroke-miterlimit: 10;
      }

      .cls-4 {
        fill: #612a00;
      }

      .cls-5 {
        isolation: isolate;
      }

      .cls-6 {
        fill: #5e3615;
      }

      .cls-7 {
        fill: #fff;
      }

      .cls-8 {
        fill: #a1541c;
      }

      .cls-9 {
        mix-blend-mode: overlay;
        opacity: .45;
      }

      .cls-3 {
        stroke: #000;
        stroke-width: 17px;
      }

      .cls-10 {
        clip-path: url(#clippath);
      }
    </style>
    <clipPath id="clippath">
      <path class="cls-8" d="M135.69,19.04c-1.63-1.08-3.4-2-5.36-2.76-4.87-1.89-9.78-2.29-14.5-1.83-8.7.82-16.73,4.57-22.6,7.3-7.9,3.69-37.92,17.68-39.86,43.82-1.65,22.04,17.4,42.98,39.85,52,2.79,1.22,6.95,2.76,12.19,3.62,5.14.84,8.61.58,8.66,1,.1.83-11.28,5.53-23.02,3.96-22.31-2.99-30.8-26.59-46.53-24.42-4.33.6-7.47,2.91-9.13,4.34-1.52-1.02-8.47-5.89-9.94-14.55-.79-4.62.31-8.4,1.09-10.43-.31.04-6.92.95-7.24,1-2.41.33-4.83.66-7.24,1-3.26.45-6.51.9-9.77,1.34-1.76.24-2.96-1.73-1.92-3.18,4.25-5.92,9.7-13.86,15.62-23.52,4.73-7.7,6.3-10.76,10.17-16.89,3.08-4.86,12.98-20.51,21.4-27.8,18.11-15.71,60.78-19.95,84.9,2.69,1.14,1.07,2.21,2.18,3.21,3.31Z"/>
    </clipPath>
  </defs>
  <g class="cls-5">
    <g id="Layer_2" data-name="Layer 2">
      <g id="step_1_8" data-name="step_1&amp;amp;8">
        <path id="L_arm" class="cls-3" d="M112.52,124.25c-1.07,10.78-2.04,27.47-.26,47.76,2.25,25.64,4.53,51.6,17.19,55.95,14.14,4.85,29.53-21.24,47.34-15.16,6,2.05,9.88,6.93,12.28,10.94"/>
        <path id="L_leg" class="cls-6" d="M159.66,317.25l.81-17.43c-10.46-17.77-20.93-35.53-31.39-53.3-3.9-6.86-7.81-13.72-11.71-20.57-10.76-4.28-22.34-1.08-27.85,6.9-5.4,7.82-2.79,17.08-2.37,18.47,19.68,21.85,39.36,43.7,59.04,65.54,4.49.13,8.99.26,13.48.39Z"/>
        <path id="L_foot" d="M99.86,411.79c8.1-16.06,16.2-33.69,23.93-52.85,6.63-16.43,12.27-32.21,17.09-47.17,7.24,1.58,14.48,3.16,21.73,4.74-8.15,11.34-18.44,29.47-21.63,53.32-1.62,12.07-3.7,27.67,3.98,42.94,10.65,21.16,33.3,28.21,32.6,29.68-.68,1.42-17.01-4.15-77.7-30.66Z"/>
        <path id="R_leg" class="cls-6" d="M64.06,333.35c3.26-4.56,6.52-9.13,9.78-13.69-.32-31.2-.65-62.41-.97-93.61-4.33-.91-14.87-2.49-23.54,3.45-1.61,1.11-7.34,4.93-10.39,12.6-2.05,5.14-2,9.72-1.8,12.19,5.35,22.07,10.71,44.14,16.06,66.22,3.62,4.28,7.24,8.56,10.86,12.85Z"/>
        <path id="R_foot" d="M23.2,422.42c5.96-18.16,8.67-33.9,14.22-53.8,5.27-18.9,9.93-37.26,14.06-55.02,6.44,2.44,15.97,6.38,22.41,8.82-9.57,27.17-13.66,40-16.25,53.31-3.06,15.7-8.28,42.59.02,55.01,12.75,19.07,43.29,17.7,42.89,19.21-.31,1.18-18.75,1.29-53.63,1.74-7.82-7.02-11.3-13.61-23.72-29.27Z"/>
        <path class="cls-1" d="M48.64,90.61c8.7-1.31,14.68,10.44,26.94,19.2,8.46,6.05,21.89,12.09,43.56,11.78-3.07,15.13-5.62,34.28-5.42,56.45.19,20.69,2.73,38.65,5.75,53.06-6.67,5.06-21.89,15.16-43.82,17.63-16.7,1.88-30.18-1.46-37.77-3.98,2.27-16.27,4.54-32.54,6.82-48.8-4.36-23.68-8.72-47.36-13.09-71.04,1.31-6.64,2.61-13.27,3.92-19.91,2.61-6.18,6.81-13.45,13.12-14.39Z"/>
        <path id="R_arm" class="cls-3" d="M50.06,128.95c3.3,15.44,9.55,35.62,22.09,56.76,10,16.86,15,25.29,23.68,26.68,19.34,3.1,32.76-31.17,58.89-29.2,6.43.49,11.49,3,14.59,4.89"/>
        <g>
          <path class="cls-8" d="M113.92,116.37c-3.33,1.72,4.62,14.55,3.52,34.36-.48,8.68-2.38,12.86-.8,21.76,1.11,6.26,3.29,11.16,4.97,14.35,3.04-9.21,15.46-49.03-.2-65.91-.63-.68-5.29-5.7-7.49-4.57Z"/>
          <path class="cls-8" d="M114.67,118.76c4.86,6.88-5.55,23.86-13.31,33.22-11.62,14-20.18,14.64-32.47,27.99-9.3,10.11-14.31,20.52-16.99,27.23-8.61-3.28-17.21-6.57-25.82-9.85-2.09-11.77-3.58-27.21-1.97-45.11.99-10.97,2.94-20.65,5.13-28.84,1.09-4.5,2.97-10.97,6.28-18.4,3.15-7.06,4.72-10.59,6.68-11.5,9.29-4.32,19.5,21.09,42.78,24.23,16.05,2.17,25.95-4.26,29.69,1.03Z"/>
          <path class="cls-9" d="M33.2,113.75c1.7,1.75,7.14-3.34,15.01-3.04,6.38.24,9.18,3.84,16.32,8.43,4.6,2.96,25.85,16.1,42.64,9.52,4.08-1.59,7-3.86,8.74-5.4-2.78-4.23-14.04-20.3-36.02-26.43-19.12-5.33-34.91.06-40.09,2.08-7.31,10.7-7.56,13.85-6.6,14.83Z"/>
        </g>
        <g>
          <path class="cls-4" d="M147.26,110.58c-11,10.12-25.24,11.34-28.18,11.53h0c-8.48.56-17.41-1.15-25.85-4.55-22.45-9.01-41.49-29.96-39.85-52,1.94-26.14,31.96-40.14,39.86-43.82,4.4-2.05,10.02-4.67,16.23-6.2.51-.12,1.02-.25,1.54-.35.01,0,.03,0,.04-.01.44-.09.88-.18,1.33-.26.07-.01.15-.03.24-.04.53-.09,1.06-.18,1.61-.25.53-.08,1.07-.13,1.62-.19,4.71-.46,9.63-.05,14.5,1.83,1.96.76,3.73,1.68,5.36,2.76,9.46,6.21,13.69,17.13,17.2,26.16,2.57,6.64,17.2,44.37-5.62,65.37Z"/>
          <path d="M148.49,83.23c-1.4,11.03-5.49,26.01-17.43,33.68-3.48,2.25-7.52,3.78-11.93,4.68h0c-6.77.86-18.22,1.3-30.55-3.69-21.55-8.72-41.46-32.25-38.49-56.93,3.73-31.07,38.25-44.75,43.97-46.99,7.6-2.98,14.43-4.16,19.38-4.67,3.92.74,9.51,2.36,14.93,6.3,10.97,7.97,14.27,20.38,17.93,34.18,0,0,2.82,10.47,2.91,20.78.02,1.85.05,6.68-.71,12.68Z"/>
          <path class="cls-7" d="M148.49,83.23c-1.93,2.53-4.22,3.95-6.51,3.71-5.2-.55-8.55-9.33-7.47-19.61,1.08-10.27,6.19-18.16,11.39-17.61.13.01.27.04.4.06,1.9,7.19,2.86,14.33,2.91,20.78.02,1.85.05,6.68-.71,12.68Z"/>
          <ellipse class="cls-7" cx="103.9" cy="66.11" rx="18.72" ry="11.24" transform="translate(27.28 162.52) rotate(-83.99)"/>
          <path class="cls-7" d="M119.82,37.14c.64.81-3.4,7.01-9.72,8.51-5,1.19-10.13-.86-10.09-1.85.04-.83,3.7-.54,9.93-2.56,6.62-2.14,9.41-4.7,9.88-4.11Z"/>
          <path class="cls-7" d="M132.03,37.36c-.5.79,1.71,7.1,5.81,8.82,3.24,1.36,6.84-.51,6.89-1.49.04-.83-2.43-.66-6.43-2.89-4.25-2.36-5.91-5.02-6.27-4.44Z"/>
          <path class="cls-2" d="M98.56,98.81c5.21-4.41,8.25-4.65,10.07-3.98,2.78,1.02,3.38,4.37,5.83,4.39,2.61.02,3.49-3.74,5.8-3.54,2.51.21,2.78,4.75,5.36,5.14,3.03.46,5.59-5.33,7.21-4.7.58.23,1.13,1.32.68,5.53"/>
          <g>
            <path class="cls-8" d="M135.69,19.04c-1.63-1.08-3.4-2-5.36-2.76-4.87-1.89-9.78-2.29-14.5-1.83-8.7.82-16.73,4.57-22.6,7.3-7.9,3.69-37.92,17.68-39.86,43.82-1.65,22.04,17.4,42.98,39.85,52,2.79,1.22,6.95,2.76,12.19,3.62,5.14.84,8.61.58,8.66,1,.1.83-11.28,5.53-23.02,3.96-22.31-2.99-30.8-26.59-46.53-24.42-4.33.6-7.47,2.91-9.13,4.34-1.52-1.02-8.47-5.89-9.94-14.55-.79-4.62.31-8.4,1.09-10.43-.31.04-6.92.95-7.24,1-2.41.33-4.83.66-7.24,1-3.26.45-6.51.9-9.77,1.34-1.76.24-2.96-1.73-1.92-3.18,4.25-5.92,9.7-13.86,15.62-23.52,4.73-7.7,6.3-10.76,10.17-16.89,3.08-4.86,12.98-20.51,21.4-27.8,18.11-15.71,60.78-19.95,84.9,2.69,1.14,1.07,2.21,2.18,3.21,3.31Z"/>
            <g class="cls-10">
              <path class="cls-9" d="M20.96,86.44c-.47-.71,4.73-5.99,11.84-8.83,5.03-2,10.45-2.56,10.68-1.81.08.26-.42.77-13.74,6.95-7.99,3.7-8.64,3.9-8.78,3.69Z"/>
            </g>
          </g>
        </g>
      </g>
    </g>
  </g>
</svg>