<?xml version="1.0" encoding="UTF-8"?>
<svg xmlns="http://www.w3.org/2000/svg" xmlns:xlink="http://www.w3.org/1999/xlink" viewBox="0 0 349.98 364.03">
  <defs>
    <style>
      .cls-1 {
        fill: none;
      }

      .cls-2 {
        fill: #bf1000;
      }

      .cls-3, .cls-4 {
        mix-blend-mode: soft-light;
      }

      .cls-3, .cls-5 {
        fill: #98aeb3;
      }

      .cls-6 {
        opacity: .21;
      }

      .cls-6, .cls-7, .cls-8 {
        fill: #fff;
      }

      .cls-6, .cls-7, .cls-9, .cls-10, .cls-11, .cls-12 {
        mix-blend-mode: overlay;
      }

      .cls-7 {
        opacity: .63;
      }

      .cls-13 {
        fill: #122024;
      }

      .cls-4 {
        opacity: .41;
      }

      .cls-14 {
        fill: #4f627a;
      }

      .cls-15 {
        isolation: isolate;
      }

      .cls-16 {
        clip-path: url(#clippath-1);
      }

      .cls-17 {
        clip-path: url(#clippath-3);
      }

      .cls-18 {
        clip-path: url(#clippath-4);
      }

      .cls-19 {
        clip-path: url(#clippath-2);
      }

      .cls-20 {
        clip-path: url(#clippath-5);
      }

      .cls-21 {
        fill: #5d758c;
      }

      .cls-22 {
        fill: #122b30;
      }

      .cls-23 {
        fill: #131617;
      }

      .cls-9 {
        opacity: .3;
      }

      .cls-10 {
        opacity: .32;
      }

      .cls-11 {
        opacity: .56;
      }

      .cls-12 {
        opacity: .16;
      }

      .cls-24 {
        fill: #172a2e;
      }

      .cls-25 {
        clip-path: url(#clippath);
      }

      .cls-26 {
        fill: #0e2226;
      }
    </style>
    <clipPath id="clippath">
      <path class="cls-23" d="M0,73.32C24.16,51.34,68.52,27.74,100.09,19.08c19.21-5.27,48.55-11.38,69.12-5.81-20.15,1.9-29.02,19.16-34.46,38.88-5.93,21.51-4.83,46.68,12.31,64.16-10.02,6.5-21.27,15.14-26.81,25.03-3.05,5.44-3.19,14.53-3.11,17.62.26,9.88,1.6,13.73,7.22,19.86-2.83,4.62-5.99,11.31-7.12,19.74-3.37,25.08,14.12,43.87,17.06,46.93-28.42-23.04-52.96-36.72-71.11-45.21-14.28-6.68-32.91-14.03-40-31.91-1.2-3.03-3.93-7.14-2.93-23.31.77-12.38-.35-34.2,1.37-48.21-7.5-8.4-11.56-17.77-21.62-23.52Z"/>
    </clipPath>
    <clipPath id="clippath-1">
      <path class="cls-14" d="M139.24,62.79C146.23,54.18,189.08,3.08,260.3.13c43.33-1.79,75.83,15.13,89.69,23.48-19.9-8.01-42.49-.25-52.74,17.27-11.17,19.11-4.87,45.05,15.09,57.43-3.29,2.07-20.49,13.35-23.51,33.86-1.66,11.28,1.69,20.43,3.4,24.91,5.44,14.32,15.27,22.67,19.96,26.17-2.64-.28-6.48-.39-10.9.63,0,0-13.23,3.03-21.78,15.53-9.44,13.81-5.56,38.5,11.94,58.86-8.95-2.29-26.73-5.44-46.49,1.28-20.85,7.09-51.07,27.6-48.99,54.39,1.2,15.45,12.63,26.5,19.14,31.74-8.68-2-16.03-3.1-21.47-3.73-10.07-1.18-13.21-.74-14.94,1.4-2.06,2.55-1.67,6.94,0,9.8,2.38,4.09,7.12,4.63,7,5.13-.29,1.19-27.12,2.19-50.88-14-3.76-2.56-16.06-11.14-24.19-26.13-24.96-46,14.05-106.99,18.32-113.76,11-17.45,18.41-29.21,32.83-38.94,5.54-3.74,9.13-5.16,11.45-9.93,6.1-12.53-9.15-22.41-10.69-45.05-1.37-20.14,3.77-37.74,3.77-37.74l-27.07-9.93Z"/>
    </clipPath>
    <clipPath id="clippath-2">
      <path class="cls-13" d="M155.37,245.5c42.34,59.31,9.77,79.68-16.9,91.64-26.67,11.96-67.53-26.27-65.88-52.17,3.84-60.23-36.22-83.23,3.1-87.79,12.74-1.48,36.27-31.17,36.42-16.85.22,21.96,29.02,45.22,43.26,65.17Z"/>
    </clipPath>
    <clipPath id="clippath-3">
      <path class="cls-1" d="M155.31,245.34c-3.03-4.25-16.66-20.06-25.73-30.43-1.6-1.83-5.84-6.66-10.19-13.92-2.5-4.18-4.24-7.83-5.36-10.39.81-3.58,1.85-10.47-.29-18.61-.29-1.1-1.75-6.46-5.32-11.75-7.66-11.35-23.45-20-33.29-17.54-14,3.5-25.17,31.78-16.54,69.44,2.47,13.33,16.28,36.16,13.95,72.67-1.65,25.91,39.21,64.13,65.88,52.17,26.67-11.96,59.25-32.33,16.9-91.64Z"/>
    </clipPath>
    <clipPath id="clippath-4">
      <path class="cls-2" d="M68.27,174.46c-3.97,10.92-5.89,16.61-10.2,17.78-7.54,2.04-18.16-4.93-17.78-10.2.18-2.55,4.46-4.82,13.01-9.25,8.17-4.23,14.28-7.34,16.12-5.41.63.67.72,1.91-1.15,7.07Z"/>
    </clipPath>
    <clipPath id="clippath-5">
      <path class="cls-24" d="M110.73,222.29c2.74-9.26,8.65-24.83,21.77-40.19,10.86-12.7,22.46-20.36,30.34-24.71-2.24-12.28-3.95-27.44-3.62-44.77.26-13.64,1.74-25.79,3.62-36.1-8.69-9.62-23.95-5.44-32.63-15.05l25.96,3.82,6.45,1.98,8.45,9.26c-2.08,11.94-1.77,21.43-1.16,27.7,1.86,19.04,8.61,30.19,4.58,47.34-1.04,4.42-2.47,7.87-3.42,9.93-18.71,21.63-37.42,43.27-56.13,64.9l-4.21-4.09Z"/>
    </clipPath>
  </defs>
  <g class="cls-15">
    <g id="Layer_2" data-name="Layer 2">
      <g id="Layer_1-2" data-name="Layer 1">
        <g>
          <g>
            <path class="cls-23" d="M0,73.32C24.16,51.34,68.52,27.74,100.09,19.08c19.21-5.27,48.55-11.38,69.12-5.81-20.15,1.9-29.02,19.16-34.46,38.88-5.93,21.51-4.83,46.68,12.31,64.16-10.02,6.5-21.27,15.14-26.81,25.03-3.05,5.44-3.19,14.53-3.11,17.62.26,9.88,1.6,13.73,7.22,19.86-2.83,4.62-5.99,11.31-7.12,19.74-3.37,25.08,14.12,43.87,17.06,46.93-28.42-23.04-52.96-36.72-71.11-45.21-14.28-6.68-32.91-14.03-40-31.91-1.2-3.03-3.93-7.14-2.93-23.31.77-12.38-.35-34.2,1.37-48.21-7.5-8.4-11.56-17.77-21.62-23.52Z"/>
            <g class="cls-25">
              <path class="cls-10" d="M106.08,136.09c33,72.12,20.38,159.08.86,162.86-17.17,3.32-22.5-61.01-87.51-132.13-57.4-62.79-110.63-75.42-105.53-97.81,4.93-21.62,60.12-34.22,103.82-21.45,55.26,16.15,79.53,69.21,88.37,88.53Z"/>
            </g>
          </g>
          <path class="cls-24" d="M55.4,124.14c9.67,7.46,15.49,21.35,12.42,24.84-3.14,3.57-15.95-3.24-23.75-9.97-8.14-7.01-12.51-15.38-14.83-20.97,4.43-.63,16.17-1.62,26.16,6.09Z"/>
          <g>
            <path class="cls-14" d="M139.24,62.79C146.23,54.18,189.08,3.08,260.3.13c43.33-1.79,75.83,15.13,89.69,23.48-19.9-8.01-42.49-.25-52.74,17.27-11.17,19.11-4.87,45.05,15.09,57.43-3.29,2.07-20.49,13.35-23.51,33.86-1.66,11.28,1.69,20.43,3.4,24.91,5.44,14.32,15.27,22.67,19.96,26.17-2.64-.28-6.48-.39-10.9.63,0,0-13.23,3.03-21.78,15.53-9.44,13.81-5.56,38.5,11.94,58.86-8.95-2.29-26.73-5.44-46.49,1.28-20.85,7.09-51.07,27.6-48.99,54.39,1.2,15.45,12.63,26.5,19.14,31.74-8.68-2-16.03-3.1-21.47-3.73-10.07-1.18-13.21-.74-14.94,1.4-2.06,2.55-1.67,6.94,0,9.8,2.38,4.09,7.12,4.63,7,5.13-.29,1.19-27.12,2.19-50.88-14-3.76-2.56-16.06-11.14-24.19-26.13-24.96-46,14.05-106.99,18.32-113.76,11-17.45,18.41-29.21,32.83-38.94,5.54-3.74,9.13-5.16,11.45-9.93,6.1-12.53-9.15-22.41-10.69-45.05-1.37-20.14,3.77-37.74,3.77-37.74l-27.07-9.93Z"/>
            <g class="cls-16">
              <g class="cls-11">
                <path class="cls-8" d="M326.11,214.38c-26.8,159.6-47.6,212.28-59.05,211.15-12.2-1.21-8.42-62.88-44.5-78-12.69-5.32-24.65-2.5-33.14-13.07-9.06-11.28-6.08-27.75-4.2-37.34,3.49-17.88,11.68-32.48,35.19-61.39,35.21-43.29,41.32-39.66,46.65-56.3,6.81-21.26-.79-29.25-3.22-75.6-2.03-38.79-3.26-62.24,6.43-86.86,13.41-34.07,47.71-70.33,65.9-63.81,31.88,11.42,8.29,151.89-10.08,261.22Z"/>
              </g>
              <path class="cls-12" d="M178.32,256.43c-11.5,41.14-1.19,62.21,3.59,70.01,6.54,10.66,14.76,16.05,14.91,15.9.48-.49-80.81-49.24-101.67-125.39-15.35-56.03,3.53-123.25,43.68-166.94C197.84-14.2,306.3-14.27,307.56-9.83c.45,1.59-15.28,2.15-31.59,14.48-44.74,33.84-10.82,93.6-50.38,169.21-18.29,34.96-35.96,42.09-47.27,82.57Z"/>
            </g>
          </g>
          <g>
            <ellipse class="cls-26" cx="148.32" cy="338.87" rx="21.13" ry="12.36" transform="translate(-47.48 25.03) rotate(-8.32)"/>
            <path class="cls-26" d="M176,344.79c4.24,5.68,8.62,5.51,8.65,8.84.03,2.7-2.62,5.84-5.12,5.86-3.81.03-3.78-7.21-11.72-13.67-3.34-2.71-5.37-3.09-6.18-5.58-1.12-3.45,1.28-7.38,3.67-10.31.83.59,2.12,1.57,3.49,2.99,4.38,4.51,3.92,7.47,7.21,11.87Z"/>
            <polygon class="cls-22" points="177.37 358.45 177.01 362.27 178.96 364.03 180.62 364.03 180.15 362.32 178.82 360.61 179.83 359.47 177.37 358.45"/>
            <polygon class="cls-22" points="179.1 357.61 179.91 360.65 181.95 362.32 184.04 362.55 184.04 361.24 182.05 359.49 182.4 358.21 179.1 357.61"/>
            <polygon class="cls-22" points="181.81 355.67 182.75 357.88 183.16 359.49 186.42 360.08 186.75 358.45 184.44 357.61 184.28 355.19 181.81 355.67"/>
          </g>
          <g>
            <path class="cls-13" d="M155.37,245.5c42.34,59.31,9.77,79.68-16.9,91.64-26.67,11.96-67.53-26.27-65.88-52.17,3.84-60.23-36.22-83.23,3.1-87.79,12.74-1.48,36.27-31.17,36.42-16.85.22,21.96,29.02,45.22,43.26,65.17Z"/>
            <g class="cls-19">
              <path class="cls-9" d="M138.01,171.95c3.27,3.91-14.96,17.92-30.34,46.62-22.89,42.73-13.1,68.82-28.12,75.49-24.24,10.75-81.89-42.94-72.88-67.36,4.76-12.91,24.51-7.72,71.22-27.1,36.8-15.26,56.66-31.8,60.12-27.65Z"/>
            </g>
          </g>
          <path class="cls-24" d="M114.98,182.19c0,22.05-15.97,22.29-37.93,22.29-9.51,0-7.67,6.9-18.05,8.53-4.42.69-8.82.73-12.85.44-9.87-.72-17.46-3.43-17.46-3.43l-8.99-12.88.7-13.88,10.82,1.66,1.31-13.55,9.03-18.24s24.96-10.85,33.66-10.85c21.97,0,39.77,17.87,39.77,39.92Z"/>
          <g class="cls-4">
            <g class="cls-17">
              <ellipse class="cls-5" cx="164.81" cy="193.54" rx="74.79" ry="136.99" transform="translate(-74.69 108.33) rotate(-30)"/>
            </g>
          </g>
          <g>
            <path class="cls-24" d="M78.14,115.86c7.07,11.1,9.37,26.72,5.91,28.78-3.53,2.1-13.52-9.68-19.08-19.31-5.79-10.04-7.95-19.81-8.86-26.08,4.07,1.24,14.72,5.15,22.02,16.62Z"/>
            <path class="cls-21" d="M83.89,144.96c-1.02,1.2-3.98-2-9.51-1.3-3.11.39-3.62,1.58-5.27,1.2-3.35-.77-3.26-7.91-8.13-15.92-7.67-12.62-4.85-29.69-4.85-29.69,3.78,5.03,9.04,12.2,15.06,21.08,8.22,12.1,14.37,22.68,12.7,24.64Z"/>
          </g>
          <path class="cls-6" d="M69.42,167.39c3.5.58,9.23,22.43-2.48,30.58-5.92,4.12-15.17,3.94-21.07-.85-5.44-4.41-8-12.69-5.58-15.07,2.56-2.52,8.46,3.83,15.6,1.77,9.36-2.71,10.62-16.91,13.53-16.43Z"/>
          <path class="cls-9" d="M72.12,165.44c-.15-1.44-10.9-3.24-21.56.5-9.51,3.33-18.49,10.9-17.26,14.19.69,1.83,4.51,2.21,6.99,1.92,5.63-.65,7.59-5.09,13.01-9.25,9.26-7.1,18.96-5.98,18.82-7.35Z"/>
          <path class="cls-7" d="M64.01,192.83c-5.46,3.45-13.23,3.13-18.35-.66-3.8-2.79-6.82-8-5.37-10.13-.38,5.27,10.26,12.24,17.79,10.2,4.3-1.17,6.22-6.87,10.19-17.79,1.06-2.89,1.49-4.55,1.55-5.57,2.89,1.07,4.16,17.67-5.8,23.95Z"/>
          <path class="cls-2" d="M69.81,168.89c-.06,1.02-.49,2.68-1.55,5.57-3.96,10.93-5.89,16.62-10.19,17.79-7.54,2.04-18.17-4.93-17.79-10.2.18-2.55,4.47-4.81,13.02-9.25,8.16-4.23,14.27-7.34,16.12-5.41.28.29.45.7.39,1.51Z"/>
          <g>
            <path class="cls-2" d="M68.27,174.46c-3.97,10.92-5.89,16.61-10.2,17.78-7.54,2.04-18.16-4.93-17.78-10.2.18-2.55,4.46-4.82,13.01-9.25,8.17-4.23,14.28-7.34,16.12-5.41.63.67.72,1.91-1.15,7.07Z"/>
            <g class="cls-18">
              <path d="M54.45,185.63c.27.99-.32,2.01-1.31,2.28s-2.01-.32-2.28-1.31.32-2.01,1.31-2.28,2.01.32,2.28,1.31Z"/>
            </g>
          </g>
          <g>
            <polygon class="cls-21" points="28.77 185.59 30.71 191.12 30.09 196.89 21.63 197.94 19.69 196.06 20.39 183.26 28.77 185.59"/>
            <g class="cls-11">
              <ellipse class="cls-8" cx="25.2" cy="192.92" rx="1.38" ry="2.76" transform="translate(-115.15 58.18) rotate(-38.73)"/>
            </g>
          </g>
          <path class="cls-22" d="M137.72,64.13c-.53-.72,47.7-61.42,122.58-64,29.25-1.01,53.42,7.17,69.53,14.58-19.59-6.65-45.71-12.36-75.62-9.27-71.03,7.33-115.98,59.37-116.48,58.69Z"/>
          <path class="cls-22" d="M166.31,72.73c-.11-1.16,39.73-13.86,87.13-2.09,26.43,6.56,46.24,18.5,58.84,27.67-1.37.31-2.89.75-4.76.93-9.7-6.08-23.58-13.63-41.21-19.49-53.76-17.84-99.88-5.78-100-7.03Z"/>
          <path class="cls-22" d="M166.31,72.73c.67-1.1,39.67,17.65,81.92,50.3,38.21,29.52,64.76,59.34,63.94,60.21-.73.78-23.27-21.82-62.54-52.28-48.86-37.89-83.97-57.17-83.32-58.23Z"/>
          <path class="cls-22" d="M166.35,72.08c1.07-.58,18.11,33.64,49.73,82.27,42.69,65.65,76.48,102.98,75.35,103.91-1.18.97-40.39-38.24-77.75-96.21-30.11-46.72-48.52-89.32-47.34-89.96Z"/>
          <g>
            <path class="cls-24" d="M110.73,222.29c2.74-9.26,8.65-24.83,21.77-40.19,10.86-12.7,22.46-20.36,30.34-24.71-2.24-12.28-3.95-27.44-3.62-44.77.26-13.64,1.74-25.79,3.62-36.1-8.69-9.62-23.95-5.44-32.63-15.05l25.96,3.82,6.45,1.98,8.45,9.26c-2.08,11.94-1.77,21.43-1.16,27.7,1.86,19.04,8.61,30.19,4.58,47.34-1.04,4.42-2.47,7.87-3.42,9.93-18.71,21.63-37.42,43.27-56.13,64.9l-4.21-4.09Z"/>
            <g class="cls-20">
              <path class="cls-3" d="M119.69,172.66c-11.15,14.4-7.24,37.08-2.08,38.38,3.01.76,5.19-6.04,17.79-22.5,15.07-19.69,22.89-24.29,21.19-27.41-2.6-4.77-25.7-2.93-36.9,11.54Z"/>
            </g>
          </g>
          <g>
            <ellipse class="cls-22" cx="170.33" cy="328.93" rx="21.13" ry="12.36" transform="translate(-80.15 56.04) rotate(-15.17)"/>
            <path class="cls-22" d="M198.52,331.51c4.89,5.13,9.22,4.44,9.65,7.74.35,2.68-1.91,6.11-4.39,6.43-3.78.49-4.61-6.71-13.27-12.17-3.64-2.3-5.7-2.42-6.8-4.8-1.53-3.3.39-7.48,2.41-10.68.9.49,2.29,1.31,3.82,2.55,4.89,3.95,4.79,6.95,8.58,10.93Z"/>
            <polygon class="cls-26" points="201.04 344.55 200.68 348.37 202.63 350.12 204.29 350.12 203.82 348.41 202.49 346.7 203.5 345.57 201.04 344.55"/>
            <polygon class="cls-26" points="202.77 343.71 203.58 346.75 205.62 348.41 207.71 348.65 207.71 347.33 205.72 345.59 206.08 344.31 202.77 343.71"/>
            <polygon class="cls-26" points="205.48 341.76 206.42 343.98 206.83 345.59 210.09 346.18 210.42 344.55 208.11 343.71 207.95 341.29 205.48 341.76"/>
          </g>
        </g>
      </g>
    </g>
  </g>
</svg>