<?xml version="1.0" encoding="UTF-8"?>
<svg id="Layer_2" data-name="Layer 2" xmlns="http://www.w3.org/2000/svg" xmlns:xlink="http://www.w3.org/1999/xlink" viewBox="0 0 771.43 635.85">
  <defs>
    <style>
      .cls-1 {
        fill: #9c1f24;
      }

      .cls-2 {
        fill: #26263b;
      }

      .cls-3 {
        fill: #d69633;
      }

      .cls-4 {
        fill: #121212;
      }

      .cls-5 {
        fill: #996311;
      }

      .cls-6 {
        clip-path: url(#clippath);
      }
    </style>
    <clipPath id="clippath">
      <path class="cls-5" d="M298.75,48.69c31.04-3.91,96.53-7.43,157.17,29.86,121.22,74.55,151.37,268.14,86,341.21-2.11,2.36-45.47,49.53-95.35,42.07-6.27-.94-25.42-3.8-39.26-18.7-18.87-20.3-5.91-39.35-20.57-55.15-15.36-16.57-40.23-7.09-111.24-7.48-22.51-.12-40.97-1.19-53.13-2.08"/>
    </clipPath>
  </defs>
  <g id="Layer_1-2" data-name="Layer 1">
    <path class="cls-2" d="M247.6,274.71l.15-33.29-206.56,36.56C25.8,311.13,7.49,361.14,1.78,424.12c-8.72,96.28,16.59,172.38,32.99,211.73,5.95-82.61,33.13-136.88,61.49-138.6,24.27-1.47,45.6,35.78,51.53,46.4-22.61-54.13-1.05-104.22,29.25-114.42,28.23-9.5,59.52,17.16,62.27,19.57l-70.13-135.09,78.41-39Z"/>
    <g>
      <path class="cls-5" d="M298.75,48.69c31.04-3.91,96.53-7.43,157.17,29.86,121.22,74.55,151.37,268.14,86,341.21-2.11,2.36-45.47,49.53-95.35,42.07-6.27-.94-25.42-3.8-39.26-18.7-18.87-20.3-5.91-39.35-20.57-55.15-15.36-16.57-40.23-7.09-111.24-7.48-22.51-.12-40.97-1.19-53.13-2.08"/>
      <g class="cls-6">
        <path class="cls-2" d="M437.22,236.54c-32.04,117.14-181.45,159.35-176.62,168.81,5.38,10.53,203.64-16.64,236.45-147.31,28.03-111.64-84.65-219.43-95.35-214.07-9.37,4.69,62.3,94.68,35.52,192.57Z"/>
        <path class="cls-2" d="M517.25,319.16c-74.47,95.92-228.66,77.69-227.81,88.27.94,11.79,194.48,62.64,274.84-45.49,68.66-92.39,5.87-235.11-6.07-234.27-10.45.74,21.28,111.32-40.96,191.49Z"/>
      </g>
    </g>
    <path class="cls-3" d="M388.57,294.5c-40.41,69.07-138.83,106.59-204.69,71.98-43.16-22.68-57.05-68.31-59.55-77.17-30.02-106.55,81.39-242.86,172.75-240.44,12.08.32,20.32,2.97,22.94,3.87,67.48,23.08,121.04,152.04,68.55,241.76Z"/>
    <path class="cls-1" d="M318.87,311.21c-25.95,6.67-79.97,18.25-127.79,5.4-26.17-7.03-40.94-19.43-46.83-25.03,4.42-27.28,23.83-51.29,53.57-57.83,43.08-9.47,100.63,18.29,121.06,77.46Z"/>
    <path class="cls-4" d="M228.31,277.17c0,4.98-.8,19.29-12.22,30.37-2.9-4.34-10.09-16-10.09-30.37,0-4.12.56-16.12,10.09-30.37,3.05,2.97,12.22,12.97,12.22,30.37Z"/>
    <path class="cls-1" d="M347.39,260.19c-12.4-1.14-37.85-4.52-56.77-17.62-10.35-7.17-14.88-14.9-16.58-18.28,6.2-11.25,18.45-18.72,32.49-16.93,20.33,2.59,41.18,23.74,40.86,52.83Z"/>
    <path class="cls-4" d="M313.09,231.13c-.78,2.18-3.37,8.31-10.1,11.38-.59-2.35-1.92-8.58.33-14.87.64-1.8,2.76-6.97,9.17-11.71.87,1.78,3.32,7.59.6,15.2Z"/>
    <path class="cls-1" d="M261.44,205.61c-10.36,3.96-32.04,11.25-52.32,8.2-11.09-1.67-17.75-6.08-20.44-8.11.54-11.43,7.4-22.21,19.33-26.3,17.28-5.91,42.25,2.82,53.42,26.21Z"/>
    <path class="cls-4" d="M222.6,195.84c.23,2.05.57,7.97-3.61,13.06-1.4-1.65-4.9-6.11-5.57-12.02-.19-1.69-.53-6.66,2.73-12.97,1.4,1.08,5.63,4.77,6.45,11.92Z"/>
    <path class="cls-1" d="M195.65,171.82c-4.35,4.53-13.69,13.49-24.81,16.82-6.08,1.82-10.55,1.17-12.42.78-2.48-5.98-1.57-13.16,3.56-18.13,7.42-7.19,22.32-8.75,33.68.53Z"/>
    <path class="cls-4" d="M173.4,176.19c.61.99,2.22,3.94,1.3,7.56-1.11-.51-3.98-1.95-5.75-4.81-.51-.82-1.87-3.28-1.73-7.3.97.22,4.03,1.08,6.18,4.55Z"/>
    <path class="cls-1" d="M308.2,189.78c-6.28.12-19.22-.15-29.44-5.65-5.59-3.01-8.29-6.64-9.33-8.23,2.48-5.98,8.2-10.41,15.33-10.3,10.34.16,21.96,9.59,23.44,24.19Z"/>
    <path class="cls-4" d="M289.38,177.14c-.27,1.14-1.22,4.36-4.42,6.27-.43-1.15-1.44-4.19-.67-7.47.22-.94.99-3.65,3.94-6.38.54.84,2.09,3.62,1.15,7.58Z"/>
    <path class="cls-1" d="M176.37,211.52c-5.02,7.08-15.94,21.25-30.45,28.09-7.94,3.74-14.18,3.77-16.81,3.62-4.62-7.67-4.85-17.66,1.13-25.51,8.66-11.36,28.7-16.55,46.13-6.21Z"/>
    <path class="cls-4" d="M146.87,222.07c1.04,1.23,3.84,4.93,3.34,10.06-1.63-.46-5.84-1.84-8.85-5.39-.86-1.02-3.24-4.1-3.86-9.62,1.38.09,5.74.65,9.38,4.95Z"/>
    <polyline class="cls-3" points="322.12 53.21 332.28 0 357.17 50.68"/>
    <polyline class="cls-3" points="382.49 55.32 413.49 10.89 415.52 67.32"/>
    <polyline class="cls-3" points="441.47 78.86 478.41 39.24 472.48 95.39"/>
    <polyline class="cls-3" points="489.41 115.8 537.33 90.55 513.25 141.62"/>
    <polyline class="cls-3" points="521.05 163.7 573.64 150.72 537.98 194.49"/>
    <polyline class="cls-3" points="548.65 218.01 602.66 222.17 555.07 252.56"/>
    <polyline class="cls-3" points="566.79 277.17 618.44 293.51 565.18 312.27"/>
    <path class="cls-2" d="M471.02,249.79l-5.61-32.82,209.76,2.17c21.34,16.04,59.97,50.09,81.45,106.31,45.02,117.84-26.17,226.2-34.23,238.04-15.8-80.5-56.28-127.62-86.66-124.07-24.26,2.83-39.95,37.73-45.68,52.38,19.88-50.32.26-94.07-24.08-101.16-17.71-5.16-41.18,8.14-58.22,29.52l47.01-144.77-83.75-25.61Z"/>
    <path class="cls-3" d="M477.77,460.1c-110.28,40.4-220.55,80.81-330.83,121.21-.71.26-1.15-.75-.49-1.1,171.57-69.72,236.62-111.22,260.85-137.08,4.81-5.14,22.39-25,40.2-21.5,15.56,3.06,24.88,22.7,30.27,38.47Z"/>
  </g>
</svg>