<?xml version="1.0" encoding="UTF-8"?>
<svg id="Layer_2" data-name="Layer 2" xmlns="http://www.w3.org/2000/svg" xmlns:xlink="http://www.w3.org/1999/xlink" viewBox="0 0 1058.1 600.24">
  <defs>
    <style>
      .cls-1 {
        fill: #9c1f24;
      }

      .cls-2 {
        fill: #26263b;
      }

      .cls-3 {
        fill: #d69633;
      }

      .cls-4 {
        fill: #121212;
      }

      .cls-5 {
        fill: #996311;
      }

      .cls-6 {
        clip-path: url(#clippath);
      }
    </style>
    <clipPath id="clippath">
      <path class="cls-5" d="M477.48,67.57c31.04-3.91,96.53-7.43,157.17,29.86,121.22,74.55,151.37,268.14,86,341.21-2.11,2.36-45.47,49.53-95.35,42.07-6.27-.94-25.42-3.8-39.26-18.7-18.87-20.3-5.91-39.35-20.57-55.15-15.36-16.57-40.23-7.09-111.24-7.48-22.51-.12-40.97-1.19-53.13-2.08"/>
    </clipPath>
  </defs>
  <g id="Layer_1-2" data-name="Layer 1">
    <path class="cls-2" d="M393.71,266.17l32.77-5.88-73.36-196.52c-35.39-9.13-87.89-18.09-150.87-12.29C105.98,60.34,35.73,99.01,0,122.27c82.32-9.11,140.61,7.79,147.44,35.37,5.85,23.61-26.93,51.33-36.3,59.08,49.14-32.04,102.31-19.91,117.82,8.04,14.45,26.04-6.1,61.64-7.97,64.79l120.16-93.43,52.56,70.05Z"/>
    <g>
      <path class="cls-5" d="M477.48,67.57c31.04-3.91,96.53-7.43,157.17,29.86,121.22,74.55,151.37,268.14,86,341.21-2.11,2.36-45.47,49.53-95.35,42.07-6.27-.94-25.42-3.8-39.26-18.7-18.87-20.3-5.91-39.35-20.57-55.15-15.36-16.57-40.23-7.09-111.24-7.48-22.51-.12-40.97-1.19-53.13-2.08"/>
      <g class="cls-6">
        <path class="cls-2" d="M615.96,255.42c-32.04,117.14-181.45,159.35-176.62,168.81,5.38,10.53,203.64-16.64,236.45-147.31,28.03-111.64-84.65-219.43-95.35-214.07-9.37,4.69,62.3,94.68,35.52,192.57Z"/>
        <path class="cls-2" d="M695.99,338.04c-74.47,95.92-228.66,77.69-227.81,88.27.94,11.79,194.48,62.64,274.84-45.49,68.66-92.39,5.87-235.11-6.07-234.27-10.45.74,21.28,111.32-40.96,191.49Z"/>
      </g>
    </g>
    <path class="cls-3" d="M567.31,313.38c-40.41,69.07-138.83,106.59-204.69,71.98-43.16-22.68-57.05-68.31-59.55-77.17-30.02-106.55,81.39-242.86,172.75-240.44,12.08.32,20.32,2.97,22.94,3.87,67.48,23.08,121.04,152.04,68.55,241.76Z"/>
    <path class="cls-1" d="M497.61,330.09c-25.95,6.67-79.97,18.25-127.79,5.4-26.17-7.03-40.94-19.43-46.83-25.03,4.42-27.28,23.83-51.29,53.57-57.83,43.08-9.47,100.63,18.29,121.06,77.46Z"/>
    <path class="cls-4" d="M407.05,296.05c0,4.98-.8,19.29-12.22,30.37-2.9-4.34-10.09-16-10.09-30.37,0-4.12.56-16.12,10.09-30.37,3.05,2.97,12.22,12.97,12.22,30.37Z"/>
    <path class="cls-1" d="M526.13,279.07c-12.4-1.14-37.85-4.52-56.77-17.62-10.35-7.17-14.88-14.9-16.58-18.28,6.2-11.25,18.45-18.72,32.49-16.93,20.33,2.59,41.18,23.74,40.86,52.83Z"/>
    <path class="cls-4" d="M491.82,250.01c-.78,2.18-3.37,8.31-10.1,11.38-.59-2.35-1.92-8.58.33-14.87.64-1.8,2.76-6.97,9.17-11.71.87,1.78,3.32,7.59.6,15.2Z"/>
    <path class="cls-1" d="M440.18,224.49c-10.36,3.96-32.04,11.25-52.32,8.2-11.09-1.67-17.75-6.08-20.44-8.11.54-11.43,7.4-22.21,19.33-26.3,17.28-5.91,42.25,2.82,53.42,26.21Z"/>
    <path class="cls-4" d="M401.33,214.72c.23,2.05.57,7.97-3.61,13.06-1.4-1.65-4.9-6.11-5.57-12.02-.19-1.69-.53-6.66,2.73-12.97,1.4,1.08,5.63,4.77,6.45,11.92Z"/>
    <path class="cls-1" d="M374.39,190.7c-4.35,4.53-13.69,13.49-24.81,16.82-6.08,1.82-10.55,1.17-12.42.78-2.48-5.98-1.57-13.16,3.56-18.13,7.42-7.19,22.32-8.75,33.68.53Z"/>
    <path class="cls-4" d="M352.14,195.07c.61.99,2.22,3.94,1.3,7.56-1.11-.51-3.98-1.95-5.75-4.81-.51-.82-1.87-3.28-1.73-7.3.97.22,4.03,1.08,6.18,4.55Z"/>
    <path class="cls-1" d="M486.93,208.66c-6.28.12-19.22-.15-29.44-5.65-5.59-3.01-8.29-6.64-9.33-8.23,2.48-5.98,8.2-10.41,15.33-10.3,10.34.16,21.96,9.59,23.44,24.19Z"/>
    <path class="cls-4" d="M468.12,196.02c-.27,1.14-1.22,4.36-4.42,6.27-.43-1.15-1.44-4.19-.67-7.47.22-.94.99-3.65,3.94-6.38.54.84,2.09,3.62,1.15,7.58Z"/>
    <path class="cls-1" d="M355.11,230.39c-5.02,7.08-15.94,21.25-30.45,28.09-7.94,3.74-14.18,3.77-16.81,3.62-4.62-7.67-4.85-17.66,1.13-25.51,8.66-11.36,28.7-16.55,46.13-6.21Z"/>
    <path class="cls-4" d="M325.6,240.94c1.04,1.23,3.84,4.93,3.34,10.06-1.63-.46-5.84-1.84-8.85-5.39-.86-1.02-3.24-4.1-3.86-9.62,1.38.09,5.74.65,9.38,4.95Z"/>
    <polyline class="cls-3" points="500.85 72.08 511.01 18.88 535.9 69.56"/>
    <polyline class="cls-3" points="561.23 74.19 592.22 29.77 594.26 86.19"/>
    <polyline class="cls-3" points="620.21 97.74 657.15 58.12 651.22 114.27"/>
    <polyline class="cls-3" points="668.15 134.68 716.07 109.43 691.98 160.5"/>
    <polyline class="cls-3" points="699.79 182.58 752.37 169.6 716.71 213.37"/>
    <polyline class="cls-3" points="727.38 236.89 781.39 241.05 733.8 271.44"/>
    <polyline class="cls-3" points="745.53 296.05 797.17 312.39 743.92 331.15"/>
    <path class="cls-2" d="M676.89,241.91l-32.74-6.07,74.47-196.1C741.05,25.26,786.34.76,846.52.02c126.14-1.55,203.24,102.67,211.58,114.33-81.01-12.97-139.2,8.75-146.37,38.48-5.72,23.75,21.61,50.52,33.38,60.95-40.36-36.04-88.19-32.73-103.25-12.34-10.96,14.84-6.58,41.46,7.6,64.83l-119.63-94.11-52.95,69.75Z"/>
    <path class="cls-3" d="M656.51,478.98c-110.28,40.4-220.55,80.81-330.83,121.21-.71.26-1.15-.75-.49-1.1,171.57-69.72,236.62-111.22,260.85-137.08,4.81-5.14,22.39-25,40.2-21.5,15.56,3.06,24.88,22.7,30.27,38.47Z"/>
  </g>
</svg>