<?xml version="1.0" encoding="UTF-8"?>
<svg xmlns="http://www.w3.org/2000/svg" xmlns:xlink="http://www.w3.org/1999/xlink" viewBox="0 0 340.21 333.87">
  <defs>
    <style>
      .cls-1 {
        fill: none;
      }

      .cls-2 {
        fill: #bf1000;
      }

      .cls-3 {
        opacity: .21;
      }

      .cls-3, .cls-4, .cls-5 {
        fill: #fff;
      }

      .cls-3, .cls-4, .cls-6, .cls-7, .cls-8 {
        mix-blend-mode: overlay;
      }

      .cls-4 {
        opacity: .63;
      }

      .cls-9 {
        fill: #122024;
      }

      .cls-10 {
        mix-blend-mode: soft-light;
        opacity: .41;
      }

      .cls-11 {
        isolation: isolate;
      }

      .cls-12 {
        fill: #98aeb3;
      }

      .cls-13 {
        clip-path: url(#clippath-1);
      }

      .cls-14 {
        clip-path: url(#clippath-3);
      }

      .cls-15 {
        clip-path: url(#clippath-2);
      }

      .cls-16 {
        fill: #171d1e;
      }

      .cls-17 {
        fill: #5d758c;
      }

      .cls-18 {
        fill: #122b30;
      }

      .cls-6 {
        opacity: .3;
      }

      .cls-7 {
        opacity: .56;
      }

      .cls-8 {
        opacity: .16;
      }

      .cls-19 {
        fill: #172a2e;
      }

      .cls-20 {
        clip-path: url(#clippath);
      }

      .cls-21 {
        fill: #0e2226;
      }
    </style>
    <clipPath id="clippath">
      <path class="cls-17" d="M25.96,170.14c-10.33,19.89-12.49,37.84-13.06,43.99-.49,5.26-2.58,31.76,10.98,61.85,13.26,29.41,34.2,46.13,44.43,53.26-12.81-15.67-6.76-34.11,3.45-51.84,11.13-19.33,29.82-36.24,54.3-36.33-2.42-11.7-4.17-25.77-1.03-36.66,1.73-5.99,8.09-12.48,10.35-14.6,7.21-6.75,10.89-8.51,19.21-8.82,1.3-5.26,3.84-12.21,9.04-18.94,15.48-20.02,41.14-20.78,45.37-20.84-36.36-4.03-63.34-11.87-82.14-18.82-14.78-5.46-33.11-13.55-50.81-6.04-.98.42-2.17.8-3.69,1.55-8.24,4.06-12.9,10.09-14.95,12.75-16.79,21.67-22.48,22.2-31.45,39.48Z"/>
    </clipPath>
    <clipPath id="clippath-1">
      <path class="cls-9" d="M191.38,146.25c42.34,59.31,9.77,79.68-16.9,91.64-26.67,11.96-67.53-26.27-65.88-52.17,3.84-60.23-36.22-83.23,3.1-87.79,12.74-1.48,36.27-31.17,36.42-16.85.22,21.96,29.02,45.22,43.26,65.17Z"/>
    </clipPath>
    <clipPath id="clippath-2">
      <path class="cls-1" d="M191.32,146.1c-3.03-4.25-16.66-20.06-25.73-30.43-1.6-1.83-5.84-6.66-10.19-13.92-2.5-4.18-4.24-7.83-5.36-10.39.81-3.58,1.85-10.47-.29-18.61-.29-1.1-1.75-6.46-5.32-11.75-7.66-11.35-23.45-20-33.29-17.54-14,3.5-25.17,31.78-16.54,69.44,2.47,13.33,16.28,36.16,13.95,72.67-1.65,25.91,39.21,64.13,65.88,52.17,26.67-11.96,59.25-32.33,16.9-91.64Z"/>
    </clipPath>
    <clipPath id="clippath-3">
      <path class="cls-2" d="M104.27,75.22c-3.97,10.92-5.89,16.61-10.2,17.78-7.54,2.04-18.16-4.93-17.78-10.2.18-2.55,4.46-4.82,13.01-9.25,8.17-4.23,14.28-7.34,16.12-5.41.63.67.72,1.91-1.15,7.07Z"/>
    </clipPath>
  </defs>
  <g class="cls-11">
    <g id="Layer_2" data-name="Layer 2">
      <g id="Layer_1-2" data-name="Layer 1">
        <g>
          <g>
            <path class="cls-17" d="M25.96,170.14c-10.33,19.89-12.49,37.84-13.06,43.99-.49,5.26-2.58,31.76,10.98,61.85,13.26,29.41,34.2,46.13,44.43,53.26-12.81-15.67-6.76-34.11,3.45-51.84,11.13-19.33,29.82-36.24,54.3-36.33-2.42-11.7-4.17-25.77-1.03-36.66,1.73-5.99,8.09-12.48,10.35-14.6,7.21-6.75,10.89-8.51,19.21-8.82,1.3-5.26,3.84-12.21,9.04-18.94,15.48-20.02,41.14-20.78,45.37-20.84-36.36-4.03-63.34-11.87-82.14-18.82-14.78-5.46-33.11-13.55-50.81-6.04-.98.42-2.17.8-3.69,1.55-8.24,4.06-12.9,10.09-14.95,12.75-16.79,21.67-22.48,22.2-31.45,39.48Z"/>
            <g class="cls-20">
              <path class="cls-8" d="M72.01,192.13c35.36-59.99,88.78-79.35,83.16-90.72-5.38-10.9-56.02,3.59-82.86,13.37-45.34,16.52-77.21,28.13-89.65,57.43-21.53,50.71,28.06,123.97,50.57,120.25,16.59-2.74,6.35-45.3,38.78-100.32Z"/>
              <path class="cls-8" d="M35.7,296.02c-8.58,13.93,11.15,50.13,35.38,59.82,36.53,14.62,94.89-26.41,118.11-75.86,32.49-69.21-1.32-160.33-30.57-164.14-23.41-3.05-52.85,48.65-58.42,58.42-9.72,17.06-15.69,33.95-19.24,43.99-12.66,35.8-14.18,59.66-33.68,70.79-6,3.43-9.13,3.03-11.57,6.98Z"/>
              <g class="cls-7">
                <path class="cls-5" d="M35.7,296.02c-8.58,13.93,11.15,50.13,35.38,59.82,36.53,14.62,94.89-26.41,118.11-75.86,32.49-69.21-1.32-160.33-30.57-164.14-23.41-3.05-52.85,48.65-58.42,58.42-9.72,17.06-15.69,33.95-19.24,43.99-12.66,35.8-14.18,59.66-33.68,70.79-6,3.43-9.13,3.03-11.57,6.98Z"/>
              </g>
            </g>
          </g>
          <path class="cls-19" d="M90.69,24.02c9.67,7.46,15.49,21.35,12.42,24.84-3.14,3.57-15.95-3.24-23.75-9.97-8.14-7.01-12.51-15.38-14.83-20.97,4.43-.63,16.17-1.62,26.16,6.09Z"/>
          <path class="cls-16" d="M68.32,329.24c-19.74-11.82-30.64-25.65-36.17-34.01-3.24-4.89-13.17-20.08-17.87-42.61-8.7-41.74,6.49-78.93,9.05-78.51,2.65.43-11.79,40.44,1.95,86.76,9.12,30.76,27.39,53.23,43.05,68.38Z"/>
          <path class="cls-16" d="M20.46,173.57c11.45,4.58,23.71,10.22,36.43,17.18,29.17,15.97,52,34.15,69.18,50.32-7.34-11.48-22.81-32.27-49.93-48.26-22.13-13.04-42.91-17.52-55.67-19.24Z"/>
          <path class="cls-16" d="M23.33,174.1c12.21-1.76,25.64-3.01,40.14-3.33,33.25-.75,62.11,3.57,85.07,8.99-13.64-5.88-36.42-13.69-65.52-14.43-25.59-.66-46.31,4.39-59.68,8.78Z"/>
          <path class="cls-16" d="M103.31,109.87c-5.27-.08-18.42-.27-30.99,4.91-27.48,11.31-27.79,38.17-49.79,45.74-2.61.9-6.24,1.25-10.25,4.07-8.46,5.95-11.26,16.64-12.27,24.99,1.36-3.85,3.88-8.85,8.78-11.19,4.6-2.2,8.16-.57,12.37-.69,10.21-.28,14.98-11.19,27.49-24.06,13.9-14.3,20.84-21.45,29.55-26.8,18.69-11.5,36.84-12.5,36.43-15.12-.26-1.64-7.42-1.79-11.32-1.85Z"/>
          <g>
            <ellipse class="cls-21" cx="184.33" cy="239.63" rx="21.13" ry="12.36" transform="translate(-32.74 29.2) rotate(-8.32)"/>
            <path class="cls-21" d="M212.01,245.55c4.24,5.68,8.62,5.51,8.65,8.84.03,2.7-2.62,5.84-5.12,5.86-3.81.03-3.78-7.21-11.72-13.67-3.34-2.71-5.37-3.09-6.18-5.58-1.12-3.45,1.28-7.38,3.67-10.31.83.59,2.12,1.57,3.49,2.99,4.38,4.51,3.92,7.47,7.21,11.87Z"/>
            <polygon class="cls-18" points="213.37 259.2 213.02 263.02 214.97 264.78 216.63 264.78 216.15 263.07 214.82 261.36 215.84 260.23 213.37 259.2"/>
            <polygon class="cls-18" points="215.11 258.37 215.92 261.41 217.96 263.07 220.05 263.31 220.05 261.99 218.05 260.25 218.41 258.97 215.11 258.37"/>
            <polygon class="cls-18" points="217.82 256.42 218.75 258.64 219.16 260.25 222.42 260.84 222.76 259.2 220.45 258.37 220.29 255.95 217.82 256.42"/>
          </g>
          <g>
            <path class="cls-9" d="M191.38,146.25c42.34,59.31,9.77,79.68-16.9,91.64-26.67,11.96-67.53-26.27-65.88-52.17,3.84-60.23-36.22-83.23,3.1-87.79,12.74-1.48,36.27-31.17,36.42-16.85.22,21.96,29.02,45.22,43.26,65.17Z"/>
            <g class="cls-13">
              <path class="cls-6" d="M174.02,72.71c3.27,3.91-14.96,17.92-30.34,46.62-22.89,42.73-13.1,68.82-28.12,75.49-24.24,10.75-81.89-42.94-72.88-67.36,4.76-12.91,24.51-7.72,71.22-27.1,36.8-15.26,56.66-31.8,60.12-27.65Z"/>
            </g>
          </g>
          <path class="cls-19" d="M150.98,82.95c0,22.05-15.97,22.29-37.93,22.29-9.51,0-7.67,6.9-18.05,8.53-4.42.69-8.82.73-12.85.44-9.87-.72-17.46-3.43-17.46-3.43l-8.99-12.88.7-13.88,10.82,1.66,1.31-13.55,9.03-18.24s24.96-10.85,33.66-10.85c21.97,0,39.77,17.87,39.77,39.92Z"/>
          <g class="cls-10">
            <g class="cls-15">
              <ellipse class="cls-12" cx="200.81" cy="94.3" rx="74.79" ry="136.99" transform="translate(-20.25 113.04) rotate(-30)"/>
            </g>
          </g>
          <path class="cls-19" d="M114.15,16.62c7.07,11.1,9.37,26.72,5.91,28.78-3.53,2.1-13.52-9.68-19.08-19.31-5.79-10.04-7.95-19.81-8.86-26.08,4.07,1.24,14.72,5.15,22.02,16.62Z"/>
          <path class="cls-17" d="M119.89,45.72c-1.02,1.2-3.98-2-9.51-1.3-3.11.39-3.62,1.58-5.27,1.2-3.35-.77-3.26-7.91-8.13-15.92-7.67-12.62-4.85-29.69-4.85-29.69,3.78,5.03,9.04,12.2,15.06,21.08,8.22,12.1,14.37,22.68,12.7,24.64Z"/>
          <path class="cls-3" d="M105.43,68.14c3.5.58,9.23,22.43-2.48,30.58-5.92,4.12-15.17,3.94-21.07-.85-5.44-4.41-8-12.69-5.58-15.07,2.56-2.52,8.46,3.83,15.6,1.77,9.36-2.71,10.62-16.91,13.53-16.43Z"/>
          <path class="cls-6" d="M108.13,66.2c-.15-1.44-10.9-3.24-21.56.5-9.51,3.33-18.49,10.9-17.26,14.19.69,1.83,4.51,2.21,6.99,1.92,5.63-.65,7.59-5.09,13.01-9.25,9.26-7.1,18.96-5.98,18.82-7.35Z"/>
          <path class="cls-4" d="M100.01,93.59c-5.46,3.45-13.23,3.13-18.35-.66-3.8-2.79-6.82-8-5.37-10.13-.38,5.27,10.26,12.24,17.79,10.2,4.3-1.17,6.22-6.87,10.19-17.79,1.06-2.89,1.49-4.55,1.55-5.57,2.89,1.07,4.16,17.67-5.8,23.95Z"/>
          <path class="cls-2" d="M105.82,69.64c-.06,1.02-.49,2.68-1.55,5.57-3.96,10.93-5.89,16.62-10.19,17.79-7.54,2.04-18.17-4.93-17.79-10.2.18-2.55,4.47-4.81,13.02-9.25,8.16-4.23,14.27-7.34,16.12-5.41.28.29.45.7.39,1.51Z"/>
          <g>
            <path class="cls-2" d="M104.27,75.22c-3.97,10.92-5.89,16.61-10.2,17.78-7.54,2.04-18.16-4.93-17.78-10.2.18-2.55,4.46-4.82,13.01-9.25,8.17-4.23,14.28-7.34,16.12-5.41.63.67.72,1.91-1.15,7.07Z"/>
            <g class="cls-14">
              <path d="M90.46,85.91c.27.99-.32,2.01-1.31,2.28s-2.01-.32-2.28-1.31.32-2.01,1.31-2.28,2.01.32,2.28,1.31Z"/>
            </g>
          </g>
          <g>
            <polygon class="cls-17" points="64.77 86.34 66.72 91.88 66.1 97.64 57.64 98.69 55.7 96.82 56.4 84.01 64.77 86.34"/>
            <g class="cls-7">
              <ellipse class="cls-5" cx="61.21" cy="93.67" rx="1.38" ry="2.76" transform="translate(-45.15 58.89) rotate(-38.73)"/>
            </g>
          </g>
          <g>
            <ellipse class="cls-18" cx="206.34" cy="229.69" rx="21.13" ry="12.36" transform="translate(-52.92 62.01) rotate(-15.17)"/>
            <path class="cls-18" d="M234.53,232.27c4.89,5.13,9.22,4.44,9.65,7.74.35,2.68-1.91,6.11-4.39,6.43-3.78.49-4.61-6.71-13.27-12.17-3.64-2.3-5.7-2.42-6.8-4.8-1.53-3.3.39-7.48,2.41-10.68.9.49,2.29,1.31,3.82,2.55,4.89,3.95,4.79,6.95,8.58,10.93Z"/>
            <polygon class="cls-21" points="237.05 245.3 236.69 249.12 238.64 250.88 240.3 250.88 239.83 249.17 238.5 247.46 239.51 246.33 237.05 245.3"/>
            <polygon class="cls-21" points="238.78 244.47 239.59 247.51 241.63 249.17 243.72 249.41 243.72 248.09 241.73 246.35 242.08 245.07 238.78 244.47"/>
            <polygon class="cls-21" points="241.49 242.52 242.43 244.74 242.84 246.35 246.1 246.94 246.43 245.3 244.12 244.47 243.96 242.05 241.49 242.52"/>
          </g>
          <path class="cls-16" d="M150,108.67c8.15,18.94,13.64,31.72,26.37,43.57,4.89,4.56,8.22,6.52,9.77,11.59,4.07,13.33-12.52,20.71-17.57,42.83-4.49,19.68-2.15,37.86-2.15,37.86l-28.28,5.6c5.56,9.6,39.93,66.75,109.83,80.74,42.52,8.51,77.26-3.14,92.25-9.24-20.9,4.82-42.02-6.36-49.41-25.27-8.06-20.61,2.2-45.26,23.85-54.38-2.93-2.56-18.17-16.38-17.96-37.1.11-11.4,4.85-19.91,7.23-24.07,7.6-13.3,18.61-20.01,23.79-22.74-2.65-.13-6.46-.63-10.67-2.31,0,0-12.6-5.05-19.1-18.73"/>
        </g>
      </g>
    </g>
  </g>
</svg>